<svg id="Ebene_1" data-name="Ebene 1" xmlns="http://www.w3.org/2000/svg" width="84" height="278.5" viewBox="0 0 84 278.5"><defs><style>.cls-1{fill:none;stroke:#000;stroke-miterlimit:10;stroke-width:0.5px;}</style></defs><title>AP-370 flowchart min</title><circle cx="43.4732" cy="77.2382" r="1.5"/><line class="cls-1" x1="43.4732" y1="50.7382" x2="43.4732" y2="40.7382"/><line class="cls-1" x1="43.4732" y1="20.7382" x2="43.4732" y2="10.7382"/><line class="cls-1" x1="43.4732" y1="135.4882" x2="43.4732" y2="125.4882"/><line class="cls-1" x1="43.4788" y1="170.4882" x2="43.4788" y2="160.4882"/><line class="cls-1" x1="43.4729" y1="195.4673" x2="43.4729" y2="185.4673"/><line class="cls-1" x1="43.4788" y1="230.4673" x2="43.4788" y2="220.4673"/><line class="cls-1" x1="43.4788" y1="240.4152" x2="43.4788" y2="230.4152"/><circle cx="43.4788" cy="230.4673" r="1.5"/><line class="cls-1" x1="43.4788" y1="255.4152" x2="43.4788" y2="265.4152"/><circle class="cls-1" cx="43.4757" cy="147.9882" r="12.5"/><polyline class="cls-1" points="52.313 156.826 43.476 147.988 34.644 139.156"/><polyline class="cls-1" points="52.314 139.149 43.476 147.988 34.637 156.827"/><rect class="cls-1" x="41.9732" y="5.7382" width="3" height="5"/><rect class="cls-1" x="22.9732" y="5.7382" width="3" height="5"/><rect class="cls-1" x="50.4732" y="114.2382" width="12" height="6" transform="translate(173.7114 60.7649) rotate(90)"/><line class="cls-1" x1="59.4732" y1="123.2382" x2="53.4732" y2="111.2382"/><line class="cls-1" x1="59.4732" y1="111.2382" x2="53.4732" y2="123.2382"/><rect class="cls-1" x="41.9788" y="265.4152" width="3" height="5"/><polyline class="cls-1" points="33.479 200.467 33.479 195.467 53.479 195.467 53.479 200.467"/><line class="cls-1" x1="53.4787" y1="215.4673" x2="53.4787" y2="200.4673"/><line class="cls-1" x1="33.4787" y1="200.4673" x2="33.4787" y2="215.4673"/><polyline class="cls-1" points="33.479 215.467 33.479 220.467 53.479 220.467 53.479 215.467"/><path class="cls-1" d="M33.4787,215.4673a7.5,7.5,0,0,0,0-15"/><path class="cls-1" d="M53.4787,200.4673a7.5,7.5,0,0,0,0,15"/><line class="cls-1" x1="43.4732" y1="58.9882" x2="53.4732" y2="58.9882"/><line class="cls-1" x1="43.4732" y1="117.2382" x2="53.4732" y2="117.2382"/><path d="M38.7105,50.7382h9.5254l-4.7627,8.25Zm8.66.5h-7.795l3.8975,6.75Z"/><polygon points="35.223 54.225 35.223 63.751 43.473 58.988 35.223 54.225"/><path d="M43.4732,58.9882l-4.7627,8.25h9.5254Zm-3.8975,7.75,3.8975-6.75v6.75Z"/><polyline class="cls-1" points="35.223 58.988 24.473 58.988 24.473 10.738"/><path d="M38.7105,108.9882h9.5254l-4.7627,8.25Zm8.66.5h-7.795l3.8975,6.75Z"/><polygon points="35.223 112.475 35.223 122.001 43.473 117.238 35.223 112.475"/><path d="M43.4732,117.2382l-4.7627,8.25h9.5254Zm-3.8975,7.75,3.8975-6.75v6.75Z"/><polyline class="cls-1" points="23.473 107.238 23.473 117.238 35.223 117.238"/><line class="cls-1" x1="43.4732" y1="67.2382" x2="43.4732" y2="108.9882"/><polyline class="cls-1" points="43.473 77.238 23.473 77.238 23.473 87.238"/><line class="cls-1" x1="43.4788" y1="230.4673" x2="53.4788" y2="230.4673"/><circle class="cls-1" cx="60.9788" cy="230.4673" r="7.5"/><path d="M56.14,231.0679v2.9541h-.581v-7.1094h2.4463a2.4452,2.4452,0,0,1,1.73.5694,2.1649,2.1649,0,0,1,0,3.0195,2.4533,2.4533,0,0,1-1.73.5664Zm0-.498h1.8653a1.7792,1.7792,0,0,0,1.32-.4463,1.5343,1.5343,0,0,0,.4424-1.126,1.5616,1.5616,0,0,0-.4395-1.1348,1.7665,1.7665,0,0,0-1.3232-.4521H56.14Z"/><path d="M65.8128,232.2769a1.1842,1.1842,0,0,0-.4346-.9482,3.9905,3.9905,0,0,0-1.5137-.6514,4.7846,4.7846,0,0,1-1.7675-.7617,1.52,1.52,0,0,1-.6006-1.2647,1.5964,1.5964,0,0,1,.6719-1.3281,2.762,2.762,0,0,1,1.7255-.5127,2.5415,2.5415,0,0,1,1.7725.61,1.8751,1.8751,0,0,1,.6543,1.4892l-.0146.0293h-.5372a1.5177,1.5177,0,0,0-.5048-1.1719,1.9651,1.9651,0,0,0-1.37-.459,2.0979,2.0979,0,0,0-1.3349.3809,1.1635,1.1635,0,0,0-.4815.9473,1.1087,1.1087,0,0,0,.4444.8965,4.146,4.146,0,0,0,1.5332.6318,4.4513,4.4513,0,0,1,1.7461.791,1.6266,1.6266,0,0,1,.5976,1.3135,1.5866,1.5866,0,0,1-.6953,1.3525,2.9528,2.9528,0,0,1-1.7754.503,3.2415,3.2415,0,0,1-1.8574-.5342,1.7094,1.7094,0,0,1-.77-1.5606l.01-.0293h.5371a1.3568,1.3568,0,0,0,.62,1.2266,2.6338,2.6338,0,0,0,1.46.3994,2.3042,2.3042,0,0,0,1.3653-.37A1.15,1.15,0,0,0,65.8128,232.2769Z"/><path class="cls-1" d="M48.7831,253.2185a7.5,7.5,0,1,0-5.3033,2.1967,7.4765,7.4765,0,0,0,5.3033-2.1967"/><polyline class="cls-1" points="48.783 253.219 50.98 255.415 35.98 255.415 38.177 253.219"/><path d="M41.6658,248.5158V251.47h-.581v-7.1093h2.4463a2.4451,2.4451,0,0,1,1.73.5693,2.1649,2.1649,0,0,1,0,3.0195,2.4529,2.4529,0,0,1-1.73.5664Zm0-.498h1.8653a1.7792,1.7792,0,0,0,1.32-.4463,1.5343,1.5343,0,0,0,.4424-1.126,1.5612,1.5612,0,0,0-.4395-1.1347,1.7661,1.7661,0,0,0-1.3232-.4522H41.6658Z"/><rect class="cls-1" x="33.4732" y="20.7382" width="20" height="20"/><path d="M45.2432,30.9579h-3.457v3.3349h-.5811V27.1835h4.5362v.498H41.7862V30.46h3.457Z"/><path d="M58.4863,35.3555H56.084v.4394h-.2393v-.4394h-.3369a.805.805,0,0,1-.8818-.877,1.5733,1.5733,0,0,1,.0371-.332,2.0543,2.0543,0,0,1,.1074-.3418l.251.0488a2.0558,2.0558,0,0,0-.0947.2891,1.2894,1.2894,0,0,0-.0342.3164.5984.5984,0,0,0,.1582.4512.6349.6349,0,0,0,.457.1523h.3369v-.6172h.2393v.6172h2.4023Zm0-1.709v.293H55.8447v-.293Z"/><path d="M58.4863,32.5137v.291H54.6777v-.291Z"/><path d="M55.168,31.2471h.6767V30.666h.2393v.5811h1.7207a.5676.5676,0,0,0,.3682-.0938.3158.3158,0,0,0,.1084-.251q0-.07-.0059-.1377c-.0049-.0449-.0117-.0966-.0215-.1552l.2178-.043a.7965.7965,0,0,1,.0488.1777,1.3769,1.3769,0,0,1,.0166.21.5483.5483,0,0,1-.1758.4336.8275.8275,0,0,1-.5566.1553H56.084v.456h-.2393v-.456H55.168Z"/><path d="M58.5371,29.0547a1.0609,1.0609,0,0,1-.3662.8242,1.3365,1.3365,0,0,1-.9277.3281h-.1338a1.377,1.377,0,0,1-.9405-.3261,1.01,1.01,0,0,1-.373-.7891.9792.9792,0,0,1,.3076-.7647,1.1763,1.1763,0,0,1,.82-.2783h.2491v1.8653h.07a1.1667,1.1667,0,0,0,.7451-.2364.7559.7559,0,0,0,.3-.623,1.2957,1.2957,0,0,0-.0752-.4668.92.92,0,0,0-.2178-.3291l.2-.124a1.0649,1.0649,0,0,1,.25.3769A1.4467,1.4467,0,0,1,58.5371,29.0547Zm-2.4922.0371a.6984.6984,0,0,0,.2471.5439,1.0682,1.0682,0,0,0,.6191.2569l.0127-.0059V28.34h-.0732a.84.84,0,0,0-.5742.2022A.693.693,0,0,0,56.0449,29.0918Z"/><path d="M56.0957,26.2539l-.0146.2168a.6612.6612,0,0,0,.1552.4531.8561.8561,0,0,0,.4258.253h1.8242V27.47H55.8447v-.2568l.4395-.0361h.0293a.94.94,0,0,1-.3809-.3077.7683.7683,0,0,1-.1367-.4589.6527.6527,0,0,1,.0088-.1084.7433.7433,0,0,1,.0176-.087Z"/><rect class="cls-1" x="13.4732" y="87.2382" width="20" height="20"/><path d="M17.5967,100.7928V93.6835h2.0655a2.8828,2.8828,0,0,1,2.1533.8691,3.0589,3.0589,0,0,1,.85,2.2315v.913a3.0479,3.0479,0,0,1-.85,2.2315,2.8918,2.8918,0,0,1-2.1533.8642Zm.5811-6.6113v6.1133h1.4844a2.2624,2.2624,0,0,0,1.7363-.7368,2.6426,2.6426,0,0,0,.6807-1.8638v-.9267a2.6124,2.6124,0,0,0-.6836-1.8492,2.262,2.262,0,0,0-1.7334-.7368Z"/><path d="M29.35,97.8192a3.2334,3.2334,0,0,1-.7539,2.2266,2.5737,2.5737,0,0,1-2.0244.85,2.5218,2.5218,0,0,1-1.9952-.85,3.2566,3.2566,0,0,1-.7441-2.2266V96.662a3.2725,3.2725,0,0,1,.7422-2.2266,2.5059,2.5059,0,0,1,1.9922-.8545,2.5714,2.5714,0,0,1,2.0263.8545A3.2324,3.2324,0,0,1,29.35,96.662Zm-.5811-1.1631a2.8208,2.8208,0,0,0-.583-1.8584,1.9892,1.9892,0,0,0-1.6191-.7041,1.918,1.918,0,0,0-1.5821.7041,2.8749,2.8749,0,0,0-.5664,1.8584v1.169a2.8858,2.8858,0,0,0,.5684,1.8681,1.926,1.926,0,0,0,1.585.7041,1.9791,1.9791,0,0,0,1.6181-.7016,2.8432,2.8432,0,0,0,.5791-1.8706Z"/><path d="M37.4116,108.7168A1.7276,1.7276,0,0,1,36.4,108.45a.8611.8611,0,0,1-.38-.7461.94.94,0,0,1,.1172-.4785.9726.9726,0,0,1,.332-.3369H34.9019v-.291H38.71v.26l-.3833.0235a.9017.9017,0,0,1,.3223.34,1.013,1.013,0,0,1,.1123.4883.8789.8789,0,0,1-.353.7412,1.5307,1.5307,0,0,1-.9458.2666Zm.0518-.293a1.3465,1.3465,0,0,0,.7646-.1914.6489.6489,0,0,0,.2847-.5771.829.829,0,0,0-.1274-.4727.8465.8465,0,0,0-.3531-.2939H36.7866a.9375.9375,0,0,0-.374.2832.7524.7524,0,0,0-.1436.4785.6377.6377,0,0,0,.3174.58,1.57,1.57,0,0,0,.8252.1933Z"/><path d="M38.7617,104.8281a1.0609,1.0609,0,0,1-.3662.8242,1.3374,1.3374,0,0,1-.9277.3282h-.1343a1.3759,1.3759,0,0,1-.94-.3262,1.01,1.01,0,0,1-.3736-.7891.9792.9792,0,0,1,.3076-.7646,1.176,1.176,0,0,1,.82-.2783h.2491v1.8652h.0708a1.1682,1.1682,0,0,0,.7451-.2363.7573.7573,0,0,0,.3-.6231,1.2843,1.2843,0,0,0-.0757-.4668.9175.9175,0,0,0-.2173-.3291l.2-.124a1.0569,1.0569,0,0,1,.25.377A1.4438,1.4438,0,0,1,38.7617,104.8281Zm-2.4927.0371a.7.7,0,0,0,.2471.544,1.0685,1.0685,0,0,0,.62.2568l.0122-.0058v-1.5469h-.0732a.8411.8411,0,0,0-.5742.2021A.693.693,0,0,0,36.269,104.8652Z"/><path d="M37.3506,103.4063a1.42,1.42,0,0,1-.957-.3194,1.15,1.15,0,0,1,0-1.6963,1.4164,1.4164,0,0,1,.957-.32h.0806a1.4236,1.4236,0,0,1,.958.3184,1.154,1.154,0,0,1,0,1.6982,1.419,1.419,0,0,1-.958.3194Zm.0791-.293a1.2587,1.2587,0,0,0,.771-.2315.8206.8206,0,0,0,0-1.288,1.2528,1.2528,0,0,0-.771-.2325h-.08a1.2474,1.2474,0,0,0-.7661.2344.76.76,0,0,0-.3145.6445.7524.7524,0,0,0,.3145.6416,1.258,1.258,0,0,0,.7661.2315Z"/><path d="M38.4614,100.3037V98.5879h.249v2.0771h-.2167l-2.1758-1.5918v1.543h-.2491V98.7051h.2154Z"/><path d="M37.3506,98.2559a1.42,1.42,0,0,1-.957-.3194,1.15,1.15,0,0,1,0-1.6963,1.4164,1.4164,0,0,1,.957-.32h.0806a1.4236,1.4236,0,0,1,.958.3184,1.154,1.154,0,0,1,0,1.6982,1.419,1.419,0,0,1-.958.3194Zm.0791-.293a1.2587,1.2587,0,0,0,.771-.2315.8206.8206,0,0,0,0-1.288,1.2528,1.2528,0,0,0-.771-.2325h-.08a1.2474,1.2474,0,0,0-.7661.2344.76.76,0,0,0-.3145.6445.7524.7524,0,0,0,.3145.6416,1.258,1.258,0,0,0,.7661.2315Z"/><path d="M36.0688,95.0508l.4615-.0274a.9352.9352,0,0,1-.3775-.3427A.9575.9575,0,0,1,36.02,94.17a.8114.8114,0,0,1,.2627-.6543,1.2372,1.2372,0,0,1,.8189-.2246H38.71v.293h-1.61a.9582.9582,0,0,0-.6431.1689.6172.6172,0,0,0-.1885.4825.7564.7564,0,0,0,.1626.5019.9065.9065,0,0,0,.4317.2793H38.71v.293H36.0688Z"/><path d="M35.312,92.1992v.291h-.41v-.291Zm3.3984,0v.291H36.0688v-.291Z"/><path d="M38.4614,91.1953V89.48h.249v2.0771h-.2167l-2.1758-1.5918v1.543h-.2491V89.5967h.2154Z"/><path d="M38.7617,87.9922a1.0609,1.0609,0,0,1-.3662.8242,1.3374,1.3374,0,0,1-.9277.3281h-.1343a1.3763,1.3763,0,0,1-.94-.3261,1.01,1.01,0,0,1-.3736-.7891.98.98,0,0,1,.3076-.7647,1.1765,1.1765,0,0,1,.82-.2783h.2491v1.8653h.0708a1.1676,1.1676,0,0,0,.7451-.2364.7572.7572,0,0,0,.3-.623,1.2843,1.2843,0,0,0-.0757-.4668.9175.9175,0,0,0-.2173-.3291l.2-.124a1.0573,1.0573,0,0,1,.25.3769A1.4443,1.4443,0,0,1,38.7617,87.9922Zm-2.4927.0371a.7.7,0,0,0,.2471.5439,1.0686,1.0686,0,0,0,.62.2569l.0122-.0059V87.2773h-.0732a.8407.8407,0,0,0-.5742.2022A.693.693,0,0,0,36.269,88.0293Z"/><path d="M36.32,85.1914l-.0146.2168a.6633.6633,0,0,0,.1547.4531.8586.8586,0,0,0,.4263.253H38.71v.2929H36.0688V86.15l.4395-.0361h.0293a.9465.9465,0,0,1-.3809-.3077.7717.7717,0,0,1-.1367-.4589.6527.6527,0,0,1,.0088-.1084.731.731,0,0,1,.0181-.087Z"/><rect class="cls-1" x="50.4732" y="55.9882" width="12" height="6" transform="translate(115.4614 2.5149) rotate(90)"/><line class="cls-1" x1="59.4732" y1="64.9882" x2="53.4732" y2="52.9882"/><line class="cls-1" x1="59.4732" y1="52.9882" x2="53.4732" y2="64.9882"/><path d="M64.749,72.2979a.4238.4238,0,0,0-.3232.1523,1.238,1.238,0,0,0-.2266.5508,1.8457,1.8457,0,0,1-.2715.6992.5584.5584,0,0,1-.4756.2256.6375.6375,0,0,1-.5117-.2549,1.0288,1.0288,0,0,1-.209-.6748,1.065,1.065,0,0,1,.2207-.708.6636.6636,0,0,1,.5538-.249l.0146.0048v.2706a.4885.4885,0,0,0-.3789.1845.73.73,0,0,0-.1611.4971.7186.7186,0,0,0,.1377.48.4133.4133,0,0,0,.3213.16.3808.3808,0,0,0,.3017-.1377,1.3571,1.3571,0,0,0,.209-.5507,1.802,1.802,0,0,1,.2871-.7051.5957.5957,0,0,1,.4961-.2344.6421.6421,0,0,1,.5352.2666,1.1325,1.1325,0,0,1,.205.707,1.1486,1.1486,0,0,1-.23.7559.6521.6521,0,0,1-.5468.26l-.0147-.0049v-.2686a.4809.4809,0,0,0,.4131-.2334.9728.9728,0,0,0,.1289-.5088.8177.8177,0,0,0-.1387-.5009A.4139.4139,0,0,0,64.749,72.2979Z"/><path d="M64.0625,71.4961a1.42,1.42,0,0,1-.957-.3193,1.1485,1.1485,0,0,1,0-1.6963,1.4152,1.4152,0,0,1,.957-.32h.08a1.4235,1.4235,0,0,1,.958.3183,1.1531,1.1531,0,0,1,0,1.6983,1.42,1.42,0,0,1-.958.3193Zm.0791-.293a1.2572,1.2572,0,0,0,.77-.2314.82.82,0,0,0,0-1.2881,1.2512,1.2512,0,0,0-.77-.2324h-.08a1.2488,1.2488,0,0,0-.7666.2343.7614.7614,0,0,0-.3144.6446.7536.7536,0,0,0,.3144.6416,1.26,1.26,0,0,0,.7666.2314Z"/><path d="M65.4219,68.2227v.291H61.6133v-.291Z"/><path d="M65.4736,66.4238a1.0605,1.0605,0,0,1-.3662.8242,1.3383,1.3383,0,0,1-.9277.3282h-.1348a1.3755,1.3755,0,0,1-.9394-.3262,1.0106,1.0106,0,0,1-.3741-.7891.9789.9789,0,0,1,.3077-.7646,1.1757,1.1757,0,0,1,.82-.2783h.249v1.8652H64.18a1.1689,1.1689,0,0,0,.7451-.2363.7586.7586,0,0,0,.3-.6231,1.2732,1.2732,0,0,0-.0762-.4668.9172.9172,0,0,0-.2168-.3291l.2-.124a1.0509,1.0509,0,0,1,.2491.377A1.4455,1.4455,0,0,1,65.4736,66.4238Zm-2.4931.0371a.7017.7017,0,0,0,.247.544,1.0687,1.0687,0,0,0,.62.2568l.0117-.0058V65.709h-.0733a.842.842,0,0,0-.5742.2021A.693.693,0,0,0,62.9805,66.4609Z"/><path d="M62.78,64.58l.4619-.0274a.9325.9325,0,0,1-.3779-.3427.9612.9612,0,0,1-.1329-.5108.813.813,0,0,1,.2627-.6543,1.2387,1.2387,0,0,1,.8194-.2246h1.6084v.293H63.8125a.96.96,0,0,0-.6436.1689.6187.6187,0,0,0-.1884.4824.7568.7568,0,0,0,.1631.502.9038.9038,0,0,0,.4316.2793h1.8467v.293H62.78Z"/><path d="M64.0625,62.2188a1.42,1.42,0,0,1-.957-.3194,1.1485,1.1485,0,0,1,0-1.6963,1.4157,1.4157,0,0,1,.957-.32h.08a1.4236,1.4236,0,0,1,.958.3184,1.1529,1.1529,0,0,1,0,1.6982,1.419,1.419,0,0,1-.958.3194Zm.0791-.293a1.2572,1.2572,0,0,0,.77-.2315.82.82,0,0,0,0-1.288,1.2513,1.2513,0,0,0-.77-.2325h-.08a1.2489,1.2489,0,0,0-.7666.2344.7614.7614,0,0,0-.3144.6445.7535.7535,0,0,0,.3144.6416,1.26,1.26,0,0,0,.7666.2315Z"/><path d="M62.0234,58.9453v.291h-.41v-.291Zm3.3985,0v.291H62.78v-.291Z"/><path d="M64.123,58.252a1.7289,1.7289,0,0,1-1.0117-.2666.8623.8623,0,0,1-.38-.7461.94.94,0,0,1,.1172-.4786.9789.9789,0,0,1,.3321-.3369H61.6133v-.291h3.8086v.26l-.3828.0234a.91.91,0,0,1,.3222.34,1.018,1.018,0,0,1,.1123.4882.8792.8792,0,0,1-.3535.7413,1.5281,1.5281,0,0,1-.9453.2666Zm.0518-.293a1.3479,1.3479,0,0,0,.7647-.1914.6485.6485,0,0,0,.2851-.5772.829.829,0,0,0-.1279-.4726.8452.8452,0,0,0-.3526-.294H63.498a.9419.9419,0,0,0-.374.2832.7527.7527,0,0,0-.1435.4785.6384.6384,0,0,0,.3174.58,1.571,1.571,0,0,0,.8251.1934Z"/><path d="M64.7607,53.3867l.31-.0849v-.0157l-.31-.0918-1.98-.7187v-.3027l2.6416,1.0039v.2343L62.78,54.417v-.3027Z"/><path d="M65.4219,50.0566c-.0889.02-.167.0342-.2315.042a1.6632,1.6632,0,0,1-.1982.0127,1.1676,1.1676,0,0,1,.3447.3907,1.1056,1.1056,0,0,1,.1367.5488.8318.8318,0,0,1-.205.6.7262.7262,0,0,1-.55.2129.68.68,0,0,1-.586-.3154,1.472,1.472,0,0,1-.22-.8536v-.583h-.3272a.5638.5638,0,0,0-.4443.1817.7415.7415,0,0,0-.1611.5088.8128.8128,0,0,0,.1543.5068.46.46,0,0,0,.3759.2012l-.0029.2685-.0146.0049a.6324.6324,0,0,1-.5284-.27,1.1077,1.1077,0,0,1-.2334-.7246,1.0613,1.0613,0,0,1,.2227-.7032.7838.7838,0,0,1,.6367-.2656H64.89a2.25,2.25,0,0,0,.2715-.0156,1.7242,1.7242,0,0,0,.2608-.0527Zm-.2071.96a1.0448,1.0448,0,0,0-.1484-.5566.8653.8653,0,0,0-.3769-.3487h-.5518v.5879a1.0709,1.0709,0,0,0,.17.6358.5027.5027,0,0,0,.4209.2382.4537.4537,0,0,0,.3506-.1474A.5865.5865,0,0,0,65.2148,51.0166Z"/><path d="M65.4219,48.7139v.291H61.6133v-.291Z"/><path d="M64.7607,47.1533l.31-.0849v-.0157l-.31-.0918-1.98-.7187V45.94l2.6416,1.0039v.2343L62.78,48.1836v-.3027Z"/><path d="M65.4736,44.5a1.0605,1.0605,0,0,1-.3662.8242,1.3382,1.3382,0,0,1-.9277.3281h-.1348a1.3759,1.3759,0,0,1-.9394-.3261,1.0106,1.0106,0,0,1-.3741-.7891.9789.9789,0,0,1,.3077-.7646,1.1757,1.1757,0,0,1,.82-.2784h.249v1.8653H64.18a1.1684,1.1684,0,0,0,.7451-.2364.7586.7586,0,0,0,.3-.623,1.2732,1.2732,0,0,0-.0762-.4668.9164.9164,0,0,0-.2168-.3291l.2-.124a1.0513,1.0513,0,0,1,.2491.3769A1.446,1.446,0,0,1,65.4736,44.5Zm-2.4931.0371a.7019.7019,0,0,0,.247.544,1.0693,1.0693,0,0,0,.62.2568l.0117-.0059V43.7852h-.0733a.8415.8415,0,0,0-.5742.2021A.693.693,0,0,0,62.9805,44.5371Z"/><path d="M60.9785,154.7676c-.0889.02-.166.0342-.2314.042a1.6663,1.6663,0,0,1-.1983.0127,1.1569,1.1569,0,0,1,.3448.3906,1.1056,1.1056,0,0,1,.1367.5488.8315.8315,0,0,1-.2051.6.7244.7244,0,0,1-.55.2129.68.68,0,0,1-.5859-.3154,1.4715,1.4715,0,0,1-.2188-.8535v-.583h-.3281a.5617.5617,0,0,0-.4434.1816.7418.7418,0,0,0-.1621.5088.8132.8132,0,0,0,.1543.5068.4609.4609,0,0,0,.376.2012l-.0029.2686-.0137.0048a.6336.6336,0,0,1-.5293-.2695,1.1063,1.1063,0,0,1-.2324-.7246,1.0659,1.0659,0,0,1,.2216-.7031.7842.7842,0,0,1,.6377-.2656h1.2989a2.225,2.225,0,0,0,.27-.0157,1.7083,1.7083,0,0,0,.2607-.0527Zm-.207.96a1.0353,1.0353,0,0,0-.1485-.5566.8656.8656,0,0,0-.3769-.3486h-.5508v.5879a1.0712,1.0712,0,0,0,.17.6357.5.5,0,0,0,.42.2383.457.457,0,0,0,.3515-.1475A.5853.5853,0,0,0,60.7715,155.7275Z"/><path d="M58.3379,153.4941l.4609-.0273a.93.93,0,0,1-.3769-.3428.9516.9516,0,0,1-.1328-.5107.8124.8124,0,0,1,.2617-.6543,1.24,1.24,0,0,1,.8193-.2246h1.6084v.2929H59.3691a.9563.9563,0,0,0-.6425.169.616.616,0,0,0-.1895.4824.7568.7568,0,0,0,.1631.502.9094.9094,0,0,0,.4316.2793h1.8467v.2929H58.3379Z"/><path d="M60.9785,149.2969c-.0889.0195-.166.0342-.2314.042a1.6663,1.6663,0,0,1-.1983.0127,1.1569,1.1569,0,0,1,.3448.3906,1.1056,1.1056,0,0,1,.1367.5488.8317.8317,0,0,1-.2051.6.7244.7244,0,0,1-.55.2129.68.68,0,0,1-.5859-.3154,1.4717,1.4717,0,0,1-.2188-.8535v-.583h-.3281a.5617.5617,0,0,0-.4434.1816.7418.7418,0,0,0-.1621.5088.8132.8132,0,0,0,.1543.5068.4609.4609,0,0,0,.376.2012l-.0029.2686-.0137.0048a.6336.6336,0,0,1-.5293-.27,1.1063,1.1063,0,0,1-.2324-.7246,1.0659,1.0659,0,0,1,.2216-.7031.7843.7843,0,0,1,.6377-.2657h1.2989a2.2252,2.2252,0,0,0,.27-.0156,1.7083,1.7083,0,0,0,.2607-.0527Zm-.207.96a1.0353,1.0353,0,0,0-.1485-.5566.8656.8656,0,0,0-.3769-.3486h-.5508v.5879a1.0712,1.0712,0,0,0,.17.6357.5.5,0,0,0,.42.2383.4573.4573,0,0,0,.3515-.1475A.5853.5853,0,0,0,60.7715,150.2568Z"/><path d="M60.9785,147.9541v.291H57.17v-.291Z"/><path d="M60.2637,146.3965l.3144-.0938v-.0136l-2.24-.7989v-.3271l3.0635,1.1474a1.5168,1.5168,0,0,1,.456.2657.6.6,0,0,1,.1885.4785.79.79,0,0,1-.0107.125.708.708,0,0,1-.0235.1074l-.2441-.0342c.0039-.02.0068-.0508.0117-.0937s.0059-.0752.0059-.0947a.375.375,0,0,0-.1368-.3047,1.1687,1.1687,0,0,0-.3476-.1953l-.3555-.1387-2.6074,1.0195v-.3242Z"/><path d="M60.7305,144.5049v-1.7158h.248v2.0771h-.2168l-2.1758-1.5918v1.543h-.248v-1.9111h.2148Z"/><path d="M61.03,141.3008a1.0609,1.0609,0,0,1-.3662.8242,1.3369,1.3369,0,0,1-.9278.3281h-.1347a1.376,1.376,0,0,1-.9395-.3261,1.01,1.01,0,0,1-.373-.7891.9786.9786,0,0,1,.3066-.7647,1.1763,1.1763,0,0,1,.82-.2783h.25V142.16h.07a1.1682,1.1682,0,0,0,.7451-.2364.7559.7559,0,0,0,.3-.623,1.2732,1.2732,0,0,0-.0762-.4668.9177.9177,0,0,0-.2168-.3291l.2-.124a1.05,1.05,0,0,1,.249.3769A1.4264,1.4264,0,0,1,61.03,141.3008Zm-2.4932.0371a.699.699,0,0,0,.2481.5439,1.0655,1.0655,0,0,0,.6191.2569l.0117-.0059v-1.5469h-.0722a.84.84,0,0,0-.5743.2022A.6935.6935,0,0,0,58.5371,141.3379Z"/><path d="M58.5889,138.501l-.0147.2168a.6659.6659,0,0,0,.1543.4531.8592.8592,0,0,0,.4268.2529h1.8232v.293H58.3379V139.46l.4394-.0362h.0293a.9391.9391,0,0,1-.3808-.3076.7684.7684,0,0,1-.1367-.459.6549.6549,0,0,1,.0078-.1084.7236.7236,0,0,1,.0185-.0869Z"/><circle class="cls-1" cx="43.5635" cy="177.9882" r="7.5"/><path d="M42.3916,178.2079h-3.457v3.3349h-.5811v-7.1093H42.89v.498h-3.955V177.71h3.457Z"/><path d="M48.1875,179.7972a1.1842,1.1842,0,0,0-.4346-.9482,3.9994,3.9994,0,0,0-1.5136-.6509,4.7844,4.7844,0,0,1-1.7676-.7617,1.52,1.52,0,0,1-.6006-1.2646,1.5958,1.5958,0,0,1,.6719-1.3282,2.7621,2.7621,0,0,1,1.7256-.5127,2.5391,2.5391,0,0,1,1.7724.61,1.8745,1.8745,0,0,1,.6543,1.4892l-.0146.0293h-.5371a1.5159,1.5159,0,0,0-.5049-1.1718,1.9622,1.9622,0,0,0-1.37-.459,2.098,2.098,0,0,0-1.335.3808,1.163,1.163,0,0,0-.4815.9473,1.1085,1.1085,0,0,0,.4444.896,4.1519,4.1519,0,0,0,1.5332.6323,4.4513,4.4513,0,0,1,1.7461.791,1.6262,1.6262,0,0,1,.5976,1.3135,1.5875,1.5875,0,0,1-.6953,1.3526,2.9567,2.9567,0,0,1-1.7754.5029,3.2411,3.2411,0,0,1-1.8574-.5347,1.7082,1.7082,0,0,1-.77-1.56l.01-.0293h.5372a1.3567,1.3567,0,0,0,.62,1.2265,2.6341,2.6341,0,0,0,1.46.3994,2.3043,2.3043,0,0,0,1.3653-.3706A1.1493,1.1493,0,0,0,48.1875,179.7972Z"/><path d="M55.5586,189.8691H53.1563v.4366H52.917v-.4366h-.3857a.8766.8766,0,0,1-.6153-.1992.7168.7168,0,0,1-.2178-.5586,1.0458,1.0458,0,0,1,.0127-.1631,1.6052,1.6052,0,0,1,.0342-.1689l.2412.0371a.9643.9643,0,0,0-.0224.1211,1.0356,1.0356,0,0,0-.0088.1445.4507.4507,0,0,0,.1513.3672.6448.6448,0,0,0,.4249.127h.3857v-.6309h.2393v.6309h2.4023Z"/><path d="M55.5586,188.1113v.291H51.75v-.291Z"/><path d="M54.1982,187.4658a1.4215,1.4215,0,0,1-.957-.3193,1.1508,1.1508,0,0,1,0-1.6963,1.417,1.417,0,0,1,.957-.32h.0811a1.4234,1.4234,0,0,1,.958.3183,1.1549,1.1549,0,0,1,0,1.6983,1.4188,1.4188,0,0,1-.958.3193Zm.0791-.2929a1.26,1.26,0,0,0,.7715-.2315.8214.8214,0,0,0,0-1.2881,1.2543,1.2543,0,0,0-.7715-.2324h-.08a1.2455,1.2455,0,0,0-.7657.2344.759.759,0,0,0-.3144.6445.7514.7514,0,0,0,.3144.6416,1.2568,1.2568,0,0,0,.7657.2315Z"/><path d="M54.7012,183.95l.4717-.1v-.0147l-.4717-.124-1.7842-.5625v-.251l1.7842-.5615.4834-.1269v-.0147l-.4834-.11-1.7842-.4805v-.3027l2.6416.77v.248l-1.8066.586-.4571.1152v.0147l.4571.1171,1.8066.5762v.251l-2.6416.7676v-.3028Z"/><path d="M54.8857,177.9375a.4277.4277,0,0,0-.3242.1523,1.2392,1.2392,0,0,0-.2265.5508,1.8472,1.8472,0,0,1-.27.6992.56.56,0,0,1-.4766.2256.6368.6368,0,0,1-.5108-.2549,1.0287,1.0287,0,0,1-.2089-.6748,1.06,1.06,0,0,1,.2207-.708.6626.6626,0,0,1,.5527-.249l.0147.0049v.27a.4879.4879,0,0,0-.378.1846.8763.8763,0,0,0-.0244.9765.415.415,0,0,0,.3223.16.38.38,0,0,0,.3008-.1377,1.33,1.33,0,0,0,.2089-.5508,1.7906,1.7906,0,0,1,.2881-.7051.5959.5959,0,0,1,.4961-.2343.643.643,0,0,1,.5352.2666,1.3435,1.3435,0,0,1-.0254,1.4629.65.65,0,0,1-.5469.26l-.0146-.0049v-.2685a.4811.4811,0,0,0,.413-.2334.9724.9724,0,0,0,.129-.5088.8117.8117,0,0,0-.1387-.501A.4125.4125,0,0,0,54.8857,177.9375Z"/><path d="M55.6094,175.9824a1.0609,1.0609,0,0,1-.3662.8242,1.337,1.337,0,0,1-.9278.3282h-.1338a1.3763,1.3763,0,0,1-.94-.3262,1.01,1.01,0,0,1-.373-.7891.9789.9789,0,0,1,.3076-.7646,1.1759,1.1759,0,0,1,.82-.2783h.249v1.8652h.07a1.167,1.167,0,0,0,.7451-.2363.756.756,0,0,0,.3-.6231,1.2957,1.2957,0,0,0-.0752-.4668.92.92,0,0,0-.2178-.3291l.2-.124a1.0645,1.0645,0,0,1,.25.377A1.4462,1.4462,0,0,1,55.6094,175.9824Zm-2.4922.0371a.6983.6983,0,0,0,.2471.544,1.0682,1.0682,0,0,0,.6191.2568l.0127-.0058v-1.5469h-.0732a.84.84,0,0,0-.5743.2021A.693.693,0,0,0,53.1172,176.02Z"/><path d="M52.917,174.1387l.4609-.0274a.9368.9368,0,0,1-.3769-.3427.9522.9522,0,0,1-.1328-.5108.81.81,0,0,1,.2627-.6543,1.2354,1.2354,0,0,1,.8183-.2246h1.6094v.293h-1.61a.9563.9563,0,0,0-.6425.1689.6154.6154,0,0,0-.1885.4824.7563.7563,0,0,0,.1621.502.9087.9087,0,0,0,.4316.2793h1.8477v.293H52.917Z"/><path d="M54.8857,170.0322a.4274.4274,0,0,0-.3242.1524,1.2382,1.2382,0,0,0-.2265.5508,1.8486,1.8486,0,0,1-.27.6992.56.56,0,0,1-.4766.2256.6371.6371,0,0,1-.5108-.2549,1.0289,1.0289,0,0,1-.2089-.6748,1.0592,1.0592,0,0,1,.2207-.708.6624.6624,0,0,1,.5527-.2491l.0147.0049v.27a.4882.4882,0,0,0-.378.1846.8765.8765,0,0,0-.0244.9766.4152.4152,0,0,0,.3223.16.38.38,0,0,0,.3008-.1377,1.33,1.33,0,0,0,.2089-.5508,1.7894,1.7894,0,0,1,.2881-.705.5957.5957,0,0,1,.4961-.2344.6433.6433,0,0,1,.5352.2666,1.3435,1.3435,0,0,1-.0254,1.4629.65.65,0,0,1-.5469.26l-.0146-.0048v-.2686a.4811.4811,0,0,0,.413-.2334.9722.9722,0,0,0,.129-.5088.8117.8117,0,0,0-.1387-.501A.4127.4127,0,0,0,54.8857,170.0322Z"/><path d="M54.1982,169.2305a1.4216,1.4216,0,0,1-.957-.3194,1.1508,1.1508,0,0,1,0-1.6963,1.4175,1.4175,0,0,1,.957-.32h.0811a1.4234,1.4234,0,0,1,.958.3184,1.1548,1.1548,0,0,1,0,1.6982,1.4189,1.4189,0,0,1-.958.3194Zm.0791-.293a1.26,1.26,0,0,0,.7715-.2314.8214.8214,0,0,0,0-1.2881,1.2543,1.2543,0,0,0-.7715-.2325h-.08a1.2462,1.2462,0,0,0-.7657.2344.7592.7592,0,0,0-.3144.6446.7514.7514,0,0,0,.3144.6416,1.2568,1.2568,0,0,0,.7657.2314Z"/><path d="M53.168,165.0684l-.0147.2168a.6616.6616,0,0,0,.1553.4531.8567.8567,0,0,0,.4258.2529h1.8242v.293H52.917v-.2569l.4394-.0361h.0293a.94.94,0,0,1-.3808-.3076.7686.7686,0,0,1-.1367-.459.6544.6544,0,0,1,.0088-.1084.748.748,0,0,1,.0175-.0869Z"/><path d="M57.126,214.2754a1.4223,1.4223,0,0,1-.9571-.3193,1.1508,1.1508,0,0,1,0-1.6963,1.4173,1.4173,0,0,1,.9571-.32h.081a1.4232,1.4232,0,0,1,.958.3183,1.1549,1.1549,0,0,1,0,1.6983,1.4191,1.4191,0,0,1-.958.3193Zm.0791-.293a1.26,1.26,0,0,0,.7715-.2314.8215.8215,0,0,0,0-1.2881,1.2545,1.2545,0,0,0-.7715-.2324h-.08a1.2456,1.2456,0,0,0-.7656.2343.759.759,0,0,0-.3145.6446.7513.7513,0,0,0,.3145.6416,1.2562,1.2562,0,0,0,.7656.2314Z"/><path d="M56.0957,210.1133l-.0146.2168a.6615.6615,0,0,0,.1552.4531.8553.8553,0,0,0,.4258.2529h1.8242v.293H55.8447v-.2568l.4395-.0362h.0293a.9388.9388,0,0,1-.3809-.3076.7684.7684,0,0,1-.1367-.459.6544.6544,0,0,1,.0088-.1084.7455.7455,0,0,1,.0176-.0869Z"/><path d="M55.0879,209.3008v.291h-.41v-.291Zm3.3984,0v.291H55.8447v-.291Z"/><path d="M58.4863,208.3213H56.084v.4394h-.2393v-.4394h-.3369a.8048.8048,0,0,1-.8818-.877,1.5733,1.5733,0,0,1,.0371-.332,2.0543,2.0543,0,0,1,.1074-.3418l.251.0488a2.0558,2.0558,0,0,0-.0947.2891,1.2894,1.2894,0,0,0-.0342.3164.5984.5984,0,0,0,.1582.4512.6349.6349,0,0,0,.457.1523h.3369v-.6172h.2393v.6172h2.4023Zm0-1.709v.293H55.8447v-.293Z"/><path d="M58.2881,204.8271a.8311.8311,0,0,0-.1651-.5117.5407.5407,0,0,0-.46-.2226v-.2588l.0146-.0049a.7277.7277,0,0,1,.6133.293,1.09,1.09,0,0,1,.2461.705,1.0045,1.0045,0,0,1-.3691.834,1.4832,1.4832,0,0,1-.9512.295h-.1025a1.4708,1.4708,0,0,1-.9473-.2959.9992.9992,0,0,1-.3711-.83,1.0492,1.0492,0,0,1,.2559-.7237.8268.8268,0,0,1,.6738-.2793l.0146.004v.2617a.642.642,0,0,0-.5058.2138.757.757,0,0,0-.19.5235.7033.7033,0,0,0,.3037.6289,1.3438,1.3438,0,0,0,.7647.2041h.1015a1.3634,1.3634,0,0,0,.7715-.2031A.7076.7076,0,0,0,58.2881,204.8271Z"/><path d="M58.5371,202.2246a1.0609,1.0609,0,0,1-.3662.8242,1.3366,1.3366,0,0,1-.9277.3282h-.1338a1.3766,1.3766,0,0,1-.9405-.3262,1.01,1.01,0,0,1-.373-.7891.9789.9789,0,0,1,.3076-.7646,1.1759,1.1759,0,0,1,.82-.2783h.2491v1.8652h.07a1.1672,1.1672,0,0,0,.7451-.2363.756.756,0,0,0,.3-.6231,1.2957,1.2957,0,0,0-.0752-.4668.92.92,0,0,0-.2178-.3291l.2-.124a1.0649,1.0649,0,0,1,.25.3769A1.4467,1.4467,0,0,1,58.5371,202.2246Zm-2.4922.0371a.6987.6987,0,0,0,.2471.544,1.0688,1.0688,0,0,0,.6191.2568l.0127-.0059V201.51h-.0732a.84.84,0,0,0-.5742.2021A.693.693,0,0,0,56.0449,202.2617Z"/><path d="M71.9961,243.9258a1.5263,1.5263,0,0,1,.9463.2676.8789.8789,0,0,1,.3525.74,1.0809,1.0809,0,0,1-.1045.4873.8861.8861,0,0,1-.3008.3408h1.37v.293H70.6025v-.2471l.41-.0361a.9467.9467,0,0,1-.34-.3408.9823.9823,0,0,1-.1192-.4922.8615.8615,0,0,1,.38-.7451,1.7186,1.7186,0,0,1,1.0117-.2676Zm-.0547.293a1.5247,1.5247,0,0,0-.8213.1992.65.65,0,0,0-.3174.5859.7712.7712,0,0,0,.1407.4805.8651.8651,0,0,0,.3652.2773h1.27a.8054.8054,0,0,0,.3428-.29.84.84,0,0,0,.124-.4717.663.663,0,0,0-.2881-.583,1.3221,1.3221,0,0,0-.7646-.1982Z"/><path d="M70.8535,242.0527l-.0146.2168a.6616.6616,0,0,0,.1552.4532.8576.8576,0,0,0,.4258.2529h1.8242v.293H70.6025v-.2569l.4395-.0361h.0293a.94.94,0,0,1-.3809-.3076.7686.7686,0,0,1-.1367-.459.6536.6536,0,0,1,.0088-.1084.7368.7368,0,0,1,.0176-.0869Z"/><path d="M73.2949,240.6221a1.0608,1.0608,0,0,1-.3662.8242,1.337,1.337,0,0,1-.9277.3281h-.1338a1.3763,1.3763,0,0,1-.94-.3262,1.0094,1.0094,0,0,1-.3731-.789.98.98,0,0,1,.3076-.7647,1.1763,1.1763,0,0,1,.82-.2783h.2491v1.8652h.07a1.167,1.167,0,0,0,.7451-.2363.7559.7559,0,0,0,.3-.623,1.2957,1.2957,0,0,0-.0752-.4668.9178.9178,0,0,0-.2178-.3291l.2-.1241a1.0663,1.0663,0,0,1,.25.377A1.4463,1.4463,0,0,1,73.2949,240.6221Zm-2.4922.0371a.6985.6985,0,0,0,.2471.5439,1.0682,1.0682,0,0,0,.6191.2569l.0127-.0059v-1.5469h-.0732a.84.84,0,0,0-.5742.2022A.6928.6928,0,0,0,70.8027,240.6592Z"/><path d="M72.5713,237.4561a.427.427,0,0,0-.3242.1523,1.238,1.238,0,0,0-.2266.5508,1.8486,1.8486,0,0,1-.27.6992.56.56,0,0,1-.4766.2256.6371.6371,0,0,1-.5107-.2549,1.0282,1.0282,0,0,1-.209-.6748,1.06,1.06,0,0,1,.2207-.708.6627.6627,0,0,1,.5527-.249l.0147.0048v.2706a.4881.4881,0,0,0-.3779.1845.876.876,0,0,0-.0244.9766.4151.4151,0,0,0,.3222.16.3805.3805,0,0,0,.3008-.1376,1.3294,1.3294,0,0,0,.209-.5508A1.7863,1.7863,0,0,1,72.06,237.4a.5956.5956,0,0,1,.4961-.2344.6431.6431,0,0,1,.5351.2666,1.3435,1.3435,0,0,1-.0254,1.4629.65.65,0,0,1-.5468.26l-.0147-.0049v-.2686a.4809.4809,0,0,0,.4131-.2334.9728.9728,0,0,0,.1289-.5088.8111.8111,0,0,0-.1387-.5009A.4123.4123,0,0,0,72.5713,237.4561Z"/><path d="M72.5713,234.9092a.4274.4274,0,0,0-.3242.1523,1.238,1.238,0,0,0-.2266.5508,1.8486,1.8486,0,0,1-.27.6992.56.56,0,0,1-.4766.2256.6371.6371,0,0,1-.5107-.2549,1.0282,1.0282,0,0,1-.209-.6748,1.06,1.06,0,0,1,.2207-.708.6627.6627,0,0,1,.5527-.249l.0147.0049v.27a.4879.4879,0,0,0-.3779.1846.8758.8758,0,0,0-.0244.9765.4149.4149,0,0,0,.3222.16.38.38,0,0,0,.3008-.1377,1.3294,1.3294,0,0,0,.209-.5508,1.787,1.787,0,0,1,.2881-.7051.5958.5958,0,0,1,.4961-.2344.6431.6431,0,0,1,.5351.2666,1.3435,1.3435,0,0,1-.0254,1.4629.6492.6492,0,0,1-.5468.26l-.0147-.0049v-.2685a.4813.4813,0,0,0,.4131-.2334.9733.9733,0,0,0,.1289-.5088.8115.8115,0,0,0-.1387-.501A.4123.4123,0,0,0,72.5713,234.9092Z"/><path d="M72.8115,232.2129a.9163.9163,0,0,1,.3584.3418.9961.9961,0,0,1,.125.5078.8025.8025,0,0,1-.2832.6543,1.35,1.35,0,0,1-.8789.2373h-1.53v-.293h1.5381a1.139,1.139,0,0,0,.6953-.165.5593.5593,0,0,0,.21-.4668.8589.8589,0,0,0-.1494-.53.7769.7769,0,0,0-.41-.2763H70.6025v-.293h2.6416v.26Z"/><path d="M70.8535,229.9453l-.0146.2168a.6612.6612,0,0,0,.1552.4531.857.857,0,0,0,.4258.253h1.8242v.2929H70.6025v-.2568l.4395-.0361h.0293a.94.94,0,0,1-.3809-.3077.7683.7683,0,0,1-.1367-.4589.6536.6536,0,0,1,.0088-.1084.7368.7368,0,0,1,.0176-.0869Z"/><path d="M73.2949,228.5156a1.0605,1.0605,0,0,1-.3662.8242,1.3366,1.3366,0,0,1-.9277.3282h-.1338a1.3763,1.3763,0,0,1-.94-.3262,1.01,1.01,0,0,1-.3731-.7891.9792.9792,0,0,1,.3076-.7646,1.1759,1.1759,0,0,1,.82-.2783h.2491v1.8652h.07a1.167,1.167,0,0,0,.7451-.2363.7559.7559,0,0,0,.3-.6231,1.2957,1.2957,0,0,0-.0752-.4668.9187.9187,0,0,0-.2178-.3291l.2-.124a1.0645,1.0645,0,0,1,.25.377A1.4462,1.4462,0,0,1,73.2949,228.5156Zm-2.4922.0371a.6986.6986,0,0,0,.2471.544,1.0682,1.0682,0,0,0,.6191.2568l.0127-.0058v-1.5469h-.0732a.84.84,0,0,0-.5742.2021A.693.693,0,0,0,70.8027,228.5527Z"/><path d="M72.5713,224.1328a.4271.4271,0,0,0-.3242.1524,1.2369,1.2369,0,0,0-.2266.5507,1.8485,1.8485,0,0,1-.27.6993.56.56,0,0,1-.4766.2255.637.637,0,0,1-.5107-.2548,1.0286,1.0286,0,0,1-.209-.6748,1.06,1.06,0,0,1,.2207-.7081.6627.6627,0,0,1,.5527-.249l.0147.0049v.2705a.4879.4879,0,0,0-.3779.1846.8758.8758,0,0,0-.0244.9765.4149.4149,0,0,0,.3222.16.38.38,0,0,0,.3008-.1377,1.3294,1.3294,0,0,0,.209-.5508,1.7876,1.7876,0,0,1,.2881-.7051.5958.5958,0,0,1,.4961-.2343.6428.6428,0,0,1,.5351.2666,1.3435,1.3435,0,0,1-.0254,1.4629.6494.6494,0,0,1-.5468.26l-.0147-.0049v-.2685a.4811.4811,0,0,0,.4131-.2334.9733.9733,0,0,0,.1289-.5088.8117.8117,0,0,0-.1387-.501A.4123.4123,0,0,0,72.5713,224.1328Z"/><path d="M73.2949,222.1777a1.0609,1.0609,0,0,1-.3662.8243,1.337,1.337,0,0,1-.9277.3281h-.1338a1.3763,1.3763,0,0,1-.94-.3262,1.01,1.01,0,0,1-.3731-.7891.9792.9792,0,0,1,.3076-.7646,1.1759,1.1759,0,0,1,.82-.2783h.2491v1.8652h.07a1.167,1.167,0,0,0,.7451-.2363.7559.7559,0,0,0,.3-.6231,1.2957,1.2957,0,0,0-.0752-.4668.92.92,0,0,0-.2178-.3291l.2-.124a1.0645,1.0645,0,0,1,.25.377A1.4462,1.4462,0,0,1,73.2949,222.1777Zm-2.4922.0371a.6986.6986,0,0,0,.2471.544,1.0682,1.0682,0,0,0,.6191.2568l.0127-.0058v-1.5469h-.0732a.84.84,0,0,0-.5742.2021A.693.693,0,0,0,70.8027,222.2148Z"/><path d="M70.6025,220.334l.461-.0274a.937.937,0,0,1-.377-.3427.9531.9531,0,0,1-.1328-.5108.81.81,0,0,1,.2627-.6543,1.2357,1.2357,0,0,1,.8184-.2246h1.6093v.293h-1.61a.9572.9572,0,0,0-.6426.1689.6155.6155,0,0,0-.1885.4825.7562.7562,0,0,0,.1621.5019.909.909,0,0,0,.4317.2793h1.8476v.293H70.6025Z"/><path d="M72.5713,216.2275a.4271.4271,0,0,0-.3242.1524,1.2369,1.2369,0,0,0-.2266.5508,1.8486,1.8486,0,0,1-.27.6992.56.56,0,0,1-.4766.2256.6371.6371,0,0,1-.5107-.2549,1.0282,1.0282,0,0,1-.209-.6748,1.06,1.06,0,0,1,.2207-.708.6622.6622,0,0,1,.5527-.249l.0147.0048v.27a.4882.4882,0,0,0-.3779.1846.876.876,0,0,0-.0244.9766.4151.4151,0,0,0,.3222.16.38.38,0,0,0,.3008-.1377,1.33,1.33,0,0,0,.209-.5507,1.7863,1.7863,0,0,1,.2881-.7051.5956.5956,0,0,1,.4961-.2344.6431.6431,0,0,1,.5351.2666,1.3435,1.3435,0,0,1-.0254,1.4629.65.65,0,0,1-.5468.26l-.0147-.0049v-.2686a.4809.4809,0,0,0,.4131-.2334.9731.9731,0,0,0,.1289-.5088.8111.8111,0,0,0-.1387-.5009A.4124.4124,0,0,0,72.5713,216.2275Z"/><path d="M71.8838,215.4258a1.4214,1.4214,0,0,1-.957-.3194,1.15,1.15,0,0,1,0-1.6962,1.4169,1.4169,0,0,1,.957-.32h.081a1.4237,1.4237,0,0,1,.9581.3184,1.155,1.155,0,0,1,0,1.6982,1.4191,1.4191,0,0,1-.9581.3194Zm.0791-.293a1.26,1.26,0,0,0,.7715-.2314.8215.8215,0,0,0,0-1.2881,1.2543,1.2543,0,0,0-.7715-.2324h-.08a1.2456,1.2456,0,0,0-.7656.2343.759.759,0,0,0-.3145.6446.7513.7513,0,0,0,.3145.6416,1.2562,1.2562,0,0,0,.7656.2314Z"/><path d="M70.8535,211.2637l-.0146.2168a.6615.6615,0,0,0,.1552.4531.8569.8569,0,0,0,.4258.2529h1.8242v.293H70.6025v-.2568l.4395-.0362h.0293a.94.94,0,0,1-.3809-.3076.7684.7684,0,0,1-.1367-.459.6544.6544,0,0,1,.0088-.1084.7455.7455,0,0,1,.0176-.0869Z"/><path d="M54.3115,251.8047a1.5217,1.5217,0,0,1,.9453.2676.88.88,0,0,1,.3536.74,1.0693,1.0693,0,0,1-.1055.4873.8843.8843,0,0,1-.3.3408h1.3691v.293H52.917v-.2471l.41-.0361a.9375.9375,0,0,1-.3388-.3408.9723.9723,0,0,1-.12-.4922.8639.8639,0,0,1,.38-.7451,1.722,1.722,0,0,1,1.0118-.2676Zm-.0556.293a1.5237,1.5237,0,0,0-.82.1992.651.651,0,0,0-.3183.5859.7718.7718,0,0,0,.1406.4805.872.872,0,0,0,.3652.2773h1.2715a.8079.8079,0,0,0,.3418-.29.84.84,0,0,0,.125-.4717.664.664,0,0,0-.289-.583,1.32,1.32,0,0,0-.7647-.1982Z"/><path d="M55.127,249.416a.92.92,0,0,1,.3574.3418.9868.9868,0,0,1,.126.5078.8055.8055,0,0,1-.2833.6543,1.3537,1.3537,0,0,1-.8789.2373H52.917v-.2929h1.5391a1.1332,1.1332,0,0,0,.6943-.1651.5575.5575,0,0,0,.2109-.4668.8589.8589,0,0,0-.1494-.53.78.78,0,0,0-.4111-.2763H52.917v-.293h2.6416v.26Z"/><path d="M52.917,248.1172l.4375-.0264a.93.93,0,0,1-.3594-.3379.9685.9685,0,0,1-.1269-.5049.8446.8446,0,0,1,.1464-.5058.808.808,0,0,1,.4473-.292,1.0178,1.0178,0,0,1-.4365-.3408.9056.9056,0,0,1-.1572-.5381.7921.7921,0,0,1,.2812-.6514,1.3562,1.3562,0,0,1,.8692-.23h1.54v.2929H54.0107a1.0717,1.0717,0,0,0-.6914.1729.595.595,0,0,0-.2021.48.6614.6614,0,0,0,.2129.5254,1.0145,1.0145,0,0,0,.5459.2285c.0117,0,.0273,0,.0488-.001s.0371-.001.0469-.001h1.5869v.2949H54.0107a1.0659,1.0659,0,0,0-.6865.1748.5948.5948,0,0,0-.207.48.7233.7233,0,0,0,.1582.4922.841.841,0,0,0,.4238.2559h1.8594v.2949H52.917Z"/><path d="M54.3115,241.8066a1.5217,1.5217,0,0,1,.9453.2676.88.88,0,0,1,.3536.74,1.07,1.07,0,0,1-.1055.4873.8851.8851,0,0,1-.3.3408h1.3691v.2929H52.917v-.247l.41-.0362a.936.936,0,0,1-.3388-.3408.9721.9721,0,0,1-.12-.4922.864.864,0,0,1,.38-.7451,1.722,1.722,0,0,1,1.0118-.2676Zm-.0556.293a1.5237,1.5237,0,0,0-.82.1992.651.651,0,0,0-.3183.586.7715.7715,0,0,0,.1406.48.8714.8714,0,0,0,.3652.2774h1.2715a.8082.8082,0,0,0,.3418-.29.84.84,0,0,0,.125-.4716.664.664,0,0,0-.289-.583,1.3193,1.3193,0,0,0-.7647-.1983Z"/><path d="M20.9424,54.5391a.8321.8321,0,0,0-.1655-.5118.54.54,0,0,0-.46-.2226v-.2588l.0146-.0049a.7264.7264,0,0,1,.6128.293,1.0878,1.0878,0,0,1,.2466.7051,1.0046,1.0046,0,0,1-.37.8339,1.4823,1.4823,0,0,1-.9512.295h-.1025a1.4727,1.4727,0,0,1-.9473-.2959,1.0006,1.0006,0,0,1-.3711-.83,1.0493,1.0493,0,0,1,.2564-.7236.8262.8262,0,0,1,.6738-.2793l.0146.0039v.2617a.6421.6421,0,0,0-.5063.2139.7591.7591,0,0,0-.19.5234.7043.7043,0,0,0,.3037.6289,1.3438,1.3438,0,0,0,.7647.2041h.102a1.3605,1.3605,0,0,0,.771-.2031A.7067.7067,0,0,0,20.9424,54.5391Z"/><path d="M21.14,51.2559c-.0893.02-.167.0341-.2319.042a1.6566,1.6566,0,0,1-.1978.0126,1.1666,1.1666,0,0,1,.3443.3907,1.1,1.1,0,0,1,.1367.5488.8319.8319,0,0,1-.2051.6.7248.7248,0,0,1-.5493.2129.68.68,0,0,1-.5859-.3154,1.4717,1.4717,0,0,1-.22-.8535v-.5831h-.3271a.563.563,0,0,0-.4443.1817.741.741,0,0,0-.1612.5088.8131.8131,0,0,0,.1538.5068.4605.4605,0,0,0,.376.2012l-.0024.2685-.0147.0049a.6316.6316,0,0,1-.5283-.27,1.1042,1.1042,0,0,1-.2334-.7246,1.0629,1.0629,0,0,1,.2222-.7031.7843.7843,0,0,1,.6372-.2657h1.2988a2.242,2.242,0,0,0,.271-.0156,1.7268,1.7268,0,0,0,.2612-.0527Zm-.2075.96a1.0448,1.0448,0,0,0-.1479-.5566.8714.8714,0,0,0-.377-.3487H19.856v.5879a1.0706,1.0706,0,0,0,.17.6358.5013.5013,0,0,0,.4209.2383.4548.4548,0,0,0,.3506-.1475A.5861.5861,0,0,0,20.9326,52.2158Z"/><path d="M21.14,49.9131v.291H17.3315v-.291Z"/><path d="M17.7417,48.7773v.2911h-.41v-.2911Zm3.3984,0v.2911H18.4985v-.2911Z"/><path d="M19.8926,45.8408a1.5246,1.5246,0,0,1,.9458.2686.8783.8783,0,0,1,.353.74,1.02,1.02,0,0,1-.1157.5.9055.9055,0,0,1-.3335.34l.3979.0312v.252H17.3315V47.68h1.5821a.952.952,0,0,1-.3428-.3379.938.938,0,0,1-.1211-.4883.8611.8611,0,0,1,.38-.7441,1.72,1.72,0,0,1,1.0117-.2686Zm-.0513.2959a1.5518,1.5518,0,0,0-.8252.1953.6357.6357,0,0,0-.3174.5782.7585.7585,0,0,0,.1519.4921.9153.9153,0,0,0,.39.2774H20.44a.8391.8391,0,0,0,.3663-.292.82.82,0,0,0,.1362-.4824.65.65,0,0,0-.2847-.5762,1.3393,1.3393,0,0,0-.7646-.1924Z"/><path d="M18.75,43.9707l-.0146.2168a.6633.6633,0,0,0,.1547.4531.8581.8581,0,0,0,.4263.253H21.14v.2929H18.4985V44.93l.4395-.0361h.0293a.9465.9465,0,0,1-.3809-.3077.7717.7717,0,0,1-.1367-.4589.6527.6527,0,0,1,.0088-.1084.731.731,0,0,1,.0181-.087Z"/><path d="M21.14,41.8125c-.0893.02-.167.0342-.2319.042a1.6565,1.6565,0,0,1-.1978.0127,1.1652,1.1652,0,0,1,.3443.3906,1.1,1.1,0,0,1,.1367.5488.832.832,0,0,1-.2051.6.7251.7251,0,0,1-.5493.2128.68.68,0,0,1-.5859-.3154,1.4715,1.4715,0,0,1-.22-.8535v-.583h-.3271a.5629.5629,0,0,0-.4443.1816.741.741,0,0,0-.1612.5088.8134.8134,0,0,0,.1538.5069.4607.4607,0,0,0,.376.2011l-.0024.2686-.0147.0049a.6318.6318,0,0,1-.5283-.27,1.1041,1.1041,0,0,1-.2334-.7246,1.0629,1.0629,0,0,1,.2222-.7031.7843.7843,0,0,1,.6372-.2656h1.2988a2.2215,2.2215,0,0,0,.271-.0157,1.7268,1.7268,0,0,0,.2612-.0527Zm-.2075.96a1.0451,1.0451,0,0,0-.1479-.5567.8718.8718,0,0,0-.377-.3486H19.856v.5879a1.0705,1.0705,0,0,0,.17.6357.5013.5013,0,0,0,.4209.2383.4545.4545,0,0,0,.3506-.1475A.5859.5859,0,0,0,20.9326,42.7725Z"/><path d="M17.8223,40.3379h.6762v-.5811h.2393v.5811H20.459a.566.566,0,0,0,.3677-.0938.3156.3156,0,0,0,.1084-.2509q0-.07-.0059-.1377c-.0044-.045-.0112-.0967-.021-.1553l.2173-.043a.7472.7472,0,0,1,.0488.1778,1.3264,1.3264,0,0,1,.0171.21.5481.5481,0,0,1-.1758.4336.8275.8275,0,0,1-.5566.1553H18.7378v.456h-.2393v-.456h-.6762Z"/><path d="M17.7417,38.81v.291h-.41V38.81Zm3.3984,0v.291H18.4985V38.81Z"/><path d="M19.78,38.1641a1.4209,1.4209,0,0,1-.9571-.3194,1.15,1.15,0,0,1,0-1.6963,1.4169,1.4169,0,0,1,.9571-.32h.0805a1.4232,1.4232,0,0,1,.958.3184,1.1538,1.1538,0,0,1,0,1.6982,1.4187,1.4187,0,0,1-.958.3194Zm.0791-.293a1.2589,1.2589,0,0,0,.771-.2315.8206.8206,0,0,0,0-1.288,1.253,1.253,0,0,0-.771-.2325h-.08a1.2472,1.2472,0,0,0-.7661.2344.76.76,0,0,0-.3145.6445.7522.7522,0,0,0,.3145.6416,1.2578,1.2578,0,0,0,.7661.2315Z"/><path d="M18.4985,34.959l.4615-.0274a.9352.9352,0,0,1-.3775-.3427.9567.9567,0,0,1-.1328-.5108.8114.8114,0,0,1,.2627-.6543,1.2372,1.2372,0,0,1,.8189-.2246H21.14v.293H19.53a.9587.9587,0,0,0-.6431.1689.6172.6172,0,0,0-.1885.4825.7564.7564,0,0,0,.1626.5019.9065.9065,0,0,0,.4317.2793H21.14v.293H18.4985Z"/><path d="M19.8413,31.334a1.7139,1.7139,0,0,1-1.0117-.27.8678.8678,0,0,1-.38-.75.9272.9272,0,0,1,.1231-.4864.9927.9927,0,0,1,.3481-.34l-.4224-.0332V29.208H21.106a1.1164,1.1164,0,0,1,.8056.2822,1.033,1.033,0,0,1,.2954.7852,1.9192,1.9192,0,0,1-.0464.4043,1.5846,1.5846,0,0,1-.1269.3769l-.2466-.0761a1.5027,1.5027,0,0,0,.1187-.33,1.66,1.66,0,0,0,.04-.3711.7366.7366,0,0,0-.2222-.582.9005.9005,0,0,0-.6176-.1963h-.3321a.9264.9264,0,0,1,.3086.3388,1.0055,1.0055,0,0,1,.1089.4786.8851.8851,0,0,1-.354.7461,1.5207,1.5207,0,0,1-.9448.27Zm.0518-.293a1.3256,1.3256,0,0,0,.7636-.1953.6559.6559,0,0,0,.2857-.58.8087.8087,0,0,0-.1309-.4726.8448.8448,0,0,0-.36-.292H19.2261a.9282.9282,0,0,0-.3794.2793.7433.7433,0,0,0-.148.4795.6443.6443,0,0,0,.3189.584,1.5428,1.5428,0,0,0,.8237.1972Z"/><path d="M21.14,26.7607c-.0893.02-.167.0342-.2319.042a1.6565,1.6565,0,0,1-.1978.0127,1.1666,1.1666,0,0,1,.3443.3907,1.1,1.1,0,0,1,.1367.5488.8319.8319,0,0,1-.2051.6.7248.7248,0,0,1-.5493.2129.68.68,0,0,1-.5859-.3154,1.472,1.472,0,0,1-.22-.8536v-.583h-.3271a.563.563,0,0,0-.4443.1817.741.741,0,0,0-.1612.5088.8131.8131,0,0,0,.1538.5068.4605.4605,0,0,0,.376.2012l-.0024.2685-.0147.0049a.6316.6316,0,0,1-.5283-.27,1.1044,1.1044,0,0,1-.2334-.7246,1.0632,1.0632,0,0,1,.2222-.7032.7846.7846,0,0,1,.6372-.2656h1.2988a2.242,2.242,0,0,0,.271-.0156,1.7392,1.7392,0,0,0,.2612-.0527Zm-.2075.96a1.0445,1.0445,0,0,0-.1479-.5566.8714.8714,0,0,0-.377-.3487H19.856v.5879a1.0709,1.0709,0,0,0,.17.6358.5014.5014,0,0,0,.4209.2382.4547.4547,0,0,0,.3506-.1474A.5861.5861,0,0,0,20.9326,27.7207Z"/><path d="M20.4673,24.1631a.4256.4256,0,0,0-.3237.1523,1.238,1.238,0,0,0-.2266.5508,1.848,1.848,0,0,1-.271.6992.5593.5593,0,0,1-.4761.2256.637.637,0,0,1-.5112-.2549,1.0282,1.0282,0,0,1-.209-.6748,1.062,1.062,0,0,1,.2207-.708.6631.6631,0,0,1,.5532-.249l.0147.0049V24.18a.4881.4881,0,0,0-.3784.1846.7293.7293,0,0,0-.1612.497.7212.7212,0,0,0,.1372.48.4142.4142,0,0,0,.3218.16.3806.3806,0,0,0,.3013-.1377,1.3437,1.3437,0,0,0,.209-.5508,1.7948,1.7948,0,0,1,.2876-.7051.5958.5958,0,0,1,.4961-.2344.6424.6424,0,0,1,.5351.2666,1.3422,1.3422,0,0,1-.0249,1.4629.65.65,0,0,1-.5469.26L20.4,25.8574v-.2685a.4816.4816,0,0,0,.4131-.2334.9733.9733,0,0,0,.1289-.5088.8149.8149,0,0,0-.1387-.501A.4133.4133,0,0,0,20.4673,24.1631Z"/><path d="M17.7417,21.6563v.291h-.41v-.291Zm3.3984,0v.291H18.4985v-.291Z"/><path d="M18.4985,20.59l.4615-.0273a.9354.9354,0,0,1-.3775-.3428.956.956,0,0,1-.1328-.5107.8114.8114,0,0,1,.2627-.6543,1.2372,1.2372,0,0,1,.8189-.2246H21.14v.2929H19.53a.9581.9581,0,0,0-.6431.169.6171.6171,0,0,0-.1885.4824.7565.7565,0,0,0,.1626.502.9073.9073,0,0,0,.4317.2793H21.14v.2929H18.4985Z"/><path d="M21.14,17.7383v.291H17.3315v-.291Z"/><path d="M21.1914,15.9385a1.061,1.061,0,0,1-.3662.8242,1.3378,1.3378,0,0,1-.9277.3281h-.1343a1.3761,1.3761,0,0,1-.94-.3262,1.01,1.01,0,0,1-.3735-.789.9792.9792,0,0,1,.3076-.7647,1.1763,1.1763,0,0,1,.82-.2783h.2491v1.8653h.0708a1.1676,1.1676,0,0,0,.7451-.2364.7572.7572,0,0,0,.3-.623,1.2843,1.2843,0,0,0-.0757-.4668.9175.9175,0,0,0-.2173-.3291l.2-.124a1.0573,1.0573,0,0,1,.25.3769A1.4463,1.4463,0,0,1,21.1914,15.9385Zm-2.4927.0371a.7.7,0,0,0,.2471.5439,1.0684,1.0684,0,0,0,.62.2569l.0122-.0059V15.2236h-.0732a.8407.8407,0,0,0-.5742.2022A.6928.6928,0,0,0,18.6987,15.9756Z"/><path d="M17.8223,13.8955h.6762v-.581h.2393v.581H20.459a.5661.5661,0,0,0,.3677-.0937.3158.3158,0,0,0,.1084-.251q0-.07-.0059-.1377c-.0044-.0449-.0112-.0967-.021-.1553l.2173-.043a.7485.7485,0,0,1,.0488.1778,1.3264,1.3264,0,0,1,.0171.21.5481.5481,0,0,1-.1758.4336.8275.8275,0,0,1-.5566.1553H18.7378v.4561h-.2393v-.4561h-.6762Z"/><path d="M30.3032,47.1865a.4257.4257,0,0,0-.3237.1524,1.2369,1.2369,0,0,0-.2266.5507,1.8462,1.8462,0,0,1-.271.6993.5593.5593,0,0,1-.476.2256.6373.6373,0,0,1-.5113-.2549,1.0291,1.0291,0,0,1-.209-.6748,1.0624,1.0624,0,0,1,.2207-.708.6631.6631,0,0,1,.5533-.2491l.0146.0049v.27a.4881.4881,0,0,0-.3784.1846.73.73,0,0,0-.1611.4971.7214.7214,0,0,0,.1372.48.4142.4142,0,0,0,.3218.16.3805.3805,0,0,0,.3012-.1377,1.3437,1.3437,0,0,0,.209-.5508,1.7942,1.7942,0,0,1,.2876-.705.5957.5957,0,0,1,.4961-.2344.6428.6428,0,0,1,.5352.2666,1.3427,1.3427,0,0,1-.0249,1.4629.6509.6509,0,0,1-.5469.26l-.0147-.0048v-.2686a.4811.4811,0,0,0,.4131-.2334.9721.9721,0,0,0,.1289-.5088.8149.8149,0,0,0-.1387-.501A.413.413,0,0,0,30.3032,47.1865Z"/><path d="M30.9761,44.5488c-.0894.02-.167.0342-.232.042a1.6549,1.6549,0,0,1-.1977.0127,1.1669,1.1669,0,0,1,.3442.3906,1.1007,1.1007,0,0,1,.1367.5489.8318.8318,0,0,1-.205.6.7251.7251,0,0,1-.5494.2129.68.68,0,0,1-.5859-.3155,1.4715,1.4715,0,0,1-.22-.8535v-.583H29.14a.5631.5631,0,0,0-.4443.1817.7414.7414,0,0,0-.1611.5087.8126.8126,0,0,0,.1538.5069.46.46,0,0,0,.376.2012l-.0025.2685-.0146.0049a.6318.6318,0,0,1-.5284-.27,1.105,1.105,0,0,1-.2334-.7246,1.0638,1.0638,0,0,1,.2222-.7032.7848.7848,0,0,1,.6372-.2656h1.2988a2.2408,2.2408,0,0,0,.271-.0156,1.7309,1.7309,0,0,0,.2613-.0528Zm-.2075.96a1.0452,1.0452,0,0,0-.148-.5567.871.871,0,0,0-.3769-.3486h-.5518v.5879a1.0705,1.0705,0,0,0,.17.6357.5013.5013,0,0,0,.4209.2383.4544.4544,0,0,0,.3506-.1474A.5863.5863,0,0,0,30.7686,45.5088Z"/><path d="M28.3345,43.2871l.437-.0264a.9287.9287,0,0,1-.3589-.3378.9643.9643,0,0,1-.127-.5049.845.845,0,0,1,.1465-.5059.8072.8072,0,0,1,.4468-.292,1.015,1.015,0,0,1-.436-.3408.9057.9057,0,0,1-.1573-.5381.7934.7934,0,0,1,.2808-.6514,1.3579,1.3579,0,0,1,.8691-.23h1.5406v.2929H29.4277a1.0723,1.0723,0,0,0-.6914.1729.5963.5963,0,0,0-.2016.4795.66.66,0,0,0,.2129.5254,1.0129,1.0129,0,0,0,.5454.2285c.0117,0,.0278,0,.0488-.001s.0371-.001.0469-.001h1.5874v.295H29.4277a1.0677,1.0677,0,0,0-.6865.1748.5942.5942,0,0,0-.2065.4795.7253.7253,0,0,0,.1577.4921.8425.8425,0,0,0,.4243.2559h1.8594v.2949H28.3345Z"/><path d="M29.7285,36.9766a1.5242,1.5242,0,0,1,.9458.2675.8794.8794,0,0,1,.353.74,1.076,1.076,0,0,1-.1049.4873.8864.8864,0,0,1-.3.3408h1.37v.293H28.3345v-.2471l.41-.0361a.9416.9416,0,0,1-.3393-.3409.9769.9769,0,0,1-.12-.4921.863.863,0,0,1,.38-.7452,1.7208,1.7208,0,0,1,1.0117-.2675Zm-.0552.2929a1.5234,1.5234,0,0,0-.8208.1993.65.65,0,0,0-.3178.5859.7712.7712,0,0,0,.1406.4805.8682.8682,0,0,0,.3652.2773h1.271a.8077.8077,0,0,0,.3423-.29.84.84,0,0,0,.1245-.4717.6634.6634,0,0,0-.2886-.583,1.3205,1.3205,0,0,0-.7646-.1983Z"/><path d="M30.9761,35.9922v.291H27.1675v-.291Z"/><path d="M31.0273,34.1934a1.0608,1.0608,0,0,1-.3662.8242,1.3378,1.3378,0,0,1-.9277.3281h-.1343a1.3759,1.3759,0,0,1-.94-.3262,1.01,1.01,0,0,1-.3736-.789.9793.9793,0,0,1,.3077-.7647,1.1762,1.1762,0,0,1,.82-.2783h.249v1.8652h.0708a1.168,1.168,0,0,0,.7451-.2363.7572.7572,0,0,0,.3-.623,1.2839,1.2839,0,0,0-.0757-.4668.9177.9177,0,0,0-.2172-.3291l.2-.1241a1.0593,1.0593,0,0,1,.25.377A1.446,1.446,0,0,1,31.0273,34.1934Zm-2.4926.0371a.7.7,0,0,0,.247.5439,1.0686,1.0686,0,0,0,.62.2569l.0122-.0059V33.4785H29.34a.8407.8407,0,0,0-.5742.2022A.6927.6927,0,0,0,28.5347,34.2305Z"/><path d="M29.6772,31.5078a1.7136,1.7136,0,0,1-1.0117-.27.8678.8678,0,0,1-.38-.75.9277.9277,0,0,1,.1231-.4863.993.993,0,0,1,.3481-.34l-.4223-.0332v-.2471h2.6074a1.1163,1.1163,0,0,1,.8057.2823,1.0331,1.0331,0,0,1,.2954.7851,1.9251,1.9251,0,0,1-.0464.4043,1.59,1.59,0,0,1-.127.377l-.2466-.0762a1.4975,1.4975,0,0,0,.1187-.33,1.6545,1.6545,0,0,0,.04-.3711.737.737,0,0,0-.2221-.582.9008.9008,0,0,0-.6177-.1963H30.61a.9276.9276,0,0,1,.3086.3389,1.006,1.006,0,0,1,.1088.4785.8849.8849,0,0,1-.354.7461,1.52,1.52,0,0,1-.9448.27Zm.0518-.293a1.3259,1.3259,0,0,0,.7637-.1953.656.656,0,0,0,.2856-.58.809.809,0,0,0-.1308-.4727.8464.8464,0,0,0-.36-.292H29.062a.93.93,0,0,0-.3794.2793.7438.7438,0,0,0-.1479.4795.6442.6442,0,0,0,.3188.584,1.5428,1.5428,0,0,0,.8237.1972Z"/><path d="M30.9761,26.9346c-.0894.02-.167.0342-.232.042a1.6549,1.6549,0,0,1-.1977.0127,1.165,1.165,0,0,1,.3442.3906,1.1,1.1,0,0,1,.1367.5488.8318.8318,0,0,1-.205.6.7251.7251,0,0,1-.5494.2129.68.68,0,0,1-.5859-.3154,1.4717,1.4717,0,0,1-.22-.8535v-.583H29.14a.563.563,0,0,0-.4443.1816.7415.7415,0,0,0-.1611.5088.8123.8123,0,0,0,.1538.5068.46.46,0,0,0,.376.2012l-.0025.2686-.0146.0048a.6316.6316,0,0,1-.5284-.27,1.1048,1.1048,0,0,1-.2334-.7246,1.0635,1.0635,0,0,1,.2222-.7031.7846.7846,0,0,1,.6372-.2657h1.2988a2.2206,2.2206,0,0,0,.271-.0156,1.7306,1.7306,0,0,0,.2613-.0527Zm-.2075.96a1.0448,1.0448,0,0,0-.148-.5566.87.87,0,0,0-.3769-.3486h-.5518v.5878a1.0706,1.0706,0,0,0,.17.6358.5013.5013,0,0,0,.4209.2383.4545.4545,0,0,0,.3506-.1475A.586.586,0,0,0,30.7686,27.8945Z"/><path d="M30.3032,24.3369a.4257.4257,0,0,0-.3237.1524,1.2369,1.2369,0,0,0-.2266.5507,1.8462,1.8462,0,0,1-.271.6993.5594.5594,0,0,1-.476.2255.6372.6372,0,0,1-.5113-.2548,1.0291,1.0291,0,0,1-.209-.6748,1.0628,1.0628,0,0,1,.2207-.7081.6633.6633,0,0,1,.5533-.249l.0146.0049v.2705a.4881.4881,0,0,0-.3784.1846.73.73,0,0,0-.1611.4971.7211.7211,0,0,0,.1372.4794.414.414,0,0,0,.3218.16.3805.3805,0,0,0,.3012-.1377,1.3437,1.3437,0,0,0,.209-.5508,1.7942,1.7942,0,0,1,.2876-.705.5957.5957,0,0,1,.4961-.2344.6425.6425,0,0,1,.5352.2666,1.3427,1.3427,0,0,1-.0249,1.4629.6509.6509,0,0,1-.5469.26l-.0147-.0048v-.2686a.4811.4811,0,0,0,.4131-.2334.9724.9724,0,0,0,.1289-.5088.8149.8149,0,0,0-.1387-.501A.413.413,0,0,0,30.3032,24.3369Z"/><path d="M27.5776,21.83v.291h-.41V21.83Zm3.3985,0v.291H28.3345V21.83Z"/><path d="M28.3345,20.7637l.4614-.0274a.9349.9349,0,0,1-.3774-.3427.9567.9567,0,0,1-.1329-.5108.8114.8114,0,0,1,.2627-.6543,1.2372,1.2372,0,0,1,.8189-.2246h1.6089v.293h-1.61a.9582.9582,0,0,0-.6431.1689.6174.6174,0,0,0-.1884.4824.7565.7565,0,0,0,.1626.502.9062.9062,0,0,0,.4316.2793h1.8472v.293H28.3345Z"/><path d="M30.9761,17.9121v.291H27.1675v-.291Z"/><path d="M31.0273,16.1123a1.0605,1.0605,0,0,1-.3662.8242,1.3374,1.3374,0,0,1-.9277.3281h-.1343a1.3758,1.3758,0,0,1-.94-.3261,1.01,1.01,0,0,1-.3736-.7891.9789.9789,0,0,1,.3077-.7646,1.1757,1.1757,0,0,1,.82-.2784h.249v1.8653h.0708a1.168,1.168,0,0,0,.7451-.2363.7575.7575,0,0,0,.3-.6231,1.2843,1.2843,0,0,0-.0757-.4668.9186.9186,0,0,0-.2172-.3291l.2-.124a1.0589,1.0589,0,0,1,.25.3769A1.4464,1.4464,0,0,1,31.0273,16.1123Zm-2.4926.0371a.7.7,0,0,0,.247.544,1.0692,1.0692,0,0,0,.62.2568l.0122-.0059V15.3975H29.34a.8406.8406,0,0,0-.5742.2021A.693.693,0,0,0,28.5347,16.1494Z"/><path d="M27.6582,14.0693h.6763v-.581h.2392v.581h1.7212a.5659.5659,0,0,0,.3677-.0937.3155.3155,0,0,0,.1084-.251q0-.07-.0059-.1377c-.0044-.0449-.0112-.0967-.021-.1553l.2173-.0429a.7508.7508,0,0,1,.0489.1777,1.3275,1.3275,0,0,1,.017.21.5484.5484,0,0,1-.1757.4336.8278.8278,0,0,1-.5567.1552H28.5737v.4561h-.2392v-.4561h-.6763Z"/><path d="M38.7617,272.9746a1.0609,1.0609,0,0,1-.3662.8242,1.3374,1.3374,0,0,1-.9277.3282h-.1343a1.3759,1.3759,0,0,1-.94-.3262,1.01,1.01,0,0,1-.3736-.7891.9792.9792,0,0,1,.3076-.7646,1.176,1.176,0,0,1,.82-.2783h.2491v1.8652h.0708a1.1682,1.1682,0,0,0,.7451-.2363.7574.7574,0,0,0,.3-.6231,1.2843,1.2843,0,0,0-.0757-.4668.9175.9175,0,0,0-.2173-.3291l.2-.124a1.0573,1.0573,0,0,1,.25.3769A1.4443,1.4443,0,0,1,38.7617,272.9746Zm-2.4927.0371a.7.7,0,0,0,.2471.544,1.0692,1.0692,0,0,0,.62.2568l.0122-.0059V272.26h-.0732a.8406.8406,0,0,0-.5742.2021A.693.693,0,0,0,36.269,273.0117Z"/><path d="M37.1479,270.56l-1.0791-.7158v-.3458l1.2964.8956,1.3452-.9327v.3418l-1.1254.752,1.1254.7519v.3467l-1.3452-.9345-1.2964.8955V271.27Z"/><path d="M36.5205,268.6514a.9444.9444,0,0,1-.5-.8643.8.8,0,0,1,.2588-.6406,1.2063,1.2063,0,0,1,.8032-.2236H38.71v.2929H37.0737a.909.909,0,0,0-.6176.17.6.6,0,0,0-.1871.4678.7887.7887,0,0,0,.1578.501.916.916,0,0,0,.4194.2969H38.71v.2929H34.9019v-.2929Z"/><path d="M38.71,264.4883c-.0893.0195-.1669.0342-.2319.042a1.6549,1.6549,0,0,1-.1977.0127,1.1661,1.1661,0,0,1,.3442.3906,1.1,1.1,0,0,1,.1367.5488.8311.8311,0,0,1-.2051.6.7248.7248,0,0,1-.5493.2129.68.68,0,0,1-.5859-.3154,1.4715,1.4715,0,0,1-.22-.8535v-.583h-.3272a.5629.5629,0,0,0-.4443.1816.7415.7415,0,0,0-.1612.5088.8124.8124,0,0,0,.1539.5068.46.46,0,0,0,.3759.2012l-.0024.2686-.0147.0048a.6315.6315,0,0,1-.5283-.27,1.1046,1.1046,0,0,1-.2334-.7246,1.0629,1.0629,0,0,1,.2222-.7031.7843.7843,0,0,1,.6372-.2656h1.2988a2.2215,2.2215,0,0,0,.271-.0157,1.7268,1.7268,0,0,0,.2612-.0527Zm-.2075.96a1.0448,1.0448,0,0,0-.1479-.5566.8712.8712,0,0,0-.377-.3486h-.5517v.5879a1.0705,1.0705,0,0,0,.17.6357.5013.5013,0,0,0,.4209.2383.4542.4542,0,0,0,.3506-.1475A.5859.5859,0,0,0,38.5029,265.4482Z"/><path d="M38.2783,261.7412a.9183.9183,0,0,1,.3579.3418.9916.9916,0,0,1,.1255.5078.804.804,0,0,1-.2832.6543,1.3518,1.3518,0,0,1-.8789.2373H36.0688V263.19h1.5386a1.1355,1.1355,0,0,0,.6948-.1651.5583.5583,0,0,0,.2105-.4668.8589.8589,0,0,0-.1494-.53.7782.7782,0,0,0-.4107-.2763H36.0688v-.293H38.71v.26Z"/><path d="M38.0376,259.1074a.4257.4257,0,0,0-.3237.1524,1.2369,1.2369,0,0,0-.2266.5507,1.8479,1.8479,0,0,1-.271.6993.5593.5593,0,0,1-.4761.2256.6373.6373,0,0,1-.5112-.2549,1.0291,1.0291,0,0,1-.209-.6748,1.0624,1.0624,0,0,1,.2207-.708.663.663,0,0,1,.5532-.2491l.0147.0049v.2705a.4881.4881,0,0,0-.3784.1846.73.73,0,0,0-.1612.4971.7208.7208,0,0,0,.1373.4795.414.414,0,0,0,.3217.16.3806.3806,0,0,0,.3013-.1377,1.3437,1.3437,0,0,0,.209-.5508,1.7942,1.7942,0,0,1,.2876-.705.5956.5956,0,0,1,.4961-.2344.6424.6424,0,0,1,.5351.2666,1.3422,1.3422,0,0,1-.0249,1.4629.6506.6506,0,0,1-.5468.26l-.0147-.0048v-.2686a.4811.4811,0,0,0,.4131-.2334.9731.9731,0,0,0,.1289-.5088.8149.8149,0,0,0-.1387-.501A.4131.4131,0,0,0,38.0376,259.1074Z"/><path d="M35.3926,257.6846h.6762v-.5811h.2393v.5811h1.7212a.5658.5658,0,0,0,.3677-.0938.3158.3158,0,0,0,.1084-.251q0-.07-.0059-.1377c-.0044-.0449-.0112-.0966-.021-.1552l.2173-.043a.7463.7463,0,0,1,.0488.1777,1.3169,1.3169,0,0,1,.0171.21.5483.5483,0,0,1-.1758.4336.8273.8273,0,0,1-.5566.1553H36.3081v.456h-.2393v-.456h-.6762Z"/></svg>