<svg xmlns="http://www.w3.org/2000/svg" width="10" height="10" viewBox="0 0 10 10"><title>pattern</title><polygon points="0 0 0 0.707 0.707 0 0 0"/><polygon points="2.626 0 0 2.626 0 4.04 4.04 0 2.626 0"/><polygon points="5.96 0 0 5.96 0 7.374 7.374 0 5.96 0"/><polygon points="10 0 9.293 0 0 9.293 0 10 0.707 10 10 0.707 10 0"/><polygon points="4.04 10 10 4.04 10 2.626 2.626 10 4.04 10"/><polygon points="7.374 10 10 7.374 10 5.96 5.96 10 7.374 10"/><polygon points="10 10 10 9.293 9.293 10 10 10"/></svg>