<?xml version="1.0" standalone="no"?>
<!DOCTYPE svg PUBLIC "-//W3C//DTD SVG 1.1//EN" "http://www.w3.org/Graphics/SVG/1.1/DTD/svg11.dtd" >
<svg xmlns="http://www.w3.org/2000/svg">
<metadata>Generated by IcoMoon</metadata>
<defs>
<font id="icomoon" horiz-adv-x="1024">
<font-face units-per-em="1024" ascent="877.5" descent="-146.5" />
<missing-glyph horiz-adv-x="1024" />
<glyph unicode="&#x20;" horiz-adv-x="342.5" d="" />
<glyph unicode="&#xe900;" glyph-name="dwd" d="M955.195 253.904c-2.077-4.827-3.536-10.481-5.054-15.159-18.801-72.343-49.299-135.684-89.752-191.321l1.121 1.618c-15.638-6.217-22.385-18.286-33.434-29.934-6.573-8.766-13.857-16.42-21.94-23.148l-0.219-0.177c-5.734-3.518-13.758-5.014-20.213-8.163-19.131-9.205-37.116-18.41-57.143-27.988-24.449-14.056-52.9-24.62-83.126-30.079l-1.621-0.243c-1.8 0.1-3.906 0.158-6.025 0.158s-4.225-0.057-6.317-0.17l0.291 0.013c-13.458-2.885-38.089-22.704-54.422-20.217-4.092 0.622-7.68 5.508-12.050 5.851-5.241 0.421-10.24-4.345-15.163-5.054-6.89-0.907-14.994 0.622-22.159 0-24.455-1.979-49.32-9.911-72.693-12.050-4.341-0.366-3.525-5.742-6.996-6.996h-24.104c-7.214 11.656-19.929 19.304-34.43 19.304-3.223 0-6.359-0.378-9.364-1.092l0.274 0.055c-9.329 11.074-16.79 10.408-32.263 13.217-7.289 1.331-14.387 4.557-20.992 5.054-1.745 0.081-3.79 0.127-5.846 0.127-9.071 0-17.932-0.894-26.502-2.599l0.86 0.143c-5.833-0.947-11.443-5.764-17.104-5.054-12.292 1.565-11.919 16.556-20.213 26.434-5.161 5.108-11.044 9.503-17.477 13.014l-0.406 0.203c-14.028 11.615-30.216 21.309-47.761 28.336l-1.219 0.431c-15.867 7.253-29.479 16.51-41.275 27.666l0.070-0.066c-19.922 12.456-36.787 27.701-50.622 45.425l-0.322 0.428c-3.957 5.087-10.423 18.871-15.159 24.869-5.12 6.495-18.476 22.839-24.869 29.155-9.987 9.169-18.008 20.306-23.473 32.815l-0.244 0.626c-17.834 19.597-30.509 44.191-35.694 71.439l-0.146 0.921v-130.085c10.171-14.263 21.233-28.621 30.779-42.555 6.367-9.282 11.22-20.22 17.104-27.213 10.211-8.628 21.5-16.95 33.325-24.507l1.272-0.76c11.669-12.725 26.683-22.203 43.652-27.050l0.666-0.163c4.864-0.907 7.336-5.431 12.069-6.996 7.91-2.589 10.58-6.978 17.883-12.050 7.077-22.217 33.28-27.999 47.426-43.154 16.214-6.321 34.985-9.983 54.61-9.983 4.998 0 9.94 0.238 14.817 0.702l-0.622-0.048c11.619-2.849 21.211-9.048 33.042-12.829 5.102-1.616 11.703-1.068 17.104-3.109 4.315-1.595 7.387-6.148 12.050-8.166 8.474-3.694 19.017-4.901 27.213-8.163 4.626-1.829 8.55-6.583 13.217-7.775 3.507-0.681 7.54-1.071 11.663-1.071 6.938 0 13.619 1.104 19.875 3.145l-0.453-0.128c11.174-2.33 24.015-3.665 37.167-3.665 5.116 0 10.185 0.202 15.2 0.598l-0.662-0.042c16.823-1.942 32.819-7.256 47.426-8.166 17.825-1.097 36.912 2.253 56.368 3.112 7.424 0.311 15.495-0.585 22.934 0 23.197 4.161 43.562 9.82 63.118 17.137l-2.475-0.812c44.392 9.871 83.079 22.701 119.944 38.911l-4.101-1.608c8.046 3.983 15.927 10.39 24.101 13.996 10.313 4.517 22.48 5.643 29.546 10.108 7.175 4.539 11.498 13.166 19.046 17.88 7.376 4.615 16.614 6.634 24.104 11.275 8.185 5.149 16.644 12.654 25.267 19.046 8.931 6.63 19.087 11.93 27.209 18.286 20.937 16.333 32.443 46.12 49.371 64.53 6.798 6.011 12.811 12.636 18.043 19.864l0.243 0.352c2.026 3.979 1.883 8.916 3.888 13.992 5.672 14.493 19.749 28.259 24.101 41.209 1.419 4.217 0.852 9.743 2.333 14.38 3.618 8.271 8.741 15.266 15.079 20.93l0.058 0.051v407.786c-6.382 6.239-11.817 13.411-16.093 21.302l-0.233 0.469c-2.544 8.993-7.124 16.717-13.226 22.943l0.009-0.009v10.108c-21.833 27.403-43.776 59.813-68.418 85.91-7.77 9.337-16.739 17.316-26.754 23.821l-0.459 0.28c-9.951 4.78-22.356 3.792-31.488 12.069-0.562 2.518-0.883 5.41-0.883 8.377 0 1.019 0.038 2.028 0.112 3.028l-0.008-0.133c-12.817 1.913-23.445 9.843-29.053 20.773l-0.102 0.219c-17.364-3.869-26.331 11.147-34.597 13.996-5.998 2.125-13.202 0.428-19.050 2.33-5.358 1.792-8.916 7.128-13.992 8.942-4.242 1.58-9.088 0.563-13.217 1.946-2.6 0.834-5.215 3.635-8.163 5.054-3.291 1.463-7.208 1.642-10.108 3.109-5.661 2.885-9.655 8.953-15.938 12.069-10.24 4.988-23.186 3.357-32.267 12.050-10.734-4.875-22.674 2.736-35.372 4.275-19.188 2.489-41.381 3.91-63.905 3.91-2.681 0-5.357-0.020-8.029-0.060l0.404 0.005c-33.412-0.812-67.551-14.069-101.848-13.978-3.946 0-8.196 1.097-12.050 0.775-20.631-4.715-38.831-12.639-55.052-23.322l0.627 0.388c-25.797-12.924-51.452-26.569-76.581-38.484-18.929-8.264-35.221-18.697-49.59-31.273l0.219 0.187c-4.411-3.54-8.353-7.229-11.999-11.195l-0.069-0.076c-2.695-4.070-3.098-9.476-5.051-12.069-4.107-4.229-8.697-7.952-13.69-11.092l-0.306-0.179c-30.209-21.043-53.804-49.645-68.3-83.107l-0.487-1.263c-7.888-17.814-17.869-33.807-24.104-50.538-14.75-37.078-23.546-80.019-24.098-124.945l-0.002-0.228c-0.062-2.56 2.805-2.055 3.888-5.051 1.976-8.398 3.109-18.040 3.109-27.947 0-0.016 0-0.031 0-0.047v0.002c0.611-14.263-4.838-30.263-3.109-43.538 2.739-9.66 5.916-17.915 9.737-25.8l-0.407 0.932c10.251-30.852 20.387-55.926 31.83-80.265l-1.881 4.452c1.829-3.050-3.193-5.961-2.721-10.884 15.188-1.942 15.488-18.626 27.988-23.325 0.596-3.719-2.878-5.987-0.775-8.163 4.341 0.084 10.211 2.487 13.992 0 8.807-39.484 36.378-71.035 72.651-85.233l0.806-0.278c5.46-18.15 21.643-21.464 38.484-28.379 19.959-11.886 43.014-22.187 67.29-29.709l2.294-0.612c3.311 0.202 7.182 0.317 11.079 0.317s7.768-0.115 11.609-0.342l-0.53 0.025c5.698-1.569 7.962-8.777 13.996-10.884 3.652 1.024 7.845 1.613 12.176 1.613 3.117 0 6.163-0.305 9.109-0.887l-0.297 0.049c4.707-5.528 11.672-9.011 19.451-9.011 0.68 0 1.354 0.027 2.021 0.079l-0.088-0.006c14.069 0.87 32.183 12.189 51.313 13.992 13.531 1.306 28.793-5.080 38.484-3.888 11.439 4.523 21.034 9.222 30.208 14.562l-1.054-0.566c11.070 4.429 23.175 7.709 31.086 12.069 8.777 4.802 17.243 12.504 26.434 17.492 10.896 4.761 20.086 9.7 28.831 15.275l-0.839-0.5c5.607 5.91 10.957 12.245 15.929 18.88l0.397 0.554c10.946 11.085 24.4 20.162 34.988 32.267 11.060 11.322 21.052 23.784 29.752 37.163l0.569 0.934c7.296 16.345 13.596 35.576 17.923 55.541l0.362 1.993c3.569 11.641 12.603 20.944 15.938 32.263 1.422 12.063 2.268 26.108 2.333 40.338v0.091c1.031 7.837 5.756 14.822 5.829 20.992-2.013 10.681-4.434 19.819-7.431 28.693l0.435-1.484c-0.8 17.45-2.607 33.768-5.389 49.752l0.335-2.326c-2.026 6.521-8.411 11.429-11.275 18.286-3.031 7.412-5.107 15.998-5.811 24.969l-0.019 0.298c-12.434 6.217-16.091 20.776-22.159 31.086-8.948 15.619-21.137 28.429-35.727 37.838l-0.428 0.258c-9.449 4.107-17.497 8.526-25.084 13.581l0.582-0.364c-4.641 3.88-6.864 11.355-12.069 15.159-4.133 2.962-10.723 2.633-13.996 7-4.191 0.834-5.098-1.339-8.942-0.779-22.823 9.744-49.376 15.409-77.253 15.409-8.393 0-16.666-0.514-24.79-1.511l0.974 0.097c-5.299 0.322-3.068-7.069-7-8.163-11.268 9.962-26.163-3.489-41.205 1.163-19.020-11.796-40.959-22.42-64.011-30.715l-2.462-0.773c-8.971-21.804-29.509-29.129-43.52-46.259-8.046-12.192-14.898-26.215-19.852-41.105l-0.365-1.266c-5.378-13.152-8.5-28.415-8.5-44.407 0-6.693 0.547-13.259 1.598-19.654l-0.095 0.697c1.293-22.665 8.365-43.442 19.751-61.187l-0.303 0.504c4.236-8.445 8.888-15.708 14.198-22.429l-0.206 0.27c10.778-13.361 23.809-24.408 38.596-32.699l0.667-0.344c5.248-1.829 14.223-2.063 22.159-4.275 6.964-2.024 14.963-3.188 23.235-3.188 11.66 0 22.781 2.313 32.927 6.506l-0.573-0.21c11.070 1.078 20.493 7.283 25.961 16.181l0.085 0.149c6.17 6.989 12.489 9.936 13.992 19.825 2.007 6.727 3.162 14.457 3.162 22.456 0 19.572-6.915 37.528-18.434 51.56l0.113-0.142c-11.78 9.143-27.18 8.313-31.086 22.159-10.522 37.179 53.394 51.291 85.522 39.259 18.96-5.697 34.88-16.711 46.505-31.3l0.145-0.188c3.489-5.587 6.874-12.102 9.753-18.884l0.355-0.942c1.964-3.792 5.453-6.623 6.996-10.105 6.576-13.848 10.416-30.090 10.416-47.228 0-2.942-0.113-5.858-0.335-8.744l0.024 0.383c-1.089-2.916-2.159-6.557-2.996-10.287l-0.112-0.597c-0.622-7.314 2.322-8.854 1.167-18.286-0.885-7.237-7.014-12.679-9.329-19.046-3.584-10.064-4.319-19.547-8.166-28.379-11.196-28.2-31.694-50.711-57.631-64.209l-0.678-0.321c-7.201-7.051-22.071-26.119-33.042-29.155-3.632-1.006-8.744 0.622-12.434 0-10.924-2.736-20.247-5.93-29.211-9.799l1.222 0.47c-8.086-3.595-13.166-11.154-20.217-12.050-1.32-0.129-2.853-0.202-4.403-0.202-9.625 0-18.588 2.829-26.106 7.7l0.188-0.114c-6.020-0.648-13.003-1.017-20.073-1.017-43.887 0-84.448 14.236-117.319 38.343l0.556-0.389c-13.316 6.413-24.654 13.142-35.349 20.719l0.752-0.506c-6.345 6.653-12.223 13.889-17.501 21.569l-0.383 0.59c-19.795 20.182-36.965 43.048-50.889 67.974l-0.83 1.618c-7.936 19.017-5.998 40.806-13.992 61.418-2.939 4.732-5.925 10.345-8.556 16.152l-0.386 0.952c-2.136 11.217-3.357 24.12-3.357 37.309 0 3.559 0.089 7.096 0.265 10.611l-0.020-0.494c0.366 35.975 14.603 70.254 18.286 104.96 1.755 1.616 6.374 0.366 7 3.109 7.75 20.341 17.173 37.907 28.505 54.035l-0.517-0.776c11.034 16.132 23.172 32.819 35.376 47.426 17.164 16.668 36.417 31.342 57.287 43.551l1.41 0.762c29.813 21.484 64.717 38.197 102.38 48.102l2.192 0.49c24.792 6.159 41.925 11.491 67.639 17.883 7.489 2.998 16.585 5.805 25.943 7.921l1.269 0.241c6.086-0.967 11.454-2.32 16.628-4.093l-0.69 0.206c23.248-3.657 43.301-6.473 63.751-11.275 17.69-4.176 34.527-9.874 50.538-15.159 26.301-7.036 49.299-16.605 70.633-28.758l-1.455 0.763c6.257-4.107 11.191-11.355 18.286-15.163 5.087-2.772 11.242-2.615 15.159-5.054 11.832-9.198 22.355-18.487 32.274-28.382l-0.007 0.007c11.472-8.963 21.641-18.52 30.881-28.92l0.205-0.235c2.363-3.185 2.6-7.223 5.051-10.108 9.106-10.65 22.535-17.613 30.321-29.155 13.213-0.922 12.16-11.008 16.329-20.213 4.279-9.432 12.186-19.792 17.88-31.086 5.987-11.904 10.050-25 15.163-35.376 2.626-5.424 7.848-8.733 9.329-13.996 1.331-4.875-0.095-11.205 0.779-17.104 1.207-8.777 5.734-17.423 6.217-24.503 0.263-3.533-1.178-7.314-1.163-10.884 0.022-12.976 5.16-25.805 6.217-39.263 1.284-17.057-1.924-37.175-1.163-56.755 1.097-29.345 4.626-56.847 3.109-83.58-0.658-11.030-5.065-13.722-8.163-20.988z" />
<glyph unicode="&#xe901;" glyph-name="mapbox" d="M511.707 864c-282.77 0-512-229.23-512-512s229.23-512 512-512c282.77 0 512 229.23 512 512v0c0 282.77-229.23 512-512 512v0zM754.75 226.447c-175.082-175.082-487.812-119.223-487.812-119.223s-56.441 312.152 119.223 487.812c45.753 43.642 107.853 70.498 176.225 70.498 72.381 0 137.733-30.097 184.223-78.459l0.081-0.084c48.572-46.505 78.761-111.871 78.761-184.288 0-68.417-26.946-130.54-70.803-176.336l0.088 0.092zM570.441 563.931l-50.103-103.095-103.095-50.103 103.095-50.103 50.103-103.095 50.103 103.095 103.095 50.103-103.095 50.103-50.103 103.095z" />
<glyph unicode="&#xe902;" glyph-name="tensorflow" d="M580.206 864l-545.719-315.063v-157.55l136.411-78.775 136.448 78.775v-472.613l136.411-78.775 136.448 78.775v157.513l136.448 78.775v157.55l-136.448 78.775v157.55l272.859-157.55 136.448 78.775v157.55l-409.307 236.288z" />
<glyph unicode="&#xe903;" glyph-name="uba" d="M283.169 469.544c-94.863 8.627-165.881 19.599-264.060 25.377-12.255-40.727-19.333-87.534-19.383-135.986v-0.027c1.067-228.485 153.317-421.123 361.806-483.094l3.583-0.914h0.816c75.308 116.97 91.235 217.754 107.012 350.651 2.388 13.615 3.753 29.292 3.753 45.288 0 46.221-11.399 89.779-31.538 128.018l0.722-1.504c-30.53 49.474-100.835 72.192-162.714 72.192zM855.91 539.849c40.488-5.31 137.644-8.272 137.644-8.272-75.596 195.943-262.405 332.423-481.090 332.423-218.492 0-405.164-136.24-479.698-328.402l-1.198-3.509c3.298-0.041 7.193-0.064 11.094-0.064 43.139 0 85.614 2.843 127.247 8.353l-4.885-0.528c78.676 10.971 180.838 21.749 265.951 32.724 22.965 1.008 44.046 8.281 61.807 20.138l-0.44-0.276c-34.675 10.322-59.581 41.78-59.885 79.102v0.035c-0.005 0.349-0.008 0.76-0.008 1.172 0 45.078 36.543 81.62 81.62 81.62s81.62-36.543 81.62-81.62c0-39.927-28.669-73.158-66.544-80.231l-0.505-0.078c17.322-11.58 38.404-18.854 61.116-19.853l0.255-0.009c85.109-10.971 187.271-21.749 265.896-32.724zM1024.289 358.908c0 0.227 0.001 0.495 0.001 0.763 0 48.088-6.844 94.578-19.611 138.549l0.871-3.504h-5.003c-98.011-5.771-168.993-16.746-264.046-25.326-61.879 0-132.231-22.718-162.56-72.141-19.496-36.709-30.943-80.262-30.943-126.488 0-16.024 1.376-31.727 4.015-46.996l-0.233 1.631c15.726-132.846 31.656-233.732 106.96-350.651l1.788-0.731c213.745 61.807 367.601 255.225 368.764 484.759l0.001 0.134z" />
<glyph unicode="&#xe904;" glyph-name="webpack" d="M945.24 74.789l-415.013-234.789v182.817l258.586 142.285 156.427-90.331zM973.67 100.495v490.909l-151.804-87.735v-315.579l151.804-87.603zM78.768 74.789l415.005-234.789v182.817l-258.721 142.285-156.292-90.313zM50.337 100.495v490.909l151.804-87.735v-315.579zM68.147 623.236l425.626 240.764v-176.699l-274.907-151.259-150.718 87.194zM955.853 623.236l-425.626 240.764v-176.699l274.907-151.109 150.718 87.058zM493.773 64.443l-255.184 140.379v277.899l255.184-147.317zM530.227 64.443l255.184 140.24v278.038l-255.184-147.317zM255.865 514.823l256.135 140.785 256.135-140.8-256.135-147.847z" />
<glyph unicode="&#xe905;" glyph-name="python" d="M505.969 864c-41.272-0.046-81.665-3.669-120.926-10.576l4.19 0.611c-103.38-18.264-122.149-56.492-122.149-126.987v-93.115h244.297v-31.053h-335.978c-0.832 0.016-1.812 0.026-2.795 0.026-74.108 0-135.872-52.85-149.659-122.915l-0.159-0.967c-10.918-37.2-17.199-79.936-17.199-124.14s6.281-86.939 18-127.365l-0.801 3.225c17.364-72.324 58.836-123.856 129.829-123.856h83.997v111.627c1.91 83.335 69.204 150.335 152.476 151.77l0.137 0.002h244.008c67.575 0.524 122.153 55.425 122.153 123.074 0 0.374-0.002 0.748-0.005 1.121v-0.057 232.616c-4.377 66.659-56.043 119.99-121.554 126.936l-0.595 0.051c-36.964 6.354-79.538 9.985-122.96 9.985-1.515 0-3.029-0.004-4.542-0.013l0.233 0.001zM373.855 789.109c0.214 0.004 0.467 0.006 0.72 0.006 25.714 0 46.559-20.845 46.559-46.559s-20.845-46.559-46.559-46.559c-25.664 0-46.479 20.765-46.559 46.411v0.008c-0.001 0.102-0.001 0.222-0.001 0.343 0 25.42 20.461 46.061 45.812 46.351h0.027zM785.854 602.88v-108.482c-0.968-84.357-68.453-152.637-152.403-154.883l-0.209-0.004h-244.008c-67.595-1.385-121.892-56.38-122.148-124.117v-232.645c0-66.194 57.571-105.147 122.149-124.142 36.475-11.819 78.444-18.634 122.004-18.634s85.529 6.814 124.898 19.435l-2.894-0.801c61.502 17.807 122.149 53.643 122.149 124.142v93.136h-244.012v31.035h366.157c71 0 97.456 49.525 122.149 123.856 11.926 37.123 18.8 79.829 18.8 124.14s-6.874 87.017-19.614 127.109l0.814-2.969c-17.554 70.682-51.057 123.856-122.149 123.856zM648.616 13.802c0.214 0.004 0.467 0.006 0.72 0.006 25.714 0 46.559-20.845 46.559-46.559s-20.845-46.559-46.559-46.559c-25.714 0-46.559 20.845-46.559 46.559 0 0.051 0 0.101 0 0.152v-0.008c-0.001 0.090-0.001 0.197-0.001 0.304 0 25.37 20.491 45.954 45.825 46.105h0.014z" />
<glyph unicode="&#xe906;" glyph-name="css" d="M60.507 863.971v-4.941c5.789-49.755 9.249-99.771 14.084-149.632 13.952-165.669 29.725-331.202 44.233-496.845 7.68-89.651 15.481-179.299 24.137-268.899 66.293-17.781 131.979-37.705 198.246-55.567 56.148-16.699 112.848-31.389 168.997-48.088h1.744c59.001 17.189 118.451 32.841 177.426 50.15 64.205 17.093 127.803 36.487 192.037 53.504q16.728 179.299 31.971 358.766c17.254 187.151 33.558 374.352 50.125 561.554q-451.507 0.073-903-0.004zM802.907 592.955c-0.39-10.152-1.583-19.769-3.524-29.111l0.196 1.13c-6.095-4.168-13.070-7.859-20.456-10.729l-0.708-0.242c-37.255-16.516-74.829-32.289-111.952-49.119-38.682-17.306-78.314-32.684-115.994-52.078 10.145-0.731 20.345-0.794 30.544-0.731 70.020 0.289 140.069 0.077 210.085 0.446-7.314-117.029-18.867-233.757-29.275-350.544-82.333-21.453-164.297-44.251-246.813-64.973l-3.196-0.633c-6.101 0.102-11.931 1.11-17.41 2.894l0.419-0.118c-46.87 12.522-94.248 23.117-141.041 35.84-30.544 8.324-61.191 16.143-91.794 24.137-7.882 49.26-14.022 109.188-17.029 169.941l-0.16 4.051c31.045 0.475 62.091 0.183 93.111 0.366 0.935 0.046 2.030 0.072 3.132 0.072 5.678 0 11.194-0.693 16.468-1.999l-0.469 0.098c2.695-30.277 4.809-60.639 7.848-90.891 21.376-6.217 43.597-8.667 65.287-13.396 27.509-4.89 54.777-11.045 82.388-15.141 12.832 5.551 28.474 10.909 44.575 15.132l2.401 0.535c29.594 8.88 59.399 16.991 88.755 26.584 2.534 48.958 6.605 97.84 9.271 146.801-47.909-0.318-95.817 0.976-143.682 0.157-41.033-0.9-82.096-0.080-123.129-0.289-51.2-0.080-102.4-0.9-153.6-1.097-2.721 38.261-8.905 76.387-9.618 114.728 6.162 3.884 13.26 7.382 20.724 10.121l0.791 0.254c84.418 36.912 169.498 72.411 253.546 110.128-96.069 2.882-192.274-0.819-288.344 2.747-4.809 34.615-9.487 69.281-11.257 104.185 103.259 0.106 206.541 0.395 309.8 0.026 99.189-0.527 198.352 0.161 297.516-0.633-1.445-29.619-5.252-59.056-7.391-88.649z" />
<glyph unicode="&#xe907;" glyph-name="github" d="M511.967 864c-282.763-0.044-511.971-229.279-511.971-512.048 0-224.887 144.975-415.913 346.564-484.717l3.604-1.069c25.6-4.696 34.944 11.11 34.944 24.678 0 12.156-0.443 44.354-0.691 87.080-142.42-30.939-172.475 68.634-172.475 68.634-9.803 31.577-29.909 57.536-56.313 74.572l-0.534 0.323c-46.486 31.766 3.518 31.122 3.518 31.122 33.679-4.777 61.929-24.564 78.149-52.254l0.275-0.508c18.913-33.955 54.597-56.545 95.558-56.545 19.641 0 38.068 5.194 53.984 14.283l-0.535-0.281c2.495 26.994 14.455 50.802 32.484 68.427l0.020 0.020c-113.693 12.924-233.216 56.847-233.216 253.049-0.013 0.861-0.021 1.876-0.021 2.894 0 51.992 20.049 99.302 52.839 134.619l-0.114-0.125c-6.68 18.287-10.543 39.4-10.543 61.415 0 26.808 5.728 52.278 16.027 75.252l-0.467-1.166s42.99 13.765 140.8-52.487c38.433 10.942 82.573 17.234 128.183 17.234s89.75-6.291 131.6-18.054l-3.417 0.82c97.748 66.253 140.657 52.487 140.657 52.487 9.871-21.829 15.623-47.329 15.623-74.172 0-21.984-3.858-43.067-10.933-62.609l0.405 1.28c32.62-35.133 52.636-82.363 52.636-134.269 0-1.097-0.009-2.191-0.027-3.284l0.002 0.165c0-196.692-119.709-239.971-233.768-252.65 21.691-22.039 35.084-52.301 35.084-85.69 0-3.211-0.124-6.393-0.367-9.542l0.026 0.418c0-68.447-0.629-123.666-0.629-140.456 0-13.689 9.223-29.623 35.207-24.62 205.024 69.98 349.842 260.927 349.842 485.698 0 282.789-229.226 512.039-512.006 512.077h-0.004z" />
<glyph unicode="&#xe908;" glyph-name="html" d="M60.485 864l82.143-921.966 368.64-102.034 370.103 102.55 82.143 921.45zM784.304 562.575h-432.102l10.456-115.741h411.429l-31.111-346.975-230.974-64.080v-0.636l-231.98 64.731-15.931 177.47h113.499l7.965-90.353 126.197-33.785 125.945 33.785 13.195 146.856h-139.388v0.234h-252.39l-30.866 341.497h566.513z" />
<glyph unicode="&#xe909;" glyph-name="mysql" d="M943.214 77.155c-6.74 0.502-14.6 0.788-22.527 0.788-40.437 0-79.135-7.444-114.799-21.036l2.213 0.741c-10.448-4.176-27.165-4.18-28.559-17.412 5.577-5.573 6.272-14.629 11.147-22.287 9.865-16.509 21.906-30.549 35.946-42.274l0.26-0.211c14.629-11.143 29.257-22.283 44.57-32.037 27.165-16.717 57.808-26.463 84.275-43.18 15.327-9.743 30.64-22.287 45.963-32.735 7.68-5.566 12.533-14.629 22.287-18.103v2.088c-4.875 6.268-6.268 15.32-11.14 22.287-6.949 6.949-13.93 13.235-20.897 20.198-20.62 27.141-44.511 50.372-71.418 69.661l-0.993 0.677c-22.283 15.323-71.040 36.206-80.091 61.989l-1.397 1.39c18.223 2.617 34.442 6.508 50.056 11.722l-1.998-0.578c23.68 6.272 45.268 4.879 69.647 11.143 11.14 2.787 22.287 6.268 33.426 9.75v6.276c-12.529 12.537-21.577 29.257-34.823 41.092-34.107 29.921-71.625 58.137-111.19 83.434l-3.725 2.227c-21.577 13.93-49.448 22.989-72.411 34.823-8.357 4.187-22.309 6.268-27.162 13.235-10.657 15.445-20.239 33.097-27.875 51.752l-0.68 1.877c-20.191 38.309-39.698 80.786-57.11 121.179-12.149 31.984-24.097 58.143-37.465 83.437l1.947-4.040c-65.542 109.982-156.862 198.399-265.918 258.642l-3.613 1.83c-25.784 12.787-55.7 22.717-87.129 28.261l-2.013 0.294c-17.408 0.699-34.823 2.088-52.235 2.787-12.043 7.901-22.499 15.921-32.332 24.628l0.292-0.254c-39.695 25.070-142.095 79.386-171.352 7.654-18.805-45.272 27.86-89.841 43.886-112.827 12.804-15.311 24.57-32.407 34.666-50.559l0.856-1.676c4.875-11.831 6.265-24.375 11.14-36.912 12.103-37.642 24.373-68.535 38.362-98.462l-2.156 5.136c8.389-16.676 16.952-30.81 26.471-44.218l-0.702 1.042c5.573-7.658 15.32-11.143 17.412-23.68-7.217-15.119-12.799-32.669-15.862-51.071l-0.16-1.164c-9.079-27.683-14.315-59.543-14.315-92.626 0-51.66 12.767-100.339 35.318-143.053l-0.805 1.672c11.143-17.404 37.61-55.72 73.143-41.092 31.342 12.537 24.375 52.235 33.43 87.040 2.092 8.36 0.699 13.926 4.875 19.5 0-0.695 0-1.397 0-1.397 9.754-19.5 19.5-38.305 28.551-57.801 25.329-36.248 55.29-67.095 89.486-92.576l1.054-0.751c16.72-12.533 29.952-34.125 50.834-41.79v2.096h-1.393c-4.647 5.314-9.913 9.915-15.729 13.747l-0.289 0.179c-12.94 12.68-24.816 26.328-35.555 40.867l-0.651 0.923c-27.31 36.661-53.219 78.166-75.659 121.75l-2.351 5.025c-11.14 21.577-20.893 45.272-29.945 66.86-4.184 8.36-4.184 20.893-11.147 25.070-12.354-13.881-23.432-29.399-32.749-46.036l-0.681-1.324c-10.668-31.073-17.664-66.985-19.465-104.26l-0.035-0.901c-2.783-0.699-1.393 0-2.787-1.393-22.283 5.573-29.948 28.551-38.305 48.055-11.408 30.521-18.010 65.789-18.010 102.599 0 29.693 4.296 58.382 12.3 85.48l-0.54-2.131c4.875 14.629 25.768 60.592 17.412 74.522-4.176 13.235-18.11 20.893-25.772 31.338-8.96 12.817-17.329 27.448-24.352 42.822l-0.718 1.755c-16.731 39-25.084 82.18-43.195 121.183-10.988 20.452-22.53 37.998-35.431 54.427l0.607-0.803c-13.822 15.982-26.492 33.756-37.419 52.664l-0.886 1.663c-3.482 7.658-8.357 20.195-2.787 28.551 0.901 4.827 4.826 8.516 9.7 9.051l0.050 0.004c9.055 7.68 34.823-2.092 43.886-6.268 26.41-10.013 49.137-21.731 70.288-35.647l-1.34 0.828c9.75-6.967 20.195-20.202 32.731-23.684h14.629c22.287-4.871 47.356-1.393 68.25-7.658 38.276-12.922 71.44-29.188 102.005-49.107l-1.715 1.048c92.144-59.329 165.907-139.783 215.675-234.787l1.622-3.399c8.357-16.015 11.835-30.647 19.5-47.356 14.629-34.128 32.731-68.952 47.356-102.4 14.069-35.68 30.685-66.426 50.434-94.83l-0.99 1.504c10.452-14.629 52.235-22.283 71.040-29.945 19.728-6.828 35.607-13.417 51.043-20.782l-2.984 1.282c23.676-14.629 47.356-31.342 69.643-47.36 11.147-8.353 45.967-25.768 48.059-39.691zM232.825 682.372c-0.306 0.003-0.668 0.005-1.031 0.005-9.779 0-19.261-1.273-28.289-3.663l0.769 0.173v-1.401h1.393c7.085-10.696 14.416-20.019 22.424-28.707l-0.142 0.155c5.573-11.14 10.445-22.287 16.022-33.434l1.39 1.393c9.076 7.26 14.84 18.334 14.84 30.755 0 1.433-0.077 2.848-0.226 4.242l0.015-0.173c-2.653 4.022-5.431 8.809-7.953 13.749l-0.407 0.879c-4.176 6.971-13.235 10.445-18.805 16.022z" />
<glyph unicode="&#xe90a;" glyph-name="php" d="M299.088 428.493h-40.283l-21.943-112.962h35.763c1.915-0.151 4.147-0.237 6.399-0.237 17.293 0 33.399 5.084 46.904 13.838l-0.337-0.204c12.664 11.242 21.262 26.819 23.458 44.386l0.036 0.349c1.649 4.699 2.602 10.117 2.602 15.757 0 9.93-2.954 19.171-8.030 26.891l0.114-0.185c-10.121 8.006-23.069 12.842-37.147 12.842-2.657 0-5.273-0.172-7.839-0.506l0.303 0.032zM758.005 428.493h-40.283l-21.943-112.962h35.763c1.915-0.151 4.147-0.237 6.399-0.237 17.293 0 33.399 5.084 46.904 13.838l-0.337-0.204c12.667 11.24 21.266 26.818 23.458 44.386l0.035 0.348c1.649 4.698 2.601 10.114 2.601 15.753 0 9.932-2.955 19.174-8.033 26.895l0.114-0.185c-10.121 8.006-23.069 12.842-37.146 12.842-2.656 0-5.271-0.172-7.835-0.506l0.303 0.032zM512 621.334c-282.767 0-512-120.587-512-269.334s229.233-269.334 512-269.334 512 120.587 512 269.334-229.237 269.334-512 269.334zM372.926 303.422c-10.801-10.319-23.881-18.352-38.399-23.264l-0.732-0.215c-14.975-4.487-32.183-7.069-49.993-7.069-1.71 0-3.415 0.024-5.114 0.071l0.25-0.006h-50.366l-13.945-71.76h-58.796l52.458 269.897h113.064c2.509 0.238 5.425 0.374 8.373 0.374 25.757 0 49.092-10.37 66.058-27.163l-0.008 0.008c10.873-14.021 17.43-31.864 17.43-51.239 0-8.384-1.228-16.482-3.514-24.123l0.153 0.595c-4.942-26.437-18.16-49.187-36.816-66.026l-0.103-0.092zM544.549 272.94l23.208 119.42c1.182 3.226 1.865 6.951 1.865 10.836 0 6.275-1.783 12.133-4.871 17.096l0.080-0.138c-6.648 4.846-14.98 7.753-23.99 7.753-1.857 0-3.685-0.123-5.477-0.363l0.21 0.023h-46.614l-30.051-154.628h-58.342l52.462 269.897h58.331l-13.945-71.76h51.968c3.161 0.35 6.827 0.55 10.539 0.55 21.339 0 41.135-6.604 57.456-17.879l-0.338 0.221c8.767-9.919 14.12-23.035 14.12-37.401 0-6.454-1.080-12.656-3.070-18.435l0.119 0.398-24.415-125.59zM868.762 369.554c-4.942-26.437-18.16-49.187-36.816-66.026l-0.103-0.092c-10.801-10.319-23.881-18.352-38.399-23.264l-0.732-0.215c-14.975-4.487-32.183-7.069-49.993-7.069-1.71 0-3.415 0.024-5.114 0.071l0.25-0.006h-50.363l-13.945-71.76h-58.781l52.458 269.897h113.064c2.51 0.238 5.426 0.374 8.375 0.374 25.755 0 49.089-10.37 66.052-27.163l-0.008 0.008c10.865-14.018 17.417-31.855 17.417-51.222 0-8.387-1.229-16.486-3.516-24.129l0.153 0.595z" />
<glyph unicode="&#xe90b;" glyph-name="propel" d="M676.546 100.78c176.783 170.302 202.73 311.563-676.546-187.092 375.929 112.998 676.546 187.092 676.546 187.092zM925.334 632.722c176.775 170.299 202.723 311.519-676.546-187.132 375.929 112.998 676.546 187.132 676.546 187.132zM798.738 367.813c176.775 170.302 202.723 311.501-676.506-187.129 375.899 112.998 676.506 187.129 676.506 187.129z" />
<glyph unicode="&#xe90c;" glyph-name="react" d="M1024 351.894c0 67.836-84.952 132.129-215.194 171.992 30.054 132.754 16.699 238.362-42.163 272.176-12.876 7.348-28.296 11.681-44.727 11.681-0.642 0-1.282-0.007-1.92-0.020l0.095 0.002v0.234c-57.417 0-132.542-40.912-208.516-111.876-75.97 70.546-151.109 111.042-208.508 111.042v-0.212c-0.583 0.013-1.27 0.021-1.959 0.021-16.602 0-32.188-4.347-45.683-11.965l0.465 0.241c-58.65-33.81-71.801-139.216-41.534-271.547-129.821-40.064-214.356-104.141-214.356-171.769 0-67.833 84.952-132.122 215.194-171.988-30.054-132.754-16.699-238.362 42.163-272.172 12.917-7.377 28.387-11.727 44.873-11.727 0.734 0 1.467 0.009 2.197 0.026l-0.108-0.002c57.417 0 132.542 40.912 208.516 111.876 75.977-70.546 151.117-111.042 208.516-111.042 0.584-0.013 1.271-0.021 1.961-0.021 16.601 0 32.187 4.347 45.681 11.965l-0.465-0.241c58.65 33.81 71.801 139.216 41.534 271.547 129.404 39.863 213.939 104.155 213.939 171.78zM719.887 761.392v-0.19c0.447 0.015 0.973 0.023 1.501 0.023 8.147 0 15.824-2.015 22.559-5.574l-0.263 0.127c28.387-16.282 40.7-78.263 31.086-158.007-2.297-19.621-6.053-40.283-10.646-61.363-36.996 9.426-82.081 17.437-128.087 22.365l-4.448 0.386c-28.199 38.686-56.674 72.723-87.217 104.772l0.39-0.412c67.95 63.148 131.716 97.766 175.126 97.872zM327.073 245.029q14.705-25.048 30.054-48.841c-29.623 4.389-58.233 9.812-85.577 16.49 7.724 26.924 17.324 54.685 28.178 82.447 8.569-16.699 17.532-33.397 27.344-50.096zM270.925 491.114c27.341 6.469 56.148 12.105 85.994 16.49-10.24-16.073-20.458-32.549-30.058-49.467-9.6-16.699-18.575-33.397-27.132-50.103-11.271 27.977-20.875 55.947-28.804 83.079zM324.147 351.269c12.943 27.97 27.553 55.954 43.209 83.284 16.278 28.16 32.976 54.89 50.3 79.726 31.086 2.714 62.618 4.176 94.354 4.176 31.517 0 63.035-1.463 93.926-3.968 17.324-24.836 34.231-51.346 50.512-79.312 15.861-27.344 30.263-55.106 43.414-83.072-13.166-27.97-27.553-55.954-43.209-83.284-16.278-28.16-32.976-54.894-50.3-79.726-31.086-2.714-62.618-4.176-94.354-4.176-31.517 0-63.035 1.463-93.926 3.964q-25.984 37.259-50.512 79.316c-15.861 27.344-30.263 55.106-43.414 83.072zM696.927 245.654c9.604 16.699 18.578 33.605 27.136 50.304 11.271-27.97 20.871-55.954 28.804-83.072-27.341-6.682-56.144-12.314-85.994-16.699 10.229 16.073 20.454 32.567 30.054 49.467zM696.722 458.763c-9.604 16.699-19.829 32.976-30.058 48.841 29.641-4.389 58.236-9.808 85.577-16.49-7.724-26.924-17.324-54.685-28.16-82.443-8.576 16.695-17.551 33.393-27.359 50.092zM569.417 563.749c-18.787 0.837-37.987 1.463-57.399 1.463-19.621 0-39.033-0.417-58.024-1.463 19.001 24.588 37.791 46.357 57.665 67.078l-0.27-0.284c19.775-20.503 38.764-42.27 56.635-64.959l1.393-1.835zM279.066 754.94c6.331 3.448 13.865 5.476 21.873 5.476 0.749 0 1.493-0.018 2.233-0.053l-0.105 0.004v0.212c43.205 0 107.282-34.443 175.327-97.28-30.011-31.529-58.289-65.503-84.223-101.288l-1.979-2.868c-50.358-5.235-95.514-13.322-139.484-24.395l6.729 1.436c-4.802 20.871-8.349 41.117-10.854 60.529-9.801 79.748 2.297 141.74 30.482 158.226zM226.465 224.991c-20.663 6.469-40.283 13.568-58.441 21.292-73.874 31.517-121.688 72.843-121.688 105.611s47.799 74.306 121.688 105.615c17.949 7.724 37.57 14.61 57.816 21.083 14.943-50.504 30.911-92.669 49.525-133.372l-2.563 6.257c-15.893-34.309-31.656-76.279-44.544-119.488l-1.792-6.998zM303.909-57.622c-0.168-0.002-0.367-0.003-0.566-0.003-8.414 0-16.34 2.088-23.289 5.773l0.27-0.131c-28.387 16.278-40.7 78.263-31.086 157.989 2.297 19.621 6.053 40.283 10.646 61.367 36.999-9.423 82.081-17.428 128.086-22.348l4.441-0.385c28.197-38.687 56.672-72.725 87.216-104.775l-0.388 0.411c-68.056-63.25-131.924-97.898-175.331-97.898zM512.424 73.249c-19.771 20.501-38.758 42.267-56.629 64.953l-1.395 1.837c18.783-0.834 37.987-1.463 57.417-1.463 19.621 0 39.033 0.417 58.024 1.463-19.007-24.583-37.806-46.351-57.691-67.070l0.266 0.279zM744.942-51.149c-6.333-3.451-13.869-5.479-21.88-5.479-0.746 0-1.489 0.018-2.226 0.052l0.104-0.004c-43.205 0-107.282 34.443-175.327 97.28 30.011 31.529 58.289 65.503 84.223 101.288l1.979 2.868c50.358 5.235 95.514 13.322 139.484 24.395l-6.729-1.436c4.049-16.23 7.855-36.853 10.549-57.823l0.306-2.914c9.794-79.748-2.304-141.74-30.49-158.226zM855.771 246.283c-17.949-7.724-37.57-14.629-57.816-21.083-14.947 50.507-30.915 92.671-49.527 133.373l2.565-6.262c15.89 34.306 31.653 76.277 44.543 119.487l1.793 7.002c20.663-6.469 40.283-13.568 58.65-21.292 73.874-31.514 121.688-72.843 121.688-105.615-0.212-32.768-48.022-74.306-121.896-105.611zM511.792 256.508c52.682 0 95.389 42.707 95.389 95.389s-42.707 95.389-95.389 95.389c-52.682 0-95.389-42.707-95.389-95.389 0-0.001 0-0.003 0-0.004v0c0-52.68 42.706-95.386 95.386-95.386 0.001 0 0.003 0 0.004 0v0z" />
<glyph unicode="&#xe90d;" glyph-name="bootstrap" d="M600.773 291.032c-18.578 13.227-41.733 21.147-66.738 21.147-3.061 0-6.094-0.119-9.095-0.352l0.398 0.025h-97.423v-166.115h97.423c2.553-0.202 5.527-0.316 8.528-0.316 24.917 0 47.986 7.917 66.826 21.374l-0.35-0.237c15.769 14.078 25.649 34.465 25.649 57.16 0 2.012-0.078 4.006-0.23 5.979l0.016-0.262c0.133 1.671 0.209 3.618 0.209 5.583 0 22.255-9.715 42.241-25.136 55.948l-0.076 0.067zM519.731 423.164c1.91-0.143 4.136-0.225 6.382-0.225 19.955 0 38.402 6.458 53.364 17.398l-0.256-0.178c12.554 11.347 20.408 27.69 20.408 45.867 0 1.502-0.054 2.991-0.159 4.467l0.011-0.198c0.087 1.222 0.136 2.647 0.136 4.084 0 18.1-7.854 34.365-20.34 45.574l-0.057 0.050c-14.646 11.017-33.139 17.643-53.18 17.643-2.221 0-4.422-0.081-6.602-0.241l0.292 0.017h-91.816v-134.257zM858.584 864h-693.168c-0.102 0-0.223 0-0.344 0-91.048 0-164.879-73.712-165.072-164.714v-694.553c0.193-91.021 74.025-164.733 165.072-164.733 0.121 0 0.242 0 0.363 0h693.149c0.102 0 0.223 0 0.344 0 91.048 0 164.879 73.712 165.072 164.714v694.553c-0.193 91.021-74.025 164.733-165.072 164.733-0.121 0-0.242 0-0.363 0h0.019zM728.803 79.451c-48.014-28.825-105.948-45.874-167.865-45.874-8.28 0-16.49 0.305-24.617 0.904l1.086-0.064h-275.452v634.317h249.157q134.060 0 193.982-39.936c36.951-26.026 60.795-68.507 60.795-116.558 0-3.986-0.164-7.934-0.486-11.837l0.034 0.512c0.038-1.217 0.060-2.649 0.060-4.086 0-27.843-8.223-53.765-22.373-75.47l0.326 0.533c-15.621-22.025-37.433-38.74-62.891-47.732l-0.908-0.279c34.21-9.037 62.804-29.101 82.476-56.085l0.293-0.421c18.41-26.765 29.403-59.876 29.403-95.555 0-1.956-0.033-3.904-0.099-5.844l0.008 0.282c0.237-3.235 0.373-7.008 0.373-10.813 0-51.413-24.707-97.055-62.895-125.701l-0.406-0.292z" />
<glyph unicode="&#xe90e;" glyph-name="dlr" d="M746.423 747.966l-280.982-282.448h-238.409l-227.032-227.035h277.738v-282.448l282.448 282.448h236.782l227.032 227.035h-277.577zM689.221 610.805v-145.287h-145.448zM249.947 408.32h158.449l-112.783-112.64h-158.288zM489.98 408.32h158.449l-114.41-112.64h-158.288zM728.386 408.32h158.471l-112.786-112.64h-158.307zM480.227 240.091l-145.287-145.269v143.66z" />
<glyph unicode="&#xe90f;" glyph-name="materialize" d="M873.359 334.197c-16.909-2.841-30.51-14.596-35.947-30.178l-0.098-0.322c-1.829 9.242-2.772 17.554-4.623 27.728-30.497 166.352-53.603 275.405-82.245 281.874h-8.316c-1.399-0.037-2.71-0.373-3.885-0.946l0.056 0.025h-138.496c0.019 0 0.041 0 0.063 0 0.759 0 1.493-0.111 2.185-0.318l-0.054 0.014c-0.656 0.184-1.41 0.294-2.189 0.303h-8.321c-23.106-5.548-43.436-73.011-77.634-260.623-0.922-5.544-1.829-10.167-2.772-15.726-30.497 162.659-52.663 269.864-81.328 276.334h-158.969c-23.102-5.548-43.436-73.011-78.555-260.623-2.71-12.643-4.553-25.282-7.223-37.925-7.793 10.869-20.202 18.001-34.299 18.514l-0.078 0.002h-150.63c40.664-10.167 65.616-63.77 79.481-148.795 15.726-92.416 32.347-88.722 35.109-92.416h150.652c24.027 5.544 44.361 73.933 78.555 260.619 1.851 12.939 4.623 24.953 6.469 36.966 0.925-5.544 1.851-10.163 2.772-15.726 31.364-165.113 53.519-274.048 83.017-281.816l-0.161-0.059 150.51-0.435-0.165 0.527c23.899 6.045 44.208 74.606 78.263 260.528 1.829 12.939 4.619 24.953 6.469 36.966l0.11 0.289c0.889-5.252 1.774-9.754 2.662-15.075 30.497-166.352 53.603-275.408 82.253-281.878h150.641s32.347 18.483 38.817 89.648c9.242 99.811 25.878 134.949 78.555 152.503z" />
<glyph unicode="&#xe910;" glyph-name="mobx" d="M512.029-159.941h-440.975c-0.591-0.018-1.285-0.028-1.983-0.028-38.138 0-69.054 30.917-69.054 69.054 0 0.796 0.013 1.588 0.040 2.378l-0.003-0.115-0.033 881.949c-0.013 0.507-0.021 1.104-0.021 1.702 0 38.105 30.89 68.996 68.996 68.996 0.679 0 1.355-0.010 2.029-0.029l-0.099 0.002 881.949 0.033c0.472 0.012 1.028 0.018 1.586 0.018 38.338 0 69.416-31.079 69.416-69.416 0-0.48-0.005-0.958-0.015-1.435l0.001 0.071q0.059-441.662 0.113-883.313c0.004-0.284 0.007-0.62 0.007-0.956 0-38.097-30.884-68.981-68.981-68.981-0.463 0-0.924 0.005-1.385 0.014l0.069-0.001q-220.829 0-441.659 0zM317.945 623.751c-1.311 0.42-2.863 0.756-4.46 0.946l-0.122 0.012q-59.118 0.113-118.232 0.143c-4.122 0-5.486-1.792-5.431-5.786 0.168-9.962 0.336-19.942-0.073-29.89-0.241-5.833 2.081-7.314 7.504-7.274 20.612 0.223 41.227-0.15 61.831 0.227 6.535 0.121 8.393-1.829 8.386-8.393q-0.278-221.853-0.040-443.725c0-6.188-1.686-8.218-7.962-8.112-20.151 0.34-40.313 0.143-60.471 0.121-9.143 0-9.143-0.051-9.165-8.836-0.018-8.609 0.366-17.236-0.135-25.812-0.402-6.634 1.986-8.492 8.459-8.452 36.915 0.238 73.838 0.077 110.757 0.073 9.198 0 9.209 0.040 9.209 9.359l-0.055 527.298c-0.004 2.677 0 5.354 0 8.101zM706.022 624.219c0-3.354 0-6.042 0-8.726q-0.059-90.039-0.121-180.074 0-173.619 0.059-347.235c0-9.168 0-9.179 9.384-9.194q14.61-0.022 29.221 0 40.090 0 80.183 0.040c9.509 0 9.509 0.040 9.538 9.172 0 8.605-0.366 17.236 0.132 25.816 0.366 6.268-1.829 8.276-8.046 8.192-20.612-0.282-41.227 0.069-61.835-0.19-5.72-0.069-7.823 1.36-7.812 7.556q0.304 222.204 0.124 444.412c0 5.881 1.51 7.888 7.581 7.797 20.608-0.322 41.223 0.040 61.835-0.176 5.95-0.062 8.645 1.547 8.28 8.068-0.244 4.059-0.383 8.804-0.383 13.583s0.139 9.524 0.413 14.233l-0.030-0.65c0.366 6.722-2.253 8.503-8.605 8.448-37.595-0.325-75.191-0.322-112.786-0.461-2-0.007-4.001-0.336-7.131-0.611zM515.291 248.7l-2.589 0.366c-0.731 1.613-1.595 3.182-2.22 4.838-10.262 27.034-21.53 53.738-30.497 81.189-14.577 44.617-27.769 89.713-41.198 134.707-1.653 5.544-3.803 7.837-9.677 7.468-7.68-0.479-15.393-0.117-23.095-0.117h-26.536c0.581-3.003 0.837-4.941 1.335-6.813 31.002-109.96 66.696-203.733 109.507-293.458l-4.73 11.010c0.993-2.882 3.681-4.915 6.844-4.915 0.323 0 0.641 0.021 0.953 0.062l-0.037-0.004c12.226 0.212 24.466 0.285 36.685-0.029 0.318-0.045 0.685-0.071 1.058-0.071 3.576 0 6.599 2.37 7.583 5.625l0.015 0.056c6.806 15.77 14.171 31.298 20.941 47.082 29.577 64.294 58.061 142.041 80.707 222.237l2.841 11.772c0.585 2.238 0.753 4.586 1.203 7.457-17.679 0-34.399 0.176-51.101-0.252-1.829-0.048-4.546-3.291-5.211-5.544-8.016-27.063-14.822-54.513-23.709-81.28-15.707-47.342-32.64-94.277-49.072-141.385z" />
<glyph unicode="&#xf000;" glyph-name="uniF000" horiz-adv-x="1563" d="M0 31.5q0-19 14.5-32 13.5-13.5 32.5-13.5h313.5q20.5 0 36.25-15t15.75-36.5-15.75-37-36.25-15.5-36.5 16q-14.5 13-32.5 13-19 0-32-12.75t-13-31.75 13-32q42.5-42.5 101-42.5 59 0 100.5 41.75t41.5 100.75-41.5 101-100.5 42h-313.5q-19 0-33-13.75t-14-32.25zM0 192q0-17.5 14.5-30.5 13.5-13.5 32.5-13.5h585q59 0 100.75 41.75t41.75 100.75-41.5 100-101 41q-60.5 0-100.5-40.5-12.5-13-12.5-32.5t12.25-31.75 31.75-12.25q19 0 33 12.5 15 15 36 15t36.25-15 15.25-36.5-15.25-37-36.25-15.5h-585q-19 0-33-13.75t-14-32.25zM141.5 317.5q0-6.5 9-6.5h76.5q5.5 0 10.5 7.5 18 43.5 55.75 71.75t85.25 31.75l28 4q10 0 10 9l3.5 27.5q8.5 86.5 73 144.5t152 58q88 0 152.75-57.75t73.75-144.75l3.5-31q0-9.5 9.5-9.5h87q72 0 122.75-50.25t50.75-121.25q0-71.5-50.75-122.25t-122.75-50.75h-368q-10 0-10-9.5v-73q0-9 10-9h368q71.5 0 132.25 35.5t96 96.5 35.25 132.5q0 59-22.5 108 60.5 79.5 60.5 176.5 0 75-37.75 139.5t-102.25 102.25-139.5 37.75q-123.5 0-206-92.5-64 32.5-142.5 32.5-112.5 0-199-69.75t-110-178.25q-68-16-120.25-65.5t-72.75-117v-2q-1.5-2.5-1.5-4.5zM577.5 905.5q0-18.5 14.5-32l32.5-34.5q13-13 32.5-13 20 0 32.75 12.25t12.75 32.25q0 19-12 32l-35 34.5q-12.5 14-31.5 14t-32.75-13.5-13.75-32zM861.5 670.5q57.5 54.5 132 54.5 77.5 0 133.75-56t56.25-134q0-52-27.5-97.5-76.5 76.5-184.5 76.5h-18q-19 86.5-92 156.5zM948 950q0-18.5 13.25-31.25t32.25-12.75 32.5 12.75 13.5 31.25v109q0 19-13.5 32.5t-32.5 13.5-32.25-13.5-13.25-32.5v-109zM1244 829q0-19.5 12-32 13.5-13.5 32.5-13.75t30.5 13.75l78 76.5q13.5 13.5 13.5 32.5 0 18.5-13.5 32t-32.5 13.5-32-13l-76.5-78.5q-12-12.5-12-31zM1285 198q0-18.5 13.5-32l34-34.5q16-13 33-13 15.5 0 31.5 13 13.5 13.5 13.5 32 0 17.5-13.5 32.5l-34 34.5q-13 13-31 13-20 0-33.5-13.25t-13.5-32.25zM1365.5 535q0-19 13.5-31.5 12-14 30.5-14h108q19 0 32.5 13.5t13.5 32-13.75 32.25-32.25 13.75h-108q-19 0-31.5-13.5t-12.5-32.5z" />
<glyph unicode="&#xf001;" glyph-name="uniF001" horiz-adv-x="1553" d="M0 33.5q0-19.5 13-32.5 35-14.5 47-14.5h420q19 0 32.25 13.75t13.25 32.75q0 18.5-13.25 31.25t-32.25 12.75h-420q-21 0-40.5-12.75t-19.5-30.75zM74.5 193.5q0-19 13.5-31.5 12-14 31-14h501.5q19 0 32.5 13.25t13.5 32.25-13.5 32.5-32.5 13.5h-501.5q-18.5 0-31.5-13.5t-13-32.5zM130.5 320q0-7 9-7h74q9.5 0 11.5 7 20.5 42.5 58 70.25t84.5 33.25h29q8.5 0 8.5 10l4 30q5.5 57 37 103.75t81.75 73.25 107.75 26.5q87 0 152-58.5t74-145l4-30q0-10 9.5-10h85.5q71 0 122.75-51t51.75-121q0-72-51.5-123.25t-123-51.25h-367.5q-9 0-9-10v-71q0-9.5 9-9.5h367.5q72 0 133 35.5t96.5 96.5 35.5 133q0 58-23 107 62 77 62 175 0 75-37.75 139.5t-102.5 102.25-140.25 37.75q-58.5 0-111.75-23.75t-92.75-66.75q-66 34.5-144 34.5-113 0-200.5-70t-111.5-179q-68-17-119.75-66.75t-72.25-117.75q-1-1-1-3.5zM168.5-136.5q0-19 14-31.5 12.5-13.5 31-13.5h502.5q18.5 0 31.5 13.25t13 31.75q0 20-12.75 33.25t-31.75 13.25h-502.5q-19 0-32-13.25t-13-33.25zM567.5 904q0-20 13-32l34-35q13-13 32-13 20.5 0 33.25 12.75t12.75 32.75q0 18.5-13 31.5l-34.5 34.5q-13.5 13.5-30.5 13.5-20 0-33.5-13.25t-13.5-31.75zM853.5 670.5q53 50.5 130.5 50.5 78 0 132.75-54.75t54.75-132.75q0-53.5-24.5-96.5-75.5 76-186.5 76h-16q-23 92-91 157.5zM939 949q0-19 13.25-31.5t31.75-12.5q20 0 32.25 12.25t12.25 31.75v109q0 19.5-12.5 32.75t-32 13.25q-18.5 0-31.75-13.5t-13.25-32.5v-109zM1233.5 827q0-19.5 13.5-32 10-13 32-13 21.5 0 31.5 13l78 77q13 12 13 33 0 18.5-13.25 31.75t-32.25 13.25-32.5-12.5l-76.5-79q-13.5-13-13.5-31.5zM1276 194.5q0-19.5 12.5-32l35-33.5q19.5-14.5 32.5-14.5t32.5 14.5q13 13 13 32 0 18.5-13 32.5l-34 32.5q-15 14-34.5 14-19 0-31.5-13t-12.5-32.5zM1353 531.5q0-19.5 14.5-32.5 14.5-13.5 32-13.5h108.5q18 0 31.25 13.5t13.25 32.5q0 18-13 30.25t-31.5 12.25h-108.5q-19.5 0-33-12.25t-13.5-30.25z" />
<glyph unicode="&#xf002;" glyph-name="uniF002" horiz-adv-x="1434" d="M0 250.5q0-72 35.25-133t95.75-96.25 132-35.25h577.5q71.5 0 132.5 35.25t96.5 96.25 35.5 133q0 53-22.5 106.5 61 74.5 61 176.5 0 57-22 108.75t-59.5 89.25-89.25 59.5-108.75 22q-118.5 0-207-93-62 35-144 35-112.5 0-199-69.75t-111-178.75q-89.5-20.5-146.25-92t-56.75-164zM91 250.5q0 67 44.75 115.5t112.25 56.5l26.5 1.5q10 0 10 9.5l3.5 29q11 86.5 75 144.75t150 58.25q88 0 153.25-58.5t73.25-144.5l4-31q2-9 11-9h86q70.5 0 121.5-51t51-121q0-72.5-50.75-123.75t-121.75-51.25h-577.5q-70 0-121 51.75t-51 123.25zM448.5 905q0-19.5 13-33.5l35-34q20-15 34-13.5 16.5 0 29.5 13.75t13 33.25-14 31.5l-31.5 35q-14.5 13-32.5 13-19.5 0-33-13.25t-13.5-32.25zM733.5 669q55.5 53.5 130.5 53.5 79 0 134.25-55t55.25-134q0-50-27-98-77.5 76.5-186 76.5h-17q-20 87-90 157zM820 950.5q0-20.5 12.5-33t31.5-12.5q20.5 0 33 12.5t12.5 33v109q0 19-12.75 31.5t-32.75 12.5q-19 0-31.5-12.5t-12.5-31.5v-109zM1114.5 828q0-20.5 12-33 17-13 33-13 14.5 0 31.5 13l76.5 76.5q13 14.5 13 34 0 19-13 32t-31.5 13q-19 0-31-13l-78.5-76.5q-12-14.5-12-33zM1157 197q0-19 13.5-33.5l34.5-33.5q12-13 31-13t31.75 13.25 12.75 33.25q0 18-13 31l-34.5 34.5q-13 13-30.5 13-19 0-32.25-13t-13.25-32zM1235 533.5q0-18.5 14-31 13-13 32.5-13h109q18.5 0 30.75 12.5t12.25 31.5-12.25 32.25-30.75 13.25h-109q-19 0-32.75-13.5t-13.75-32z" />
<glyph unicode="&#xf003;" glyph-name="uniF003" horiz-adv-x="1566" d="M0 29q0-18.5 13.5-31.25t33.5-12.75h998q19 0 32.5 12.75t13.5 31.25q0 19-13.5 32.25t-32.5 13.25h-998q-20 0-33.5-13.25t-13.5-32.25zM140 196q0-18.5 13.5-31 13.5-14.5 32-14.5h998.5q18.5 0 31.25 13.25t12.75 32.25q0 18.5-12.5 31.25t-31.5 12.75h-998.5q-19 0-32.25-12.75t-13.25-31.25zM146.5 324q0-7 8.5-7h76.5q5.5 0 11 8.5 19 41.5 56.75 68t83.25 30l29 4q9 0 9 9.5l3.5 27q8.5 86.5 73.25 144.5t152.25 58q86.5 0 151.25-57.5t73.75-143l4-31q0-9 10-9h86q51.5 0 93.75-27.5t62.75-73q5.5-8.5 10.5-8.5h77q10.5 0 7 12l-10.5 29.5q60.5 75 60.5 176.5 0 56.5-22 108t-59 89-89 59.5-109 22q-123.5 0-204-89.5-67.5 33.5-143 33.5-112 0-199.25-70.25t-111.75-179.75q-142.5-37.5-191-178.5-1-1.5-1-5zM233-135q0-19 14.5-32 12.5-14 31.5-14h999.5q18.5 0 32 13.5t13.5 32.5q0 18.5-13.25 30.75t-32.25 12.25h-999.5q-19 0-32.5-12.25t-13.5-30.75zM583.5 903.5q0-19 12.5-31.5l34.5-34q13.5-14.5 31-14.5 18 0 31.75 13.25t13.75 32.75q0 19-13.5 33.5l-34 32.5q-13 14-32 14-19.5 0-31.75-13.25t-12.25-32.75zM867 670q54 54 129.5 54 78.5 0 133.75-55.5t55.25-133.5q0-52-26-96-76 76-185 76h-18q-22.5 94-89.5 155zM952.5 949q0-18.5 12.75-31.25t31.25-12.75q20 0 33.5 12.75t13.5 31.25v109q0 18.5-14 32t-33 13.5q-18.5 0-31.25-13.25t-12.75-32.25v-109zM1245.5 827.5q0-18 13-32 29.5-28.5 65.5 0l76 76.5q13 14 13 34 0 18.5-13 31.5t-31.5 13q-19 0-32-13l-78-78.5q-13-14-13-31.5zM1288.5 198.5q0-19 14-32l34-34.5q13-13 31-13 16.5 0 32.5 13 13 14 13 34 0 18-13 30l-34.5 35q-14 13-32 13-19 0-32-13.25t-13-32.25zM1367.5 535q0-19.5 14-32 12-13.5 31.5-13.5h109.5q18.5 0 31.25 13.25t12.75 32.25-12.75 32-31.25 13h-109.5q-19 0-32.25-13.25t-13.25-31.75z" />
<glyph unicode="&#xf004;" glyph-name="uniF004" horiz-adv-x="1442" d="M0 251.5q0-107 74.5-183.75t181.5-81.75q9.5 0 9.5 9v71.5q0 9.5-9.5 9.5-68.5 3.5-116.75 54.75t-48.25 120.75q0 66.5 45.25 115.5t112.25 57l28.5 2q10.5 0 10.5 9.5l3.5 29.5q8.5 86.5 73.25 144.75t152.75 58.25q87 0 152.75-58.25t74.75-144.75l4-31q0-10 9-10h86.5q71.5 0 123.75-51.25t52.25-121.25q0-69.5-48.5-120.75t-117-54.75q-10.5 0-10.5-9.5v-71.5q0-9 10.5-9 107 3.5 181 80.75t74 184.75q0 59.5-22 107 63 77 63 177.5 0 75.5-38 140.25t-102.75 102.75-140.25 38q-125 0-208-93.5-64 35-144.5 35-113 0-200.75-70t-112.75-179.5q-88.5-21-146-93t-57.5-164.5zM284.5-125q8-17.5 24.5-24 16-8 33.75-1.25t23.75 23.75q8 17.5 1.25 34.5t-23.75 23.5q-16 8.5-33.25 1.5t-25.25-25q-7.5-13.5-1-33zM319 26.5q0-11 5-20.5 15.5-24.5 47.5-24.5 25.5 0 37 34.5l55.5 171.5q6.5 19.5-3.75 35.75t-29.25 19.75q-17.5 5.5-33.75-3.25t-21.75-26.75l-55-172q-1.5-7.5-1.5-14.5zM418.5-273q0-10.5 2.5-15.5 7-17.5 24-24 7.5-4 18.5-4 5 0 16 3 17.5 6.5 25.25 24.25t-0.25 35.25-24 24.25-33-0.25q-15.5-6-22.25-18.75t-6.75-24.25zM451 908q0-20 13-32l34.5-34.5q13-13 29-14.5 16.5-2.5 32.75 12.25t16.25 34.25q0 19-13 32l-34 34q-15 13.5-33 13.5-19.5 0-32.5-13t-13-32zM457.5-129.5q0-13 8.5-25.5t25.5-17.5q9-2 13-2 12 0 20.5 4 16 6.5 23 30.5l96 327.5q5.5 19-3 34.75t-26.5 20.75q-19 5.5-35.25-3t-21.75-27l-98-330q-2-10-2-12.5zM641.5-109q0-10 3.5-16.5 7-16.5 24-23.5 8.5-4 18.5-4 5 0 16 3 18 7 24.5 23.5 6.5 17.5 0 33.75t-22.5 24.25q-18 8.5-35 1.5t-25.5-25q-3.5-6.5-3.5-17zM680 28q0-12.5 8.25-24.25t24.75-16.75q7-1.5 13.5-1.5 31 0 42 32.5l55 169.5q6 18.5-3.5 34.5t-27.5 21q-19 5.5-34.25-3t-21.25-27l-54.5-170.5q-2.5-11-2.5-14.5zM737 672q53.5 51.5 132.5 51.5 78 0 133.5-54.75t55.5-132.75q0-50-27.5-98.5-76.5 77-187 77h-16.5q-23.5 92.5-90.5 157.5zM823.5 953q0-19 13.5-32.5t32.5-13.5q18.5 0 31.25 13.5t12.75 32.5v110q0 19-12.75 32.5t-31.25 13.5q-19 0-32.5-13.5t-13.5-32.5v-110zM1119.5 831q0-19.5 13.5-32 12-14 30.75-13.75t32.25 13.75l77 77q14.5 12 14.5 32 0 19-13.75 32.5t-32.75 13.5q-17.5 0-30.5-14.5l-77.5-76.5q-13.5-12.5-13.5-32zM1162.5 196q0-18 13-32l35-33.5q11.5-14.5 32-14.5 19 0 30.5 14.5 14.5 13 14.5 32t-14.5 32.5l-34.5 33q-12.5 14-31 14t-31.75-13.5-13.25-32.5zM1240.5 536q0-19 14-32 14-14 33-14h108.5q19 0 32.75 13.5t13.75 32.5q0 18.5-13.5 31.25t-33 12.75h-108.5q-20 0-33.5-12.75t-13.5-31.25z" />
<glyph unicode="&#xf005;" glyph-name="uniF005" horiz-adv-x="1434" d="M0 250.5q0-106.5 74.25-183t181.25-81.5q9 0 9 9v73q0 9.5-9 9.5-69.5 5.5-117 55.25t-47.5 117.75q0 67 45.25 116.75t111.75 55.25l28 4q10.5 0 10.5 9l3 27q8.5 86.5 73.25 144.75t152.75 58.25q87 0 151.75-58t74.25-145l3.5-31q0-9 10-9h85.5q72.5 0 123.75-50.5t51.25-121.5q0-68-47.5-117.75t-117-55.25q-10.5 0-10.5-9.5v-73q0-9 10.5-9 106.5 3.5 180.25 80.5t73.75 184q0 54-25 110.5 63.5 75.5 63.5 174.5 0 57-22.25 108.75t-59.75 89.25-89.25 59.5-108.25 22q-123.5 0-207-92.5-68.5 33-141.5 33-113.5 0-200.75-69.5t-111.75-179.5q-88-20.5-145.5-92.25t-57.5-163.75zM400-350.5h16l283.5 418.5q3 3.5 1.25 7.25t-7.25 3.75h-116.5l122.5 224.5q6 11.5-7.5 11.5h-157q-6.5 0-11.5-7.5l-115-305q-2-11 7.5-11h115.5zM447 907q0-20 13-33l35-34.5q33.5-25.5 64.5 0 13 14.5 13 34 0 18.5-13 31.5l-34 34.5q-15 13.5-33 13.5-18.5 0-32-13.5t-13.5-32.5zM732 671q54.5 54.5 132 54.5 78 0 133-55.5t55-134.5q0-48.5-27-96.5-78 75-184.5 75h-16.5q-21.5 91-92 157zM818.5 953q0-20 12.75-33t32.75-13q19 0 31.5 12.75t12.5 33.25v109q0 19-12.5 31.5t-31.5 12.5-32.25-12.5-13.25-31.5v-109zM1112.5 829.5q0-18.5 14.5-32t29.5-13.5q13 0 33 13.5l77 76.5q13.5 14.5 13.5 33.5 0 19.5-13.25 32.5t-32.25 13q-17.5 0-31-13.5l-76.5-76.5q-14.5-15.5-14.5-33.5zM1156 199q0-18.5 13-32.5l34.5-35q13-13 31-13 19 0 32.25 13.5t13.25 33.5q0 18-13.5 30.5l-33 35q-15 12.5-33 12.5-18.5 0-31.5-13t-13-31.5zM1233.5 535.5q0-17.5 14-30.5 13.5-13.5 32-13.5h109q19 0 32.5 12.75t13.5 31.25q0 19-13.75 32.5t-32.25 13.5h-109q-18.5 0-32.25-13.5t-13.75-32.5z" />
<glyph unicode="&#xf006;" glyph-name="uniF006" horiz-adv-x="1443" d="M0 248q0-106 73-181.5t180-80.5q9.5 0 9.5 9v71q0 9.5-9.5 9.5-68.5 3.5-115.5 53.25t-47 119.25q0 67.5 45 117t112 55l28 4q8.5 0 8.5 7.5l4 29.5q10 87.5 73.75 145t151.25 57.5 152.75-57.5 73.75-143.5l3.5-31q2-9 11.5-9h85.5q71 0 122-51.25t51-123.25q0-69.5-47-119.25t-115.5-53.25q-10.5 0-10.5-9.5v-71q0-9 10.5-9 106.5 3.5 179.5 79.5t73 182.5q0 54-20.5 107 62 77 62 178.5 0 56.5-22 108.25t-59.5 89.25-89.25 59.75-108.75 22.25q-123 0-206-93-71.5 35-146 35-113 0-199.25-70t-110.75-180q-90-20.5-146.5-92.25t-56.5-164.75zM285.5-127q0-13.5 8.75-27t25.25-18.5q18.5-5.5 34.25 2t21.25 30l7.5 32.5q4 18-5.25 33.75t-27.75 21.25q-18 5.5-34-4t-21-28.5l-7.5-31.5q-1.5-4.5-1.5-10zM326.5 27.5q0-17.5 13-30.5 12.5-13.5 30-13.5 19 0 32.25 12.75t13.25 31.25-13.25 31.25-32.25 12.75q-18.5 0-30.75-12.5t-12.25-31.5zM359 149q-1-12.5 7-24.25t25.5-17.25q16.5-5 33.25 3.75t22.25 27.25l14.5 48q6 19.5-3.5 34.75t-29 20.75q-17.5 5.5-33.75-3.5t-21.75-26.5l-13-49q-1.5-13.5-1.5-14zM420.5-293.5q0-13.5 8.5-26.25t26-17.75q7-1.5 13-1.5 34.5 0 42.5 32.5l7 31.5q5 20.5-4.5 36.5t-28 19.5q-17 5.5-33.5-3.75t-22-27.25l-7-31.5q-2-9-2-12zM450.5 903.5q0-19 13-32l35-34q11-12.5 28.75-13.75t33.25 13.75q13 13 13 31.5 0 19-13 32l-33.5 34.5q-12.5 12.5-31.5 14-18.5 0-31.75-13.5t-13.25-32.5zM462.5-138.5q0-18 13-31t31-13q19 0 31.5 12.5t12.5 31.5q0 18.5-12.5 31t-31.5 12.5-31.5-12.5-12.5-31zM495.5-17.5q-1-12 7.25-25t24.25-16q18.5-5 34 3t22 30l14 48q5.5 17.5-3.75 33.5t-28.25 21.5q-17.5 5.5-34-4.25t-22-28.25l-12-48q-1.5-6.5-1.5-14.5zM643-132q0-13.5 8-25.75t24.5-17.25q2.5 0 7.5-1t7.5-1q32.5 0 40.5 35l7.5 32q5.5 17-3.75 33.5t-27.25 22q-20 5-36.25-4.25t-21.75-28.25l-5-31.5q0-1-0.75-6t-0.75-7.5zM682.5 25.5q0-18.5 13-30.5 12-13 31-13t31.5 12.5 12.5 31q0 19-12.5 31.5t-31.5 12.5-31.5-12.5-12.5-31.5zM715 149q0-13.5 8.5-25.75t26-17.25q1.5 0 6.5-1t7.5-1q8.5 0 19.5 5 16.5 8.5 21.5 28l13 48q5 18-3.75 33.75t-26.75 21.25q-18.5 5.5-34.25-3t-21.25-27l-15-48.5q0-1.5-0.75-5.75t-0.75-6.75zM733.5 667q53 53 131.5 53 79 0 134.5-54.25t55.5-132.25q0-53-28.5-100-78.5 78.5-186.5 78.5h-16.5q-22.5 87.5-90 155zM821.5 948q0-18.5 12.25-30.75t31.25-12.25q19.5 0 33 12.25t13.5 30.75v110q0 18.5-13.75 32t-32.75 13.5q-18.5 0-31-13.25t-12.5-32.25v-110zM1116 827q0-20 12-32 28.5-28.5 64.5 0l76.5 76.5q13.5 13.5 13.5 33.5 0 19-13.25 32.25t-32.25 13.25q-18.5 0-32.5-13l-76.5-79q-12-11.5-12-31.5zM1157.5 195q0-18.5 14.5-31.5l32.5-33.5q16-13 32.5-13 16 0 32 13 13.5 12.5 13.5 31.5 0 18-13.5 33l-34.5 32.5q-12 13.5-30.5 13.5t-32-13.5q-14.5-13.5-14.5-32zM1236.5 533.5q0-19 14-31.5 14.5-14.5 33-14.5h108q18.5 0 31.25 13.5t12.75 32.5-12.75 32.25-31.25 13.25h-108q-19 0-33-13.5t-14-32z" />
<glyph unicode="&#xf007;" glyph-name="uniF007" horiz-adv-x="1443" d="M0 250q0-90 53.5-160.75t137.5-94.25q7.5-1 13 4l62.5 75q-71.5 0-122.5 51.75t-51 124.25q0 66.5 45.25 115.5t112.75 57l26 1.5q10.5 0 10.5 10l4 29q8.5 86.5 73.5 145t152.5 58.5q88 0 153.5-58.5t74-145l3.5-31.5q3.5-9 11.5-9h87.5q70.5 0 121.5-50.75t51-121.75q0-67.5-45.25-118t-110.25-56q-39-4.5-48-15l-117-150.5q-11-15-8.5-33.5t16.5-30q12-13.5 31.75-11t31.75 19l102.5 131q65.5 6.5 119.75 43.5t85.75 95.5 31.5 125q0 57.5-22.5 107 63 76.5 63 177.5 0 56.5-22.5 108.5t-60.25 89.5-89.75 60-109 22.5q-120 0-207-93-63.5 35-145 35-113 0-200-70.25t-110.5-179.75q-90.5-20.5-148.75-92.5t-58.25-164.5zM208-189.5q6-17.5 24.5-25.5 17.5-8 35.5-0.5t24.5 25q7.5 16.5 0.25 33.25t-23.75 24.75q-17.5 8-35.25 1t-24.25-24.5q-6.5-20.5-1.5-33.5zM304.5-43v-6q1.5-17.5 16-29.5 14-12 33.5-10.5t30.5 15.5l116.5 150.5q11.5 14.5 10 33.75t-15.5 30.25q-14.5 12-33.75 10t-32.25-16.5l-114.5-149.5q-10.5-13-10.5-28zM332-302.5q0-5 3-16 7-17.5 24.5-24.5 9-3.5 19-3.5 7.5 0 16.5 2.5 17 6.5 23.5 23.5 8 17.5 1.25 35.5t-23.75 24.5q-17.5 8-35.75 0.75t-24.25-24.25q-4-8.5-4-18.5zM421-176v-5.5q1.5-18 17.5-31 12-13 32-10.75t32 18.25l221 279q11 16 9 34.25t-16.5 31.25q-14.5 11.5-33 9.25t-30-16.75l-222-280.5q-10-12-10-27.5zM452 906q0-19.5 14.5-31.5l32.5-35q12.5-12.5 29-14 16.5-2.5 32.75 12t16.25 34q0 18-13 32l-34.5 34.5q-12 13-31 13-19.5 0-33-13t-13.5-32zM609-237q0-9.5 3.5-16.5 7-17.5 24-24.5 8.5-4 18.5-4 5 0 16 3 18 7 24.5 24.5 8 17.5 1.25 35.25t-23.75 24.25q-17.5 8-35.75 1t-24.75-24q-3.5-9-3.5-19zM737.5 670.5q56.5 51.5 132 51.5 79 0 135-54.75t56-132.75q0-53-27.5-99-77.5 77.5-185.5 77.5h-18q-22 92-92 157.5zM824 951q0-18.5 13.25-31.25t32.25-12.75q19.5 0 33 12.75t13.5 31.25v110.5q0 18.5-13.75 32t-32.75 13.5q-18.5 0-32-13.25t-13.5-32.25v-110.5zM1121.5 829.5q0-19 12-32 14-13.5 32.75-13.75t30.25 13.75l79.5 77q13 13 13 32.5 0 19-13.75 32.75t-32.25 13.75q-17.5 0-32-13.5l-77.5-78.5q-12-13-12-32zM1163 194.5q0-19 13-32l35-33.5q13-13 29-14.5h3q14 0 33 14.5 13 13 13 31 0 19-13 33.5l-35 33q-13 13.5-31.5 13.5-19.5 0-33-13.25t-13.5-32.25zM1243 534.5q0-19 13-32 13-14.5 32-14.5h109q19 0 32.5 13.75t13.5 32.75q0 18.5-13.5 31.25t-32.5 12.75h-109q-19 0-32-12.75t-13-31.25z" />
<glyph unicode="&#xf008;" glyph-name="uniF008" horiz-adv-x="1439" d="M0 251q0-106.5 74.25-183.25t181.75-81.75q9 0 9 9v71.5q0 9-9 9-68.5 3.5-116.75 54.75t-48.25 120.75q0 66 45.25 115t112.25 57l28 2.5q10.5 0 10.5 9l3.5 29q8.5 86.5 73.25 145t152.25 58.5q87 0 152.5-58.5t74.5-145l4-30.5q0-10 9-10h86.5q71 0 122.75-51t51.75-121q0-69.5-48-120.75t-116.5-54.75q-10 0-10-9v-71.5q0-9 10-9 106.5 3.5 180.75 80.75t74.25 184.25q0 57.5-22.5 107 62.5 77.5 62.5 176.5 0 76-37.75 140.75t-102.25 102.25-140 37.5q-124.5 0-207-93-65.5 35-144.5 35-113 0-200.5-70.25t-112-179.25q-88.5-21-146-92.75t-57.5-163.75zM288-114.5q0-13.5 8.75-26.25t26.25-17.75q9-2 14.5-2 31.5 0 41 34l84.5 313.5q5.5 19-4.25 35.5t-28.25 20q-17.5 5.5-33.75-3.5t-21.75-27l-84.5-315q-2.5-10-2.5-11.5zM427-279q0-15 8-27.75t27.5-15.75q9-2 14-2 12.5 0 24 9.25t14.5 25.75l128 476.5q5 18.5-3.75 34.25t-26.75 21.25q-18.5 5.5-34.75-3.5t-21.25-27l-128-476.5q-1.5-13.5-1.5-14.5zM449.5 906.5q0-19 13.5-32.5l34.5-35q15.5-12 33-12 17 0 31 12.5t14 31.5q0 19.5-13 34l-34 34.5q-14.5 13.5-32 13.5-19.5 0-33.25-13.75t-13.75-32.75zM648.5-116q0-13 8.25-25.25t24.75-17.25q9-2 13.5-2 14 0 26.25 7.75t15.75 26.25l84.5 313.5q5 18.5-3.75 34.25t-26.75 21.25q-19 5.5-34.75-3.5t-20.75-27l-84.5-315q-2.5-11.5-2.5-13zM735.5 670.5q56.5 53.5 132 53.5 78.5 0 133.5-55.25t55-134.25q0-50-27.5-98.5-77.5 77.5-186 77.5h-17.5q-22.5 93-89.5 157zM821.5 950.5q0-18.5 13.5-31.25t32.5-12.75q18.5 0 31.25 12.5t12.75 31.5v109.5q0 20.5-12.5 33.5t-31.5 13q-20 0-33-13.25t-13-33.25v-109.5zM1116.5 829q0-19.5 14.5-31.5 11-12.5 29.25-13.75t33.25 13.75l77 76.5q14 13.5 14 33.5 0 19.5-13.25 32.5t-32.75 13q-16.5 0-31-13.5l-76.5-77q-14.5-13.5-14.5-33.5zM1160 197q0-19 13-33.5l34.5-33.5q14-11 32-11l1-1q18 0 31 13t13 32.5q0 19-14 31l-33 35q-14.5 13-33 13t-31.5-13.25-13-32.25zM1237.5 534.5q0-19 14-31.5 14-14 33-14h108.5q19 0 32.5 13.5t13.5 32q0 19-13.5 32.75t-32.5 13.75h-108.5q-19 0-33-13.75t-14-32.75z" />
<glyph unicode="&#xf009;" glyph-name="uniF009" horiz-adv-x="1434" d="M0 251.5q0-106.5 74.25-182.75t181.25-81.75q9 0 9 9v71.5q0 9.5-9 9.5-68 3.5-115.5 54.25t-47.5 120.25q0 67 44.75 115.5t112.25 56.5l26.5 2q10.5 0 10.5 9.5l3 28.5q8.5 86.5 73.25 144.75t152.75 58.25q87.5 0 152.5-58.25t73-144.75l4-30.5q0-9.5 9.5-9.5h89q70 0 121-51t51-121q0-68-47.75-118.5t-115.25-56q-9 0-9-9.5v-71.5q0-9 9-9 70 2 128 38.25t91.25 96 33.25 130.25q0 57-22 104.5 60.5 75 60.5 175 0 57-22 108.75t-59.5 89.25-89.25 59.5-108.75 22q-120.5 0-203-88.5-63.5 34-145.5 34-113 0-199.75-69.75t-110.25-178.75q-90-20.5-147.75-92t-57.75-164zM289-105.5q0-14.5 8.5-28.5t24-19q15.5-5.5 32.75 3.25t23.25 29.25l13.5 56q5.5 16.5-3.75 33.25t-27.25 22.25q-20 5-36-4.5t-19.5-28.5l-15-53q-0.5-3.5-0.5-10.5zM358.5 146q0-30.5 34-42 17.5-6 34 2.75t22 28.25l13 55q5.5 16.5-3.5 33t-27 22.5q-19.5 5-35.5-4.25t-19.5-27.75l-16-54.5q-1.5-6.5-1.5-13zM423.5-274.5q0-13 9-26.5t26-19q0.5 0 5.25-0.75t7.75-0.75q11 0 19.5 4 15 6.5 22 31l14.5 53q5.5 18.5-3.75 34.75t-27.25 21.25q-18.5 5.5-34.75-3.75t-21.25-27.25l-15-54.5q-2-8-2-11.5zM448 902.5q0-20 13.5-33l35-34.5q27-27 62.5 0 13 14 13 32.5t-13 32.5l-33.5 35q-13 13-32 13-18.5 0-32-13.25t-13.5-32.25zM495.5-19q0-13.5 8.5-27t25-18.5q18.5-5.5 34 2.5t21.5 30l13 54q5.5 18.5-3.25 34.75t-26.75 21.75q-20 5.5-36.25-4.25t-19.75-28.25l-15-55q-1-3-1-10zM644-111q2-30 33.5-44l13.5-2q13 0 25.25 8.5t17.25 26.5l15.5 54q5 19-4.75 35.25t-28.25 19.75q-16.5 5.5-33-3.75t-22-27.25l-14.5-54.5q-0.5-2-1-4.5t-1-4.25-0.5-3.75zM718.5 143q0-13 8.25-25.75t24.25-17.25l13.5-1.5q15.5 0 27.5 9.5t15 25l14.5 53q5.5 19-3.5 34.75t-27 20.75q-18.5 5.5-34.25-3.25t-20.75-26.75l-16-56.5q-1.5-6.5-1.5-12zM736 669q53 51 128 51 78.5 0 134-55.25t55.5-133.75q0-45-25-94-76.5 76.5-185 76.5h-18q-21.5 90.5-89.5 155.5zM818.5 948q0-20 12.75-32.75t32.75-12.75 32.75 12.75 12.75 32.75v107.5q0 20-12.75 33t-32.75 13-32.75-13-12.75-33v-107.5zM1114.5 825.5q0-20 12-32.5 16.5-13.5 33-13.5 15 0 31.5 13.5l76.5 76.5q13 14.5 13 33.5t-13 32-31.5 13-32.5-13l-77-76.5q-12-14-12-33zM1156.5 194.5q0-18.5 14-33.5l33-34q16.5-16.5 33-16.5 15.5 0 31 16.5 14.5 14.5 14 32.75t-14 31.75l-34.5 35q-13 13-30.5 13-19 0-32.5-13.25t-13.5-31.75zM1235 531q0-18 13-31t31-13h109q20.5 0 33.5 12.5t13 31.5q0 20-13.25 33t-33.25 13h-109q-18.5 0-31.25-13.5t-12.75-32.5z" />
<glyph unicode="&#xf00a;" glyph-name="uniF00A" horiz-adv-x="1432" d="M0 249q0-69 34-128.5t92.75-95.5 128.25-38q9 0 9 9v71q0 10-9 10-68 3.5-116.25 54.25t-48.25 117.75q0 66 45.25 115t111.75 57l28 3q9.5 0 9.5 10l4 27q8.5 87.5 72.75 145.75t151.75 58.25q87 0 152.25-58.25t73.75-144.25l4-31q0-9 9-9h86q72 0 123-51.25t51-122.25q0-67-48.25-117.75t-115.75-54.25q-10 0-10-10v-71q0-9 10-9 106 3.5 180 80t74 182q0 60.5-23 108.5 63 75.5 63 176 0 75-37.5 139.25t-102 101.75-139.5 37.5q-123 0-206.5-92.5-65 35-143.5 35-112.5 0-199.5-69.75t-111.5-178.25q-89.5-22-146-93.5t-56.5-164zM338.5 33q0-19 12.75-32.5t31.25-13.5 31.25 13.5 12.75 32.5q0 18-12.75 31t-31.25 13-31.25-13-12.75-31zM338.5-160.5q0-16.5 13-30.5 14-13 31-13 19 0 31.5 12.5t12.5 31q0 19-12.75 31.5t-31.25 12.5-31.25-12.5-12.75-31.5zM447.5 902.5q0-19.5 13-31.5l35-35q13-13 28.5-13.5 16.5-2.5 32.5 11.75t16 33.75-13 34l-34 32.5q-12 13.5-31 13.5-20 0-33.5-13.25t-13.5-32.25zM508-69.5q0-18 13-32 13-13 31-13 19 0 32.25 13t13.25 32q0 18.5-13.25 31.75t-32.25 13.25q-18 0-31-13.25t-13-31.75zM508 122.5q0-18 13-31t31-13q19 0 32.25 12.75t13.25 31.25-13.25 31.5-32.25 13q-18 0-31-13t-13-31.5zM508-264.5q0-17.5 13-30.5 13.5-13.5 31-13.5 19 0 32.25 12.5t13.25 31.5-13.25 32.25-32.25 13.25q-17.5 0-30.75-13.5t-13.25-32zM680 33q0-19 13-32.5t31.5-13.5 31.25 13.5 12.75 32.5q0 18-12.75 31t-31.25 13-31.5-13-13-31zM680-160.5q0-17 12.5-30.5 14-13 32-13 19 0 31.5 12.5t12.5 31q0 19-12.75 31.5t-31.25 12.5q-19 0-31.75-12.75t-12.75-31.25zM732 669q55 53 131.5 53 77.5 0 132.5-55.5t55-133q0-50-27-98-76.5 76.5-185.5 76.5h-17q-23.5 93.5-89.5 157zM817.5 947q0-18.5 13.5-31t32.5-12.5 31.5 12.5 12.5 31v109q0 19-12.75 32.5t-31.25 13.5-32.25-13.75-13.75-32.25v-109zM1111.5 826q0-18.5 13.5-31.5 12-12.5 29.75-13.75t33.25 13.75l76.5 76.5q14 14 14 32.5 0 19-13.75 32.5t-32.25 13.5q-17.5 0-31-13.5l-76.5-78q-13.5-12.5-13.5-32zM1154.5 197q0-20 13-33l34-33.5q19.5-13 34-13 16.5 0 29.75 13.75t13.25 32.75q0 18-14 31l-33 34.5q-14 13-32.5 13t-31.5-13.25-13-32.25zM1231.5 533.5q0-19 14-31.5 13.5-14.5 33-14.5h108q18.5 0 32 13.5t13.5 32.5-13.5 32.25-32 13.25h-108q-19 0-33-13.5t-14-32z" />
<glyph unicode="&#xf00b;" glyph-name="uniF00B" horiz-adv-x="1432" d="M0 251q0-69.5 34-129.25t92.5-95.75 128-39q9.5 0 9.5 9v71q0 10-9.5 10-68 3.5-116 54.25t-48 119.75q0 66 45 114.75t111.5 56.75l28 1.5q10 0 10 9.5l4 29q8.5 86.5 72.75 144.5t151.75 58q86 0 151.25-58.25t74.75-144.25l3.5-31q0-9 9-9h86.5q70.5 0 122.25-51t51.75-120.5q0-69-48-119.75t-116.5-54.25q-9.5 0-9.5-10v-71q0-9 9.5-9 69.5 2 128 38.25t92 96.25 33.5 129.5q0 59-22 106.5 62 76 62 176 0 75.5-37.5 139.75t-101.5 101.5-139 37.25q-124 0-206.5-92.5-65.5 35-143.5 35-112.5 0-199.5-69.75t-111.5-178.25q-88-21-145.25-92.5t-57.25-163zM315 204q0-30.5 22.5-52t54-21.5q32 0 53.5 21.25t21.5 52.25q0 19.5-18.75 53.5t-34.75 53q-17 18-21.5 22.5l-19-21.5q-21.5-23-39.5-55t-18-52.5zM447.5 903.5q0-20.5 13-32.5l34.5-35q33.5-25 64.5 0 13 15.5 13 34t-13 31.5l-34 34.5q-15 13.5-32.5 13.5-19.5 0-32.5-13.5t-13-32.5zM473.5-7q0-52.5 36.25-88.25t87.75-35.75q52 0 88.5 36.5t36.5 87.5q0 43-43 105-37 48.5-68 79.5-6.5 4.5-14 12l-12.5-12q-28.5-26-68-78.5-43.5-60.5-43.5-106zM552 346q0-20 15.25-34.5t36.75-14.5q20.5 0 35 14.5t14.5 34.5q0 33-49.5 85.5l-13-13.5q-14.5-16-26.75-37.25t-12.25-34.75zM732 669q53 53 131.5 53 78 0 132.75-55t54.75-133.5q0-47-27.5-98-77.5 76.5-185 76.5h-17.5q-23 93-89 157zM817.5 949.5q0-19 13.75-32.5t32.25-13.5 31 13.5 12.5 32.5v108.5q0 19-12.25 31.5t-31.25 12.5-32.5-12.5-13.5-31.5v-108.5zM1111.5 826q0-19.5 13.5-31.5 14-13 30-13 14 0 32.5 13l76.5 76.5q14.5 14.5 14.5 33 0 19.5-13.5 32.5t-32.5 13q-17.5 0-31-13.5l-76.5-76.5q-13.5-13.5-13.5-33.5zM1154.5 198q0-20 12.5-34l34.5-31q11.5-14.5 31.5-14.5 19.5 0 31 14.5 14.5 13 14.5 31 0 17.5-14.5 31l-32.5 34.5q-14 13-32.5 13-19 0-31.75-13t-12.75-31.5zM1231.5 533.5q0-18 13.5-31 14-13 33.5-13h108q19 0 32.25 12.75t13.25 31.25q0 19-13.5 32.25t-32 13.25h-108q-19 0-33-13.5t-14-32z" />
<glyph unicode="&#xf00c;" glyph-name="uniF00C" horiz-adv-x="1271" d="M0 436q0-21.5 15-35.5t38.5-14h90q21.5 0 36.75 14.25t15.25 35.25q0 23-15 38t-37 15h-90q-23.5 0-38.5-14.75t-15-38.25zM94.5 106q0-77.5 56.5-134.25t134-56.75h366q77.5 0 132.75 56t55.25 135q0 38.5-11 65.5 66.5 42.5 105.25 113.25t38.75 151.25q0 65-25.5 124.25t-68.25 102-102 68.25-123.75 25.5q-87.5 0-161.25-43t-116-116.5-42.25-160.5v-18q-80-45.5-105.5-133-60.5-19-96.75-67.5t-36.25-111.5zM177.5 861.5q0-22.5 14-36l86-90q37.5-28.5 75 0 15 15 15 37.5 0 21.5-15 37.5l-88 87.5q-17 15.5-37 15.5-22.5 0-36.25-15t-13.75-37zM200 106q0 33.5 21.5 57.5t54.5 27l33 4.5q10.5 0 10.5 12l5 30q5.5 46 39 77t79 31q46.5 0 80.75-31t39.75-77l4.5-34.5q5-12 13-12h70.5q34.5 0 59.75-25t25.25-59.5q0-36-25.25-61.5t-59.75-25.5h-366q-36 0-60.5 25.5t-24.5 61.5zM436 447q5.5 87.5 67.5 147t149 59.5q89 0 151.5-63.5t62.5-154q0-56-27.25-103.75t-73.75-77.25q-47 39-108.5 39-23.5 70-82 111.5t-132.5 41.5h-6.5zM600.5 913.5q0-22 15.25-37.25t36.75-15.25q22 0 37.25 15.25t15.25 37.25v125q0 21-15.25 35.25t-37.25 14.25q-21.5 0-36.75-14.25t-15.25-35.25v-125zM937.5 101.5q0-21.5 14.5-37.5l87.5-86.5q33.5-34 75 0 14 13.5 14 36 0 21.5-14 35.5l-90 89.5q-14.5 13.5-36.5 13.5t-36.25-14.5-14.25-36zM937.5 774q0-22.5 14.5-38.5 14.5-14.5 36-14.5 22 0 36.5 14.5l90 90q14 13.5 14 36 0 22-15.25 37t-37.25 15q-21 0-36.5-15.5l-87.5-87.5q-14.5-14.5-14.5-36.5zM1075.5 436q0-21.5 15-35.5t38.5-14h90q21.5 0 36.75 14.25t15.25 35.25q0 23-15 38t-37 15h-90q-23.5 0-38.5-14.75t-15-38.25z" />
<glyph unicode="&#xf00d;" glyph-name="uniF00D" horiz-adv-x="1134" d="M0 372q0 19.5 13.5 33 14 13 32 13h109q18.5 0 30.75-13.5t12.25-32.5-12.25-32.25-30.75-13.25h-109q-18.5 0-32 13.5t-13.5 32zM152.5 2.5q0 18.5 12.5 32.5l78.5 76q12 12.5 31.5 12.5 19 0 31.75-12t12.75-30.5q0-19.5-13-34l-76-76q-32.5-25.5-65.5 0-12.5 13.5-12.5 31.5zM152.5 741q0 18.5 12.5 32.5 15.5 13 34 13 17.5 0 31.5-13l76-78.5q13-12 13-31.5 0-19-12.75-31.75t-31.75-12.75q-19.5 0-31.5 13l-78.5 76q-12.5 13.5-12.5 33zM288.5 372q0 74.5 37.5 138.75t101.75 101.75 138.75 37.5q56 0 107.5-22.25t88.75-59.5 59.25-88.75 22-107.5q0-75-37.25-139t-101.25-101.25-139-37.25-139 37.25-101.5 101.25-37.5 139zM379 372q0-78 54.75-133.25t132.75-55.25 133.25 55.25 55.25 133.25q0 77-55.25 131.5t-133.25 54.5q-77.5 0-132.5-54.5t-55-131.5zM521-42.5q0 19 13.25 32t32.25 13q19.5 0 32.5-13t13-32v-106q0-19.5-13.25-33t-32.25-13.5-32.25 13.5-13.25 33v106zM521 784v109q0 18.5 13.5 32t32 13.5 32-13.5 13.5-32v-109q0-18.5-13.25-30.75t-32.25-12.25-32.25 12.25-13.25 30.75zM815.5 81q0 18.5 12 30 12 12.5 30 12.5 19.5 0 32-12.5l78-76q13-14 13-32.5t-13-31.5q-32-25-64 0l-76 76q-12 13.5-12 34zM815.5 663.5q0 20 12 31.5l76 78.5q14 13 31.5 13 19 0 32.25-13.5t13.25-32q0-20-13-33l-78-76q-14.5-13-32-13-18 0-30 12.75t-12 31.75zM936 372q0 19 13 33 13 13 30.5 13h108q18.5 0 32.25-13.75t13.75-32.25-13.75-32-32.25-13.5h-108q-18.5 0-31 13.25t-12.5 32.25z" />
<glyph unicode="&#xf00e;" glyph-name="uniF00E" horiz-adv-x="1442" d="M0 251.5q0-89.5 53.25-160t137.75-94l-35-90.5q-4-11.5 7.5-11.5h113.5l-76-224.5h15.5l232.5 302q3 3.5 1 7.25t-7.5 3.75h-117l133 248q6 11.5-7.5 11.5h-158q-7.5 0-12.5-8l-57-153.5q-57.5 14.5-95 61.75t-37.5 107.75q0 67.5 45 116.5t112.5 57l27 1.5q9.5 0 12 7.5l4 31.5q8.5 86.5 73.25 145.25t152.75 58.75q87 0 152.75-58.75t74.75-145.25l4-31.5q0-9 9.5-9h86q71.5 0 123-51.25t51.5-122.25q0-69.5-47.75-120.75t-116.25-54.75q-10.5 0-10.5-9.5v-71.5q0-9 10.5-9 70.5 2 129.25 38.25t92.75 96.5 34 130.75q0 58.5-23 107.5 61 77 61 175.5 0 76-37.75 140.75t-102.5 102.5-140.75 37.75q-57.5 0-111.75-24t-93.75-66.5q-64.5 34.5-145 34.5-113.5 0-201.25-70.25t-112.25-179.75q-88.5-20.5-146.25-93t-57.75-165zM436.5-277.5q0-12 8.5-25t24.5-18q9-2 13.5-2 12 0 20.5 4 17 6.5 23 30.5l14.5 55q5 20-4.5 35.75t-28.5 19.75q-16.5 5.5-33-4t-22.5-27.5l-13.5-55.5q-2.5-11-2.5-13zM449 907q0-18.5 13.5-32l34.5-35q12.5-12.5 29.5-14 16.5-2.5 32.5 12t16 34q0 18.5-13.5 32l-33.5 35q-13 13-32 13-20 0-33.5-13t-13.5-32zM508-21.5q-0.5-13 7.5-25.25t25.5-17.25q17-5.5 33.25 3.25t22.25 29.75l16 55q5.5 17.5-4.25 33.75t-28.75 21.75q-18 5.5-34.25-3.75t-21.75-28.25l-13-56q-2.5-11-2.5-13zM659-111q0-11.5 5.5-21 10.5-17 29-23 9-3 15-3 10 0 16.5 4 16 6 24 32l13.5 54q5.5 19-3.5 34.75t-27 20.75q-18.5 5.5-34.75-3.5t-21.75-27l-15-55.5q-1.5-7-1.5-12.5zM732 146q0-14 8.75-26.75t26.25-17.75q13.5-4.5 32.5 2.5 16 7 23 30.5l14.5 53.5q5 20-4.25 35.75t-28.25 19.75q-18 5.5-34-3.25t-21.5-26.75l-15.5-56.5q-1.5-10.5-1.5-11zM737.5 671q53.5 51.5 130.5 51.5 78.5 0 133.75-54.75t55.25-133.25q0-52.5-25-96.5-77 77-187.5 77h-16.5q-23.5 95-90.5 156zM822.5 952q0-19 13.25-32.5t32.25-13.5 31.75 13.25 12.75 32.75v110q0 19.5-12.75 32.75t-31.75 13.25-32.25-13.5-13.25-32.5v-110zM1120 830q0-19.5 12.5-32 11-12.5 29.25-13.75t33.75 13.75l77 77q14 13 14 32t-14 32q-13 14-32 14-18.5 0-31-14l-77-77q-12.5-12.5-12.5-32zM1161.5 194.5q0-18.5 13.5-32l34.5-33.5q14.5-13.5 33-13.5l1-1q17.5 0 29 14.5 14 13 14 32 0 18.5-14 32.5l-33 33q-14.5 14.5-32.5 14.5-19 0-32.25-13.75t-13.25-32.75zM1239.5 534.5q0-19.5 14-31.5 12.5-14 32-14h110q19 0 32.5 13.25t13.5 32.25-13.25 31.75-32.75 12.75h-110q-19.5 0-32.75-12.75t-13.25-31.75z" />
<glyph unicode="&#xf010;" glyph-name="uniF010" horiz-adv-x="1438" d="M0 250.5q0-88.5 52.5-158t137-95l-34-90.5q-3.5-11 7.5-11h113l-66.5-210.5h15.5l222.5 287.5q3 3.5 0.75 7.25t-7.75 3.75h-116l132 247q5.5 11.5-7.5 11.5h-157q-7.5 0-12.5-7.5l-57-153.5q-57 14.5-94.5 62t-37.5 107q0 66.5 45.25 115.5t112.25 57l28 3.5q10.5 0 10.5 9.5l3 27q8.5 86.5 73.5 145t152.5 58.5q87 0 152.25-58.5t74.75-145l3-31q0-9 9.5-9h86q72.5 0 123.75-50.5t51.25-122q0-68-47.5-117.75t-117-55.25q-10.5 0-10.5-9.5v-73q0-9 10.5-9 106.5 3.5 180.75 80.5t74.25 184q0 59-23 107 63 76.5 63 177 0 75-37.75 139.5t-102.25 102.25-140 37.75q-123.5 0-207-92.5-64.5 34.5-144 34.5-113 0-200.5-70t-112-179q-88.5-20.5-145.75-92.25t-57.25-164.25zM431.5-260.5q-1-12 7.25-23.5t24.75-17.5q5.5-1.5 11-1.5 13.5 0 27 8t18 25l122 457q5 18.5-3.5 34.25t-26 21.25q-18.5 5.5-34.75-3.5t-21.25-27l-123-458.5q-1.5-6.5-1.5-14zM449 905q0-19 13.5-31.5l34-35q13.5-13.5 32.5-13.75t30.5 13.75q15 12 15 32 0 19-13.5 31.5l-33.5 35q-14 13-32.5 13-20 0-33-13t-13-32zM653-97.5q0-9.5 6-20 10-16 26.5-23 5.5-2.5 16-2.5 12 0 17.5 3 16 6.5 22 31l79.5 296q5 19-4 34.5t-27 21q-18.5 5.5-34.25-3.5t-20.75-27l-79.5-297.5q0-2-1-6t-1-6zM734.5 670q53.5 51.5 132 51.5 78 0 133.25-54.5t55.25-132.5q0-50-27.5-98.5-79.5 78.5-186.5 78.5h-16.5q-24.5 94-90 155.5zM820.5 950q0-18.5 13.75-32.25t32.25-13.75q19 0 31.5 13.5t12.5 32.5v109.5q0 19-12.5 32.5t-31.5 13.5q-18.5 0-32.25-13.5t-13.75-32.5v-109.5zM1115.5 828q0-19.5 14-32 11.5-13.5 30.25-13.5t32.25 13.5l77 77.5q14 12.5 14 31.5t-13.5 32.5-32.5 13.5q-17.5 0-30.5-14l-77-77q-14-12.5-14-32zM1158.5 195.5q0-18 13-32l35-33.5q10-11.5 29-13l0.5-0.5q1 0 2.5-0.25t2.5-0.25q15 0 28 14 14 13 14 32 0 18.5-14 32.5l-34.5 32.5q-13 14.5-31 14.5-18.5 0-31.75-13.5t-13.25-32.5zM1236 534.5q0-18.5 14.5-32 14.5-14.5 32.5-14.5h108.5q18.5 0 32.25 13.75t13.75 32.75q0 18.5-13.5 31.25t-32.5 12.75h-108.5q-20 0-33.5-12.75t-13.5-31.25z" />
<glyph unicode="&#xf011;" glyph-name="uniF011" horiz-adv-x="1214" d="M0 31.5q0 20 13.5 33.5 14 13 32 13h289q59 0 100.75-42.25t41.75-101.25q0-59.5-41.5-101.25t-101-41.75-101.5 42q-12.5 12.5-12.5 32t12.25 32.25 32.25 12.75q18.5 0 32.5-13 16-15.5 37-15.5t36.5 15.25 15.5 37.25q0 21-15.5 36.25t-36.5 15.25h-289q-18.5 0-32 13.25t-13.5 32.25zM0 193.5q0 19.5 13.5 33 14 13 32 13h562.5q21 0 36.5 15.5t15.5 37-15.5 36.75-36.5 15.25q-22 0-36.5-15-14.5-12-34-12t-31.75 12.25-12.25 31.75q0 20 12 32.5 40.5 40.5 102.5 40.5 59.5 0 101.25-41.5t41.75-100.5-41.75-100.75-101.25-41.75h-562.5q-19 0-32.25 12.75t-13.25 31.25zM114.5 319.5q0-6.5 8.5-6.5h77q6.5 0 11.5 8 18 43.5 56 72t85 32l28 4q10.5 0 10.5 9l4 27.5q8.5 86.5 73.25 145.25t152.75 58.75q88.5 0 153.5-58.25t74-145.75l4-31.5q0-9 9-9h86.5q72.5 0 124.25-51t51.75-122.5-51.75-122.5-124.25-51h-368.5q-10 0-10-9v-74q0-9 10-9h368.5q72.5 0 133.75 35.5t97 96.75 35.75 133.25q0 72.5-35.75 133.5t-97 96.5-133.75 35.5h-16.5q-25 106.5-111.75 174.5t-198.75 68q-113 0-200-70.25t-110.5-179.75q-68.5-16-121.5-65.75t-73.5-117.75v-2q-1-2.5-1-4.5z" />
<glyph unicode="&#xf012;" glyph-name="uniF012" horiz-adv-x="1270" d="M0 30q0 19.5 13.5 32.5t33.5 13h478.5q19 0 31.5-12.75t12.5-32.75q0-19-12.75-31.75t-31.25-12.75h-478.5q-20 0-33.5 12.75t-13.5 31.75zM140.5 193q0 19 14.5 32 11.5 12 31.5 12h480q18.5 0 30.75-12.5t12.25-31.5-12.25-32.5-30.75-13.5h-480q-18.5 0-32.25 13.75t-13.75 32.25zM173.5 317.5q0-7.5 9-7.5h76q7.5 0 12.5 7.5 18 43.5 55.5 72t84 32l29 3.5q9 0 9 9.5l3.5 27.5q9 87 74.25 145t153.25 58q87 0 151-57.25t75-144.25l4-31.5q0-8.5 9.5-8.5h85.5q72.5 0 123.75-51t51.25-123.5q0-70-52-121.75t-123-51.75h-367.5q-9.5 0-9.5-9v-71.5q0-9.5 9.5-9.5h367.5q54 0 103.25 20.75t84.5 56.25 56.25 84.25 21 102.25q0 72-35.25 132.75t-96.25 96-133.5 35.25h-16.5q-26 107.5-112.25 175.75t-196.25 68.25q-113.5 0-200.75-70.75t-110.75-180.75q-69-15.5-121-64.75t-72.5-118.25v-1q-1-2-1-4zM234.5-135q0 19.5 14 32 12 12.5 31.5 12.5h479.5q19.5 0 32.75-12.75t13.25-31.75-13.5-32.5-32.5-13.5h-479.5q-18.5 0-32 13.5t-13.5 32.5z" />
<glyph unicode="&#xf013;" glyph-name="uniF013" horiz-adv-x="1185" d="M0 213.5q0 79.5 49.5 141.25t127 79.25q20.5 94 95 153.75t171.5 59.75q94.5 0 168.75-58.25t96.25-149.25h14.5q94 0 160.5-66.25t66.5-160.25-66.5-160.75-160.5-66.75h-495q-46 0-88.25 18t-72.75 48.5-48.5 72.75-18 88.25zM77.5 213.5q0-61 44-104.75t106-43.75h495q62 0 106 43.75t44 104.75-44 104.5-106 43.5h-74q-8 0-8 8l-3.5 26q-8 75.5-63.25 125.25t-130.75 49.75-131.25-50-62.75-125l-3.5-22.5q0-8-8.5-8l-24-3.5q-57.5-5-96.5-47.5t-39-100.5zM549.5 678.5q-8-7.5 4-11 34.5-15 57.5-29.5 9-2.5 12 1.5 48.5 46 113 46t111.75-43.25 52.75-106.75l5-34h75.5q52 0 89.5-37.25t37.5-88.75q0-48-33-83.5t-81.5-41q-8 0-8-8.5v-60.5q0-8.5 8-8.5 80.5 5 136 63.5t55.5 138.5q0 84.5-59.75 144.25t-144.25 59.75h-8q-21 80-87.75 131.75t-149.25 51.75q-113 0-186.5-84.5z" />
<glyph unicode="&#xf014;" glyph-name="uniF014" horiz-adv-x="1321" d="M0 29.5q0 19.5 13.5 32.5t33.5 13h995.5q20 0 32.75-12.75t12.75-32.75q0-18.5-13.25-31t-32.25-12.5h-995.5q-20 0-33.5 12.5t-13.5 31zM139.5 197q0 19.5 14 32 12 12 31.5 12h996q18.5 0 31-12.75t12.5-31.25q0-19-12.5-32.25t-31-13.25h-996q-19 0-32.25 13.5t-13.25 32zM146.5 324q0-7 8-7h76.5q5 0 10.5 8.5 19 41.5 56.75 68t82.75 30l29.5 4q9 0 9 9.5l3.5 26.5q8.5 86.5 73.25 144.25t151.75 57.75q86.5 0 150.75-57t73.25-143l4-30.5q0-9 10.5-9h85q51.5 0 93.75-27.5t62.75-73q5.5-8.5 11-8.5h76.5q9.5 0 7.5 12-23.5 82-93 134t-158.5 52h-17q-26.5 106.5-111.75 174.25t-194.75 67.75q-112 0-199-70.25t-111.5-179.25q-68-16-119.25-64.5t-71.25-116v2q-0.5-1.5-0.5-5zM232.5-134q0 19 14 31.5 12 12 32 12h996.5q19 0 32.25-12.5t13.25-31q0-19-13.5-32.5t-32-13.5h-996.5q-18.5 0-32.25 13.75t-13.75 32.25z" />
<glyph unicode="&#xf015;" glyph-name="uniF015" horiz-adv-x="1105" d="M0 250.5q0-106.5 74.25-183t181.25-81.5q9 0 9 9v71.5q0 9-9 9-68.5 3.5-116.5 54.5t-48 120.5q0 66 45 115t111.5 57l28.5 1.5q10.5 0 10.5 10l3 28.5q8.5 86.5 73.25 144.75t152.25 58.25q87 0 152-58.25t74-144.75l4-31q0-9 9.5-9h86q71 0 123-51t52-121q0-69.5-48.25-120.5t-116.25-54.5q-10.5 0-10.5-9v-71.5q0-9 10.5-9 69.5 2 128 38t92.25 96.25 33.75 130.25q0 71.5-35.5 131.75t-96.5 95-132.5 34.75h-17q-26 107-112.25 175t-196.25 68q-112.5 0-200-69.75t-112-178.75q-88.5-20.5-145.75-92.25t-57.25-163.75zM290.5-133.5q7.5-17 24.5-24.5 16-8 33.25-1t23.75 24q8 17.5 1.25 34.25t-24.25 23.25q-16 8.5-32.75 1.5t-24.75-25q-7.5-13-1-32.5zM324 17q0-12.5 8.25-24.25t24.75-17.25q15.5-9 33-0.75t23.5 31.75l48 180.5q5 20-4.25 35.75t-28.25 19.25q-6.5 1.5-13 1.5-13 0-25.25-8t-17.25-23.5l-47-181q-2.5-11.5-2.5-14zM423.5-281q0-9.5 3-15.5 7-17.5 24-24 7.5-4 17.5-4 5 0 16 3 17.5 6.5 25.25 24t-0.25 35-23.75 24.5-33.25 0q-15-6.5-21.75-19t-6.75-24zM462.5-142q0-29.5 33.5-39 9-2 13-2 12 0 20.5 4 16.5 6.5 22.5 30.5l89 335.5q5 19-3.25 34.5t-26.25 20.5q-6.5 1.5-14.5 1.5-13 0-25.75-8t-15.75-23.5l-91-338q-2-11-2-16zM645.5-117.5q0-9.5 4-17 6.5-15.5 23.5-23.5 9-3.5 18.5-3.5 5 0 16 3 17 6.5 24.5 23.5 6 17.5-0.5 33.5t-22.5 24q-18 8.5-34.75 1.5t-24.75-25q-4-7.5-4-16.5zM684 19.5q0-11.5 8.5-24t24-17.5q12.5-2.5 14.5-2.5 7.5 0 19.5 5.5 16 7.5 21.5 28l48 178q1.5 13.5 1.5 14 0 12.5-8.25 24.5t-24.25 16.5q-7 1.5-14 1.5-13 0-25-7.75t-16.5-23.75l-48-179z" />
<glyph unicode="&#xf016;" glyph-name="uniF016" horiz-adv-x="751" d="M0-155h21l367 543q7.5 14.5-8 14.5h-151.5l159.5 290.5q7 14.5-10.5 14.5h-203q-8.5 0-15.5-9.5l-148-394.5q-2-14.5 10-14.5h146.5zM453.5 182.5h14.5l278.5 409q4 6.5 2 10.5t-9 4h-112l116.5 215q9.5 16-9.5 16h-146q-10.5 0-16-10l-111-292.5q-2.5-7 0.5-11t10-4h109z" />
<glyph unicode="&#xf017;" glyph-name="uniF017" horiz-adv-x="1105" d="M0 247.5q0-105.5 74.5-182t180.5-80q9.5 0 9.5 9v71q0 9.5-9.5 9.5-67.5 3.5-116 54.25t-48.5 118.25q0 67 45.25 116.75t111.75 55.25l28 4q10 0 10 9.5l4 26.5q8 87.5 72.75 146.5t152.75 59q86.5 0 151.5-58.5t74.5-144.5l3.5-31q0-9.5 10-9.5h85.5q72 0 123.5-51.5t51.5-122.5q0-67.5-48.25-118.25t-116.25-54.25q-10.5 0-10.5-9.5v-71q0-9 10.5-9 106.5 3.5 180.25 79.75t73.75 182.25q0 71.5-35.5 132.25t-96.5 96-132.5 35.25h-16.5q-26.5 107-112.5 175.25t-196 68.25q-112.5 0-200-70t-112-178.5q-90-23-146.5-94.25t-56.5-164.25zM288.5-127q0-13.5 8.75-27t25.25-18.5q18.5-5.5 34 2t21 30l7.5 32.5q4 18-5 33.75t-27.5 21.25q-18 5.5-34.25-4t-21.25-28.5l-7.5-31.5q-1-3-1-10zM329 27.5q0-17 13.5-30.5 12.5-13.5 30-13.5 19 0 32 12.75t13 31.25-13 31.25-32 12.75q-18.5 0-31-12.5t-12.5-31.5zM361.5 149q-1-12.5 7.25-24.25t25.75-17.25q16.5-5 33 3.75t22 27.25l15 48q6 19.5-3.5 34.75t-29 20.75q-17.5 5.5-33.75-3.5t-21.75-26.5l-13-49q0-1.5-1-6.25t-1-7.75zM423.5-293.5q0-14 8.25-26.5t25.75-17.5q6.5-1.5 13.5-1.5 34 0 42 32.5l7.5 31.5q5 20.5-4.5 36.5t-28 19.5q-17 5.5-33.5-3.75t-22-27.25l-7.5-31.5q-1.5-7-1.5-12zM465-138.5q0-17.5 13.5-31 13-13 30.5-13 19 0 31.5 12.5t12.5 31.5q0 18.5-12.5 31t-31.5 12.5-31.5-12.5-12.5-31zM498.5-17.5q-1-12 7-25t24-16q18.5-5 34 3t22 30l14.5 48q5.5 17.5-3.75 33.5t-28.25 21.5q-17.5 5.5-34-4.25t-22-28.25l-12-48q-1.5-6.5-1.5-14.5zM645.5-132q0-13 8.25-25.5t24.75-17.5q2.5 0 7.25-1t7.25-1q32.5 0 40.5 35l7.5 32q5.5 17-3.5 33.5t-27 22q-20 5-36.25-4.25t-21.75-28.25l-5-31.5q0-2-1-6.5t-1-7zM685 25.5q0-18 13.5-30.5 12-13 30.5-13 19 0 31.5 12.5t12.5 31q0 19-12.5 31.5t-31.5 12.5-31.5-12.5-12.5-31.5zM717.5 149q0-13.5 8.75-25.75t26.25-17.25q1.5 0 6.5-1t7.5-1q8 0 19 5 17 9 22 28l13 48q5 18-4 33.75t-27 21.25q-18.5 5.5-34-3t-21-27l-15-48.5q0-2-1-6.25t-1-6.25z" />
<glyph unicode="&#xf018;" glyph-name="uniF018" horiz-adv-x="1107" d="M0 249q0-89.5 52.25-159.25t136.25-95.25q7-1.5 13 4l62 76.5q-71 0-121.5 51t-50.5 123q0 67.5 45 117.25t112 55.25l28 3.5q8.5 0 8.5 7l4 29.5q10 88 74.25 145.75t151.75 57.75q88 0 153.25-58.25t73.25-145.25l4-31q2-9 11.5-9h86.5q72 0 122.5-50.5t50.5-122q0-66.5-45-116.25t-110.5-57.75q-9.5 0-26-3-15.5-1.5-22-12l-126-149q-11.5-14.5-8.75-33.5t16.75-30.5q8.5-10 30-10 21 0 32.5 18.5l113 130q99.5 10 168 86t68.5 177.5q0 54-20.75 103t-56 84.25-84 56.25-102.75 21h-17q-26.5 106-113.25 173.75t-198.25 67.75q-74.5 0-140.25-31.75t-110.75-88.5-60.5-129.25q-90-20-146.75-91.75t-56.75-164.75zM180.5-178.5q0-5 3-16 7-17 23.5-23.5 17.5-8 35.5-1t24.5 24q8 17.5 1 34.5t-24.5 23q-18 8.5-34.5 1.5t-24.5-25q-4-8.5-4-17.5zM279-48.5v-5.5q1.5-18 16-30 18-10 33-10 18 0 32.5 17.5l124 147.5q11.5 14 10.5 35-2 17-14.75 28.5t-27.75 11.5q-4.5 0-7.5-0.5-18.5-3.5-30-17.5l-126-148q-10-11.5-10-28.5zM320-300q0-9.5 4-17 6.5-17 23.5-25 8.5-4 17.5-4 10 0 16.5 4 18.5 7.5 25 22 8 17.5 1.25 35.5t-23.75 24.5q-17.5 8-35.75 1t-24.25-24q-4-7.5-4-17zM409-175v-6q2-17.5 16.5-29.25t29.5-11.75q18 0 33.5 17.5l232 279.5q9 10 9 27.5v6.5q-2 18-14.5 28.5t-28 10.5h-7q-18.5-1-29.5-16.5l-232-277.5q-9.5-14-9.5-29zM596.5-236.5q0-7 3-16 7-17.5 24.5-25 11-3 16.5-3 11.5 0 18 4 18 7 24.5 22.5 8 13.5 1 35.5-6.5 16.5-23.5 23.5l-19 5q-7-1.5-17-4-17.5-6.5-24-23.5-4-9.5-4-19z" />
<glyph unicode="&#xf019;" glyph-name="uniF019" horiz-adv-x="1106" d="M0 250q0 92 57.5 163.75t145.5 92.25q25 109 112.5 179t200 70q110 0 196.25-68.25t112.25-175.25h17q71.5 0 132.5-34.75t96.5-95 35.5-131.75q0-70-33.75-130.25t-92.25-96.25-128-38q-10.5 0-10.5 9v71q0 9.5 10.5 9.5 68 3.5 116.25 54.5t48.25 120.5-52 120.75-123 51.25h-86q-9.5 0-9.5 9l-4 31q-9 86.5-74.25 144.75t-151.75 58.25q-87.5 0-152.25-58.25t-72.75-144.75l-4-28.5q0-10-10.5-10l-28-1.5q-66.5-8-111.75-57t-45.25-115q0-69.5 48-120.5t116.5-54.5q9 0 9-9.5v-71q0-9-9-9-107 5-181.25 81.5t-74.25 183zM285.5-106.5q0 3.5 2 10.5l87 307.5q5 15.5 17.25 23.5t24.75 8q5.5 0 13-1.5 19-3.5 28.75-19.5t4.25-35.5l-87-305.5q-10-34-44-34-3 0-6 1-4.5 1.5-5.5 1.5-17.5 5-26 17.75t-8.5 26.25zM425.5-256.5l130 468q3.5 15.5 16 23.5t26 8q7 0 14.5-1.5 17.5-5 26-20.75t3.5-34.25l-129.5-468.5q-3-13.5-15.5-23t-27-9.5q-7.5 0-13.5 2.5-16 4-27.5 21-9 14-3 34.5zM645.5-108q0 3 2 12l87 307.5q4.5 15.5 16.25 23.5t24.75 8q6.5 0 14-1.5 16.5-4.5 24.75-16.5t8.25-25q0-2.5-1-7.25t-1-6.25l-87-305.5q-3-15.5-15-24.75t-27-9.25l-13 2.5q-16 4.5-24.5 17.25t-8.5 25.25z" />
<glyph unicode="&#xf01a;" glyph-name="uniF01A" horiz-adv-x="1109" d="M0 249q0 92.5 58 164.5t148.5 92.5q23.5 110 110.5 180.75t200 70.75q111.5 0 198.25-68t113.25-176h18q72 0 132.5-35.25t95.25-96.25 34.75-133q0-107-73.25-183.5t-179.75-80q-9.5 0-9.5 9v71.5q0 9 9.5 9 67.5 5.5 115.5 55.75t48 118.25q0 71.5-51 123t-122 51.5h-87q-9.5 0-11.5 9.5l-4 30.5q-5.5 57-37.25 103.25t-81.75 72.5-108 26.25q-88 0-152.75-58.25t-73.25-145.25l-3.5-29q0-7.5-8.5-7.5l-28-4q-67.5-5.5-112.75-55t-45.25-117.5q0-69.5 47.25-119.75t115.75-54.25q9.5 0 9.5-9v-71.5q0-9-9.5-9-52.5 2.5-100 24t-81.75 56.5-54.25 82.75-20 100.25zM289-112q0 2.5 1 7t1 6l14.5 55q5.5 18 21.25 27.25t34.25 3.75q18-5.5 27.5-21.25t4-34.25l-13-54q-10.5-35-40.5-35-2 0-4.75 0.25t-6 0.75-5.25 0.5q-17 5-25.5 18.25t-8.5 25.75zM359.5 145q0 2 0.75 6t0.75 5l16 56q5 15.5 17 23.75t25 8.25q2 0 4.25-0.25t5-0.75 4.25-0.5q18-5.5 27.25-21.25t3.75-34.25l-13-53.5q-5.5-22-21.5-31.25t-34.5-1.25q-17.5 5-26.25 18t-8.75 26zM425-279q0 2.5 1 6.75t1 6.25l15.5 53q5 19 21.25 28.75t34.75 4.25q18-5.5 27-21.75t3.5-34.75l-13.5-55.5q-8.5-32.5-42.5-32.5-4 0-13 2-17.5 3-26.25 16.25t-8.75 27.25zM496.5-24.5q0 4.5 2 13.5l14.5 55q5.5 18 21.75 27.25t34.75 3.75q18-5 27-20.75t3-34.75l-13-53q-10-36-38.5-36-3.5 0-16.5 3-17.5 3.5-26.25 15.75t-8.75 26.25zM647-114q0 5.5 1.5 13l15 53q5.5 19 21.75 28.75t33.75 4.75q18.5-5.5 28.25-21.75t4.75-33.75l-15.5-56.5q-8-32.5-42-32.5-7.5 0-14 1.5-16 3-24.5 16.25t-9 27.25zM720.5 140q0 2.5 2.5 14l16 55q3 17 15.5 25.25t26 7.25q3.5 0.5 13-1.5 17.5-4 27.5-20.5 9.5-13.5 4-34.5l-13-55q-10.5-34.5-40.5-34.5-5 0-18 3-16.5 5-24.75 16.75t-8.25 24.75z" />
<glyph unicode="&#xf01b;" glyph-name="uniF01B" horiz-adv-x="1106" d="M0 248q0 92.5 56.75 164.25t146.25 93.75q25 109 112.25 179t200.25 70q110 0 196.25-68.25t112.25-175.25h17q71.5 0 132.5-35.25t96.5-96 35.5-132.25q0-106-74-182.5t-180-80q-10.5 0-10.5 9v71q0 9.5 10.5 9.5 68 3.5 116.25 54.25t48.25 118.75q0 71-51.5 122.5t-123.5 51.5h-86q-9.5 0-9.5 9l-4 31q-9 86.5-74.25 145t-151.75 58.5q-88 0-152.75-59t-73.25-146.5l-3-26.5q0-10-10.5-10l-28-3.5q-66.5-5.5-111.75-55.25t-45.25-116.75q0-68 48.25-118.75t116.25-54.25q9 0 9-9.5v-71q0-9-9-9-107 3.5-181.25 80t-74.25 182.5zM339.5 31q0 18 12.75 31t31.25 13 31.25-13 12.75-31q0-19-12.75-32.25t-31.25-13.25-31.25 13.25-12.75 32.25zM339.5-162.5q0 19 13 32 12.5 12 31 12t31.25-12.5 12.75-31.5-12.75-31.5-31.25-12.5-31.25 12.5-12.75 31.5zM509.5-72q0 18.5 13.5 33 13 13 30.5 13 18.5 0 32.25-13.75t13.75-32.25-13.5-31.75-32.5-13.25q-18 0-31 13.25t-13 31.75zM509.5 121q0 18.5 13.5 32 14 13 30.5 13 19 0 32.5-13.25t13.5-31.75-13.5-31.25-32.5-12.75q-18 0-31 12.75t-13 31.25zM509.5-267q0 18 13.5 32.5 13 13 30.5 13 19 0 32.5-13.5t13.5-32-13.5-31.25-32.5-12.75q-18 0-31 12.75t-13 31.25zM681.5 31q0 17.5 13.5 30.75t32 13.25 31.25-13 12.75-31q0-19-12.75-32.25t-31.25-13.25q-19 0-32.25 13.5t-13.25 32zM681.5-162.5q0 17.5 13.5 32 13 12 32 12t31.5-12.5 12.5-31.5-12.5-31.5-31.5-12.5-32.25 12.75-13.25 31.25z" />
<glyph unicode="&#xf01c;" glyph-name="uniF01C" horiz-adv-x="1105" d="M0 250q0 92 57.5 163.75t145.5 92.25q24.5 109 112 178.75t200.5 69.75q110 0 196-68t112.5-175h16.5q71.5 0 132.5-34.75t96.5-95 35.5-131.75q0-107-73.75-184t-180.25-80.5q-10.5 0-10.5 9v71q0 9.5 10.5 9.5 68.5 3.5 116.5 54.5t48 120.5-52 120.75-123 51.25h-85.5q-10 0-10 9l-3.5 31q-8.5 86-73.75 144.5t-152.25 58.5q-87.5 0-152.5-58.25t-73.5-144.75l-3-29q0-9.5-10.5-9.5l-28-1.5q-65.5-3-111.25-53.5t-45.75-118.5q0-69.5 48-120.5t116.5-54.5q9 0 9-9.5v-71q0-9-9-9-107 5-181.25 81.5t-74.25 183zM316 203q0 19.5 19.5 52.75t36.5 53.75q17 19 20.5 22.5l19-21.5q20.5-22 38.25-54.25t17.75-53.25q0-31.5-21.5-52.5t-53.5-21q-31.5 0-54 21.5t-22.5 52zM475-9.5q0 22 12.75 51t31.25 54.5q14.5 20.5 35.5 44.75t32 34.75q5.5 5 13 12.5l13-12.5q30-26.5 68-78 19-26.5 31.5-55.5t12.5-51.5q0-51.5-36.25-87.75t-88.75-36.25q-51.5 0-88 36t-36.5 88zM553.5 345.5q0 33.5 52 85.5l13-13.5q14-17 25.5-37.75t11.5-34.25q0-20.5-14.75-35.25t-35.25-14.75q-21.5 0-36.75 14.75t-15.25 35.25z" />
<glyph unicode="&#xf01d;" glyph-name="uniF01D" horiz-adv-x="1106" d="M0 250q0-88.5 52.75-158.5t136.75-95.5l-34.5-89.5q-2.5-11.5 7.5-11.5h113.5l-55.5-201.5h15l211.5 278.5q3 3.5 1 7.25t-7.5 3.75h-116l132 247.5q5 11-7.5 11h-157q-7.5 0-12-7.5l-57.5-153q-57 14.5-94.25 62t-37.25 107q0 66.5 45 115.25t112 56.75l28 4q10.5 0 10.5 9l4 27.5q8 86.5 72.75 145t152.25 58.5q87 0 152.25-58.5t74.75-145l3-31q0-9.5 10-9.5h86q72.5 0 123.75-50.5t51.25-121.5q0-68-47.5-117.75t-117-54.75q-10.5 0-10.5-10v-73q0-9 10.5-9 52 1.5 99.25 23.5t81.25 57.25 54 83.5 20 100.25q0 72-35.75 132.75t-96.75 96-132.5 35.25h-17q-26.5 106.5-112.5 174t-196.5 67.5q-113 0-200.5-70t-112-179q-88-20.5-145.5-92.25t-57.5-164.25zM435-276q0-12.5 8.25-24.75t24.75-17.25q11-2.5 13.5-2.5 7 0 20 5.5 17 7.5 22.5 28l15 56q5 17.5-4.25 33.5t-28.25 21.5q-17.5 5-33.75-4.25t-21.75-28.25l-14.5-53.5q-1.5-13.5-1.5-14zM506.5-21.5q0-11.5 8.25-23.25t24.25-17.75q18-6 34 2.5t21.5 28l16 55.5q5 17.5-4.5 33.75t-28.5 21.75q-18 5-34.5-4.25t-22-27.75l-13-54q-1.5-13.5-1.5-14.5zM657-109.5q0-13.5 8.75-27t25.25-18.5q2 0 6.25-1t6.25-1q10.5 0 20 4 15 5.5 22 30.5l13.5 54q5.5 18.5-3.25 35.25t-26.75 22.25q-20 5-36.25-4.5t-19.75-28.5l-14.5-55q-1.5-4.5-1.5-10.5zM729.5 146q-0.5-12.5 8-25t26-20q6-3 14-3 8.5 0 18 4.5 16.5 8 23.5 30.5l15.5 55q1.5 10.5 1.5 11.5 0 13.5-8.75 26.25t-26.25 17.75q-2 0-6 1t-6 1q-13.5 0-26-8.25t-17.5-25.75l-14.5-54q-1.5-6-1.5-11.5z" />
<glyph unicode="&#xf01e;" glyph-name="uniF01E" horiz-adv-x="1107" d="M0 250q0-88.5 53-158.5t137.5-95.5l-35-89.5q-2.5-11.5 7.5-11.5h113.5l-52.5-229.5h15l209 306.5q3 3.5 0.75 7.25t-7.75 3.75h-116l132 247.5q5.5 11.5-7.5 11.5h-157q-7.5 0-12.5-8l-57-153q-57 14.5-94.5 62t-37.5 107q0 66.5 45.25 115.5t112.25 57l28 3.5q10.5 0 10.5 9.5l3.5 27q8.5 86.5 73.25 145t152.25 58.5q87 0 152.25-58.5t74.75-145l3.5-31q0-9 9.5-9h85.5q72.5 0 124-50.75t51.5-121.75q0-68-47.5-117.75t-117.5-55.25q-10.5 0-10.5-9.5v-73q0-9 10.5-9 106.5 3.5 180.75 80.5t74.25 184q0 72-35.5 132.75t-96.75 96-133.25 35.25h-16.5q-26.5 106.5-112.75 174t-196.25 67.5q-113 0-200.5-70t-112-179q-88.5-20.5-146-92.25t-57.5-164.25zM434.5-268q0-31.5 31-41 1 0 6-0.75t7.5-0.75q13.5 0 26.25 7.75t17.25 25.75l120 463.5q5 19-3.5 34.5t-26.5 21q-13.5 1.5-14 1.5-13 0-25.25-8t-16.75-24l-120.5-465q-1.5-7-1.5-14.5zM656-104.5q0-10.5 5.5-20 11-17.5 27-23.5 8.5-2.5 16-2.5t17 4q16.5 7 22.5 30.5l77 302.5q2.5 11.5 2.5 14.5 0 12-8.5 24t-24.5 17q-13.5 1.5-14 1.5-13.5 0-25-7.75t-16-24.25l-78-304q0-1.5-0.75-5.75t-0.75-6.25z" />
<glyph unicode="&#xf021;" glyph-name="uniF021" horiz-adv-x="1105" d="M0 325.5q0 18 12.5 30t30.5 12h644.5q17.5 0 29-11.75t11.5-30.25q0-17.5-11.5-29t-29-11.5h-644.5q-18 0-30.5 11.5t-12.5 29zM129 480q0 17.5 12.5 29.5 12 12 30 12h645q17 0 28.75-12t11.75-29.5-11.75-29.75-28.75-12.25h-645q-17.5 0-30 12.25t-12.5 29.75zM215 174q0 17 13 29 11.5 11.5 29 11.5h645.5q18 0 30-11.5t12-29-12.25-30-29.75-12.5h-645.5q-17.5 0-29.75 12.5t-12.25 30zM779.5 325.5q0 18.5 11.75 30.25t30.25 11.75h241q18.5 0 30.25-12t11.75-30q0-17.5-12-29t-30-11.5h-241q-18.5 0-30.25 11.5t-11.75 29z" />
<glyph unicode="&#xf022;" glyph-name="uniF022" horiz-adv-x="1282" d="M0 31q0-18.5 14.5-32 13.5-13.5 32.5-13.5h306q21 0 36.75-15.25t15.75-36.25q0-21.5-15.75-37t-36.75-15.5q-20.5 0-36.5 16-14.5 13-32.5 13-19 0-32-13t-13-32q0-18 13-32 42-42 101-42t100.75 41.5 41.75 101q0 59-41.75 101t-100.75 42h-306q-19 0-33-13.75t-14-32.25zM0 192q0-17.5 14.5-31 14-13 32.5-13h578.5q59 0 100.75 41.5t41.75 100.5-41.75 100.25-100.75 41.25q-61 0-101-40.5-12-12.5-12-32.5t12.25-32 31.25-12 33 12q15 15 36.5 15 20.5 0 36-15t15.5-36.5q0-21-15.5-36.5t-36-15.5h-578.5q-19 0-33-13.75t-14-32.25zM134.5 317.5q0-7 8.5-7h76.5q6.5 0 11.5 8 18 43.5 55.75 71.75t84.25 31.75l28 4q10 0 10 9l4 27.5q8.5 86.5 73.5 144.75t152.5 58.25 152.25-58 73.75-145l3.5-31q0-9.5 10-9.5h86.5q72.5 0 123.5-50.5t51-121.5-51.25-122-123.25-51h-368.5q-9 0-9-9.5v-73q0-9 9-9h368.5q71.5 0 132.25 35.5t96.25 96.5 35.5 132.5q0 70.5-36.5 132 58.5 56.5 80.5 137.5l8 36q1.5 1.5 1.5 4 0 3.5-7.5 8.5l-32 11q-67 20.5-102.25 72.5t-35.25 107.5q0 19.5 5 42l7 33q2 8-7 12l-42.5 13q-35 8.5-66.5 8.5-29.5 0-60-7t-62.75-21.75-62.75-42.5-53.5-65.25q-56.5 24-123.5 24-113 0-199.75-70t-110.25-178.5q-68.5-16-121-65.5t-72.5-117.5v-1.5q-1-1.5-1-4.5zM840 685q25 44 69 67.25t91 23.25q11 0 16.5-0.5-1-7-1-19 0-75.5 42-144.5t116-103.5q-12.5-30-40-55-71 61-168.5 61h-17.5q-21.5 100.5-107.5 171z" />
<glyph unicode="&#xf023;" glyph-name="uniF023" horiz-adv-x="1350" d="M0 29.5q0-19 13.5-31.5t33.5-12.5h501.5q19 0 31.5 12.5t12.5 31.5q0 20-12.5 32.75t-31.5 12.75h-501.5q-20 0-33.5-13t-13.5-32.5zM140.5 192q0-19 14-32 13-13.5 32-13.5h502.5q18.5 0 31.25 13.25t12.75 32.25q0 18.5-12.5 31.25t-31.5 12.75h-502.5q-19 0-32.5-12.75t-13.5-31.25zM196 317q0-7.5 9.5-7.5h76q7 0 12 7.5 18 43.5 55.5 72t84 32l29.5 4q9.5 0 9.5 9l3.5 27.5q8.5 87 73.75 145.25t153.25 58.25q87.5 0 151.5-57.5t75-144.5l4-31q0-9 9.5-9h86q72.5 0 123.5-51t51-123q0-70.5-51.75-122.25t-122.75-51.75h-368.5q-9 0-9-9v-71.5q0-9 9-9h368.5q72 0 133 35t96.5 95.75 35.5 132.75-34.5 132q57.5 51.5 80.5 137.5l9.5 36.5q0.5 1 0.5 3.5 0 6.5-8 8.5l-33 11.5q-35 10.5-62 30.5t-42.75 44.75-23.5 50.25-7.75 50.5q0 19 6 46.5l7 32.5q3.5 7.5-7 12l-44 13q-35 8.5-66.5 8.5-30 0-60.5-7t-63-21.75-62.75-42.5-52.75-65.25q-62 25.5-126.5 25.5-113 0-200.25-70.25t-110.75-180.25q-69.5-16-121.75-65.25t-72.75-117.75v-1.5q-1-1-1-4zM234.5-136q0-19.5 13.5-32 13-13.5 32-13.5h503q19 0 32.5 13.5t13.5 32-13.5 31.25-32.5 12.75h-503q-19 0-32.25-12.75t-13.25-31.25zM905.5 683.5q27.5 44 71.75 68.25t90.75 23.25q9 0 13.5-0.5v-13q0-78 42.25-148.75t115.75-105.75q-14-32-40.5-57-70.5 63-170.5 63h-17q-20 96.5-106 170.5z" />
<glyph unicode="&#xf024;" glyph-name="uniF024" horiz-adv-x="1163" d="M0 250q0-106.5 74.25-183t181.25-81.5q9.5 0 9.5 9v71.5q0 9-9.5 9-68.5 3.5-116.5 54.5t-48 120.5q0 66.5 45 115.5t112 57l28 1.5q10.5 0 10.5 9.5l4 29q8.5 86.5 73.25 145t152.25 58.5q86.5 0 152-58.5t74.5-145l4-31q0-9 9-9h86q71 0 123-51.25t52-121.25q0-69.5-48-120.5t-116.5-54.5q-10.5 0-10.5-9v-71.5q0-9 10.5-9 106.5 3.5 180.5 80.5t74 184q0 68.5-34.5 128.5 63 59.5 82.5 139.5l7 36.5q1.5 1 1.5 3.5 0 6-8.5 8.5l-30 9q-45.5 13.5-77.75 45.25t-45.75 66.5-13.5 70.25q-0.5 19.5 4 42l7.5 31q2.5 7-7.5 11.5l-42.5 13.5q-33.5 10-70 10-28 0-57.75-6.75t-62.25-21.5-63.25-42.5-53.25-65.25q-60 26-126.5 26-113 0-200.5-70t-112-179q-88.5-20.5-146-92.25t-57.5-164.25zM292-125q7-17 24.5-24 15.5-8 33-1.25t24 23.75q8 17.5 1.25 34.5t-23.75 23.5q-16 8-33 1t-25-24.5q-8-12.5-1-33zM325.5 26q0-12 8.5-24t24.5-17q20.5-8 35.75 0.25t21.25 30.25l47 171q5.5 20-4.25 35.75t-28.75 19.75q-17.5 5.5-33.5-3.5t-21.5-27l-47-171.5q0-1.5-1-6.5t-1-7.5zM425-272.5q0-10 3-15.5 7-17.5 24-24 7.5-4 17.5-4 5 0 16 3 18 6.5 25.75 24t-0.25 35-23.75 24.5-32.75 0q-15.5-6.5-22.5-19t-7-24zM464.5-131q0-30.5 34-41.5 7.5-2.5 12.5-2.5 9 0 18.5 4.5 18.5 6.5 25 30.5l88 326.5q5 19-3.75 34.5t-26.75 21q-18.5 5.5-34.75-3.5t-21.25-27l-89.5-329q-2-9-2-13.5zM648-109q0-10 3.5-16.5 6.5-16 23.5-23.5 9.5-4 18.5-4 5 0 16 3 17.5 7 24 23.5 6.5 17.5 0.25 33.75t-22.25 24.25q-17.5 8-34.75 1.25t-25.25-24.75q-3.5-6.5-3.5-17zM686.5 27.5q0-13 8.25-24.5t24.25-16.5q13.5-1.5 14.5-1.5 32.5 0 41 32.5l46.5 169q5 19-3.75 34.5t-26.75 21q-18.5 5.5-34.25-3.5t-21.25-27l-47-169.5q-1.5-7-1.5-14.5zM721 681q25 46 69.25 70t93.75 23.5q9 0 13.5-1v-16.5q0-78 41.75-146.75t115.75-103.75q-15.5-35-40-57-70.5 62.5-173.5 62.5h-17q-20.5 100-103.5 169z" />
<glyph unicode="&#xf025;" glyph-name="uniF025" horiz-adv-x="1160" d="M0 250q0-106.5 74.25-183t181.25-81.5q9 0 9 9v73q0 9.5-9 9.5-69.5 5.5-117 55.25t-47.5 117.75q0 67 45.25 116.75t111.75 55.25l28 4q10.5 0 10.5 9l4 27.5q8.5 86.5 73 144.75t152 58.25q87 0 152-58t74-145l4-31q0-9.5 9.5-9.5h86q72.5 0 123.75-50.5t51.25-121.5q0-68-47.5-117.75t-117-55.25q-10.5 0-10.5-9.5v-73q0-9 10.5-9 106.5 3.5 180.25 80.5t73.75 184q0 71.5-36.5 132 64 58 82.5 137.5l8 38.5q0.5 0.5 0.5 3.5 0 6-8.5 8.5l-31 9q-45.5 13-77.5 44t-45.5 65.75-13.5 70.25q0 19.5 5 42l7.5 33q2.5 7.5-7.5 12l-42 13q-35 8.5-66.5 8.5-29 0-59.5-7t-63.5-21.75-64-42.5-53.5-65.25q-56.5 24-124.5 24-113 0-200.25-69.75t-112.25-178.75q-88-21-145.5-92.75t-57.5-163.75zM409 2q-4-11.5 7.5-11.5h115l-70-221h16l222.5 298q3 3.5 1.5 7.25t-7 3.75h-117.5l123 224.5q5.5 11.5-7.5 11.5h-157q-6.5 0-11.5-7.5zM718.5 682q26.5 45.5 70.75 69.5t91.75 24q10 0 14.5-1v-16.5q0-77 41.5-145.5t115.5-104.5q-12.5-29.5-40-57-73.5 63-171.5 63h-17q-22.5 100-105.5 168z" />
<glyph unicode="&#xf026;" glyph-name="uniF026" horiz-adv-x="1166" d="M0 249q0-106 74.5-183t181.5-80.5q9.5 0 9.5 9v71.5q0 9-9.5 9-68 3.5-116.5 55t-48.5 119q0 68 45.25 117.75t112.25 55.25l28.5 3.5q10.5 0 10.5 9.5l3.5 27q8.5 88 73.25 146.75t152.75 58.75q87 0 152.75-58.5t74.75-145l4-30.5q0-10 9-10h86.5q72.5 0 124.25-51.5t51.75-123q0-44-22-83.25t-60.25-63.75-83.25-27q-10.5 0-10.5-9v-71.5q0-9 10.5-9 70.5 2 129 38t92.25 95.75 33.75 129.75q0 70.5-36.5 134 66.5 59.5 84.5 140l7.5 36.5q1.5 1.5 1.5 4 0 4.5-9 8.5l-29.5 9.5q-46 13.5-78.5 45.25t-46.25 66.5-13.75 68.75q-1.5 17 5 44l7 31q3.5 8-7 12.5l-42.5 13q-32.5 9-69 9-29 0-59.75-7t-63.5-22-63.75-43.25-53.5-65.75q-65 24.5-125.5 24.5-113 0-200.75-70.25t-112.75-179.75q-90-23-146.75-94.5t-56.75-164.5zM288.5-127q0-13.5 8.75-27t25.25-18.5q18.5-5.5 34 2t21 30l7.5 32.5q4 18-5 33.75t-27.5 21.25q-18 5.5-34.25-4t-21.25-28.5l-7.5-31.5q-1-3-1-10zM329 27.5q0-17 13.5-30.5 12.5-13.5 30-13.5 19 0 32 12.75t13 31.25-13 31.25-32 12.75q-18.5 0-31-12.5t-12.5-31.5zM361.5 149q-1-12.5 7.25-24.25t25.75-17.25q16.5-5 33 3.75t22 27.25l15 48q6 19.5-3.5 34.75t-29 20.75q-17.5 5.5-33.75-3.5t-21.75-26.5l-13-49q0-1.5-1-6.25t-1-7.75zM423.5-293.5q0-14 8.25-26.5t25.75-17.5q6.5-1.5 13.5-1.5 34 0 42 32.5l7.5 31.5q5 20.5-4.5 36.5t-28 19.5q-17 5.5-33.5-3.75t-22-27.25l-7.5-31.5q-1.5-7-1.5-12zM465-138.5q0-17.5 13.5-31 13-13 30.5-13 19 0 31.5 12.5t12.5 31.5q0 18.5-12.5 31t-31.5 12.5-31.5-12.5-12.5-31zM498.5-17.5q-1-12 7-25t24-16q18.5-5 34 3t22 30l14.5 48q5.5 17.5-3.75 33.5t-28.25 21.5q-17.5 5.5-34-4.25t-22-28.25l-12-48q-1.5-6.5-1.5-14.5zM645.5-132q0-13 8.25-25.5t24.75-17.5q2.5 0 7.25-1t7.25-1q32.5 0 40.5 35l7.5 32q5.5 17-3.5 33.5t-27 22q-20 5-36.25-4.25t-21.75-28.25l-5-31.5q0-2-1-6.5t-1-7zM685 25.5q0-18 13.5-30.5 12-13 30.5-13 19 0 31.5 12.5t12.5 31q0 19-12.5 31.5t-31.5 12.5-31.5-12.5-12.5-31.5zM717.5 149q0-13.5 8.75-25.75t26.25-17.25q1.5 0 6.5-1t7.5-1q8 0 19 5 17 9 22 28l13 48q5 18-4 33.75t-27 21.25q-18.5 5.5-34-3t-21-27l-15-48.5q0-2-1-6.25t-1-6.25zM721 685q25.5 46 70 71.25t92 24.75q7.5 0 16-1.5v-17q-1-78.5 41.25-147.25t118.25-103.25q-15.5-32.5-42.5-59-74 61-172 61h-16.5q-25 104-106.5 171z" />
<glyph unicode="&#xf027;" glyph-name="uniF027" horiz-adv-x="1167" d="M0 249q0-89.5 53.25-160.25t137.25-94.25q7-1.5 13 4l60 75q-70 0-121.25 52t-51.25 123.5q0 67 45 115.75t112.5 54.75l26.5 3.5q10 0 10 10l4 28.5q10 87 75 145.5t152.5 58.5q87 0 152.5-58.75t75-145.25l3.5-31q0-9 9.5-9h86.5q70.5 0 121.75-51t51.25-121.5q0-68-45-118.25t-110.5-55.75q-36-4.5-46-15l-124.5-155q-12.5-14-10-33.5 2-19 16.75-31.5t30.25-12.5q18 0 34 20l109 138q49.5 5 93.75 27.75t75.75 57.75 50 81.5 18.5 96.5q0 69.5-36.5 130 65 59 84.5 140v5l10.5 41-40.5 14q-46 13.5-78.25 44.5t-46 65.5-13.75 70q0 20.5 4.5 42.5l10 41.5-44.5 12.5q-0.5 0-1.5 0.75t-2 1.25-2.25 1-1.75 0.5q-35 8.5-66.5 8.5-30.5-0.5-61.25-7.5t-64-22-64.25-43-53.5-66q-60 26-125 26-113 0-200.5-70t-112.5-179q-90.5-22-147-93.25t-56.5-163.75zM197.5-177q0-10.5 3.5-16.5 7-17.5 23-24.5 17.5-8 35.5-1.5t24.5 23.5q8 17.5 0.75 35.75t-24.25 24.25q-17.5 8-35.25 1.25t-24.25-24.25q-3.5-7.5-3.5-18zM296-46.5v-6q1.5-18 17.5-29.5 10.5-12 29-11.5t35 17l124 155.5q11 14 9 33.25t-16 30.75-33.5 9.5-30.5-18l-124-152.5q-10.5-12-10.5-28.5zM326.5-324.5q7-17 24.5-24 8.5-4 17.5-4 5 0 16 3 17 7 23.5 23.5 6.5 17.5 0.5 34.5t-23.5 25.5q-17.5 6.5-33.5-0.25t-24-23.25q-8.5-15-1-35zM411.5-182.5v-4.5q2-18 17-30.75t30-12.75q17.5 0 32 18l230 286q11.5 13.5 10 33t-15.5 31q-16 11.5-35.25 9.75t-30.25-15.75l-228-286q-10-12.5-10-28zM598.5-241.5q0-9 4-17.5 6.5-18 25-25 18-7 32.5-1 17.5 7 24.5 24.5 8 17.5 1.75 34.25t-23.75 24.75q-17.5 6.5-34.75 0t-25.25-22.5q-4-9.5-4-17.5zM720.5 682q25 46 69.25 70.25t93.75 23.25q9.5 0 14-0.5v-16q0-77.5 42.75-146.75t116.75-104.75q-20-37.5-42-59.5-71 63-171.5 63h-17q-24 102.5-106 171z" />
<glyph unicode="&#xf028;" glyph-name="uniF028" horiz-adv-x="1166" d="M0 250.5q0-106.5 74.5-183.25t181.5-81.75q9.5 0 9.5 9v71.5q0 9-9.5 9-68.5 4-116.75 55t-48.25 120.5q0 66.5 45.25 115.75t112.25 57.25l28.5 2q10.5 0 10.5 9l3.5 29q8.5 86.5 73.5 145.25t152.5 58.75q87 0 152.5-58.75t74.5-145.25l4-30.5q0-9.5 9-9.5h86.5q71.5 0 123.75-51.25t52.25-121.75q0-69.5-48.25-120.5t-116.75-55q-11 0-11-9v-71.5q0-9 11-9 106.5 3.5 180.5 80.75t74 184.25q0 70.5-36.5 131 64.5 58.5 84.5 139.5l7.5 38.5q1 0.5 1 3.5 0 6-8.5 8.5l-30 9.5q-45.5 13-78 44.25t-46.25 65.75-13.75 68.5q-1.5 18 4.5 44l7.5 32.5q3.5 8-7.5 13l-42 13q-36 8-67.5 8-30 0-61-7t-64-21.75-64-42.5-53.5-65.25q-66 24-124.5 24-113 0-200.75-70.25t-112.75-179.75q-88.5-20.5-146-92.5t-57.5-164.5zM296.5-114q0-13.5 8.75-26.25t26.25-17.75q18.5-5.5 34.25 2.25t21.25 29.75l76.5 313q5 20-4.5 36t-28 19.5q-17.5 5.5-33.75-3.5t-21.75-27l-77-314.5q0-1-1-5t-1-6.5zM435.5-278q0-12.5 8.25-24.5t23.75-16.5q9-2 13-2 35 0 43.5 31.5l120 476.5q5 19.5-3.75 34.75t-26.75 20.75q-18.5 5.5-35.25-3.75t-20.75-26.75l-120.5-476q0-1-0.75-6.25t-0.75-7.75zM657.5-118.5q0-28.5 33.5-39.5 11-3 16-3 9 0 18.5 4 16.5 6.5 21 31l76.5 313q5 19-4 34.5t-27 21q-18.5 5.5-35-3.5t-20.5-27l-76.5-314.5q-2.5-14-2.5-16zM720.5 684q25.5 46.5 69.75 70.75t93.75 23.25q9.5 0 14.5-0.5v-16q-1-77.5 41-146.5t118-105q-18-36.5-42-57-73.5 60.5-172 60.5h-16.5q-22 101.5-106.5 170.5z" />
<glyph unicode="&#xf029;" glyph-name="uniF029" horiz-adv-x="1166" d="M0 250q0-106.5 74.25-183t181.25-81.5q9 0 9 9v73q0 9.5-9 9.5-69.5 5.5-117 55.25t-47.5 117.75q0 66 45 115t112 57l28 4q10.5 0 10.5 9l4 27.5q8.5 86.5 73 144.75t152 58.25q87 0 152-58t74-145l4-31q0-9.5 9.5-9.5h86q72 0 123.5-50.5t51.5-121.5q0-68-47.5-117.75t-117-55.25q-10.5 0-10.5-9.5v-73q0-9 10.5-9 106.5 3.5 180.25 80.5t73.75 184q0 69.5-34.5 129.5 65 58.5 84.5 139.5v7l10 42-40.5 11q-65 19.5-101 72.25t-36 108.25q0 21 4.5 41.5l10.5 42.5-45.5 13.5-7 2q-37.5 7.5-66.5 7.5-30 0-61-7t-64.25-22-64-42.75-53.25-65.75q-59.5 26-126 26-113 0-199.75-70t-110.25-179q-90-20.5-147.75-92t-57.75-164zM288-111q0-12 8-23.75t24-17.75q17.5-6 34 2.75t22 27.25l15 56.5q5.5 16.5-3.75 33t-27.25 22q-18.5 5-34.75-4.5t-22.25-28.5l-12.5-53q-2.5-12.5-2.5-14zM357 141.5q0-9 5.5-19 6-14 28.5-20.5 19.5-5 35 3.25t21.5 27.75l15 55q5.5 18.5-3.75 34.25t-27.25 20.75q-19.5 5-35.5-3.75t-21.5-27.75l-14.5-54q-3-11-3-16zM424-277.5q0-13.5 8.25-26.25t24.25-17.75q8.5-2.5 12-2.5 7 0 20 5.5 16 6.5 23 29.5l16 56q5.5 17-3.75 33.5t-27.25 22q-19.5 5-35.75-4.25t-21.75-28.25l-13.5-54q-1.5-6.5-1.5-13.5zM495-23q0-12 8-23.75t24.5-17.75q18-5.5 34 3t21.5 28l14.5 55.5q5.5 17-3.25 33.25t-26.25 21.75q-19.5 5-36.25-4.5t-22.25-28.5l-13-53.5zM644.5-117q0-30 34-40 7-1.5 13-1.5 12 0 19.5 3.5 17 6.5 23.5 30.5l14.5 54.5q5 20-4.25 35.75t-28.25 19.75q-18.5 5.5-34.25-3.75t-21.25-27.25l-14.5-55.5q0-2-1-7.75t-1-8.25zM718.5 140q0-12.5 8.25-24.5t24.75-17q11.5-2.5 12.5-2.5 7 0 20 5.5 16.5 6.5 23.5 29.5l15 55.5q5 17.5-4.5 33.5t-28.5 21.5q-17.5 5.5-33.5-3.75t-21.5-27.75l-14-56.5q-2-9-2-13.5zM720.5 682q25.5 45 70.75 70t96.75 25h11q-0.5-7-0.5-20 0-76 41.75-144.5t115.75-104.5q-17.5-34.5-41.5-58.5-74.5 64.5-173.5 64.5h-17q-20 94.5-103.5 168z" />
<glyph unicode="&#xf02a;" glyph-name="uniF02A" horiz-adv-x="1166" d="M0 249q0-106 74.5-183t181.5-80.5q9.5 0 9.5 9v71.5q0 9-9.5 9-68 3.5-116.5 54.75t-48.5 119.25 45.25 117.5 112.25 55l28.5 4q10.5 0 10.5 9l3.5 27.5q8.5 87.5 73.25 146.5t152.75 59q87 0 152.5-58.75t74.5-145.25l4-30.5q0-9.5 9-9.5h86.5q72.5 0 124.25-51.5t51.75-123q0-68-48.5-119.25t-116.5-54.75q-11 0-11-9v-71.5q0-9 11-9 70 2 128.5 38t92.25 96 33.75 129.5q0 73-34.5 132.5 59 53 81 137.5l9 38.5q1 1 1 4 0 6-8.5 8.5l-32.5 9q-35 10.5-62.25 30.5t-43 44.75-23.5 50.5-7.75 50.75q0 21.5 5.5 46l6 33q2 7.5-7.5 12l-42.5 13q-35 8.5-66.5 8.5-29.5 0-60-7t-63-22-63-42.75-53-65.25q-64.5 26.5-127 26.5-113 0-200.75-70.25t-112.75-179.75q-90-22.5-146.75-94t-56.75-164.5zM340.5 31q0-19 12.75-32.25t31.25-13.25q19 0 31.75 13.25t12.75 32.25q0 18-12.75 31t-31.75 13q-18.5 0-31.25-13t-12.75-31zM340.5-163q0-18 13-31t31-13q19 0 31.75 12.5t12.75 31.5-12.75 31.5-31.75 12.5-31.5-12.5-12.5-31.5zM511.5-72.5q0-19.5 13-31.5 13-13 31-13 19 0 32.5 13t13.5 31.5q0 19-13.5 32.75t-32.5 13.75q-17.5 0-30.75-13.75t-13.25-32.75zM511.5 121.5q0-19 13-31 13-13 31-13 19.5 0 32.75 12.5t13.25 31.5q0 18.5-13.5 31.75t-32.5 13.25q-18 0-31-13.25t-13-31.75zM511.5-268.5q0-17.5 13-30.5 13.5-13.5 31-13.5 19 0 32.5 12.75t13.5 31.25q0 19-13.5 32.75t-32.5 13.75q-17.5 0-30.75-13.75t-13.25-32.75zM684 31q0-19 13.25-32.25t31.75-13.25 31.25 13.25 12.75 32.25q0 18-12.75 31t-31.25 13-31.75-13-13.25-31zM684-163q0-18 13-31t32-13 31.5 12.75 12.5 31.25q0 19-12.5 31.5t-31.5 12.5-32-12.5-13-31.5zM720.5 684q25 43.5 69.25 67.25t91.25 24.75q12 0 17.5-1v-16.5q0-77.5 41.75-146.25t115.75-104.75q-12.5-29-40.5-57-71 63-172 63h-16.5q-22 98.5-106.5 170.5z" />
<glyph unicode="&#xf02b;" glyph-name="uniF02B" horiz-adv-x="1162" d="M0 251q0-106.5 74.25-183t181.25-82q9.5 0 9.5 9.5v71q0 9.5-9.5 9.5-68.5 3.5-116.5 54.5t-48 120.5q0 66.5 45 115.5t112 57l28 2q10.5 0 10.5 9.5l4 29q8.5 86.5 73.25 144.75t152.25 58.25q87 0 152.5-58.5t74.5-144.5l3.5-30.5q0-10 9.5-10h86.5q71 0 122.75-51.25t51.75-121.25q0-69.5-48-120.5t-116.5-54.5q-10 0-10-9.5v-71q0-9.5 10-9.5 70 2.5 128.75 38.5t92.5 96.25 33.75 130.25q0 69.5-36.5 130.5 62.5 59.5 82 137.5l7.5 39q1 0.5 1 3.5 0 6-8.5 8.5l-30.5 9q-45.5 13-78 43.75t-46.25 64.75-13.75 68.5q0 23 6 45.5l7 32.5q2 8-7 12.5l-42.5 13q-36 8-67.5 8-29 0-59.5-7t-63.25-21.5-63.75-42-53.5-64q-65 24.5-124.5 24.5-113 0-200.5-70.25t-112.5-179.25q-88.5-21-145.75-92.75t-57.25-164.25zM316.5 204q0-30.5 22.25-52t54.25-21.5 53.5 21.25 21.5 52.25q0 20.5-18.5 54.5t-34.5 52.5q-8.5 9.5-22 23l-18.5-22q-21.5-23.5-39.75-55.25t-18.25-52.75zM476-8.5q0-52.5 36.5-88.5t88-36q52.5 0 88.75 36.5t36.25 88q0 44-42.5 106.5-35.5 46.5-68.5 79.5-6.5 4.5-14 12l-12.5-12q-31.5-29-68-79-19-26.5-31.5-55.5t-12.5-51.5zM554.5 347q0-20.5 15.25-35t37.25-14.5q20.5 0 35 14.5t14.5 35q0 34-49.5 86.5l-13.5-14.5q-14.5-16-26.75-37.25t-12.25-34.75zM717.5 684q28 45.5 71.5 68.75t91.5 23.25q9.5 0 14.5-1v-16q0-77 42-146t116.5-105q-12.5-30-40-55-74 61-171 61h-17.5q-24.5 105-107.5 170z" />
<glyph unicode="&#xf02c;" glyph-name="uniF02C" horiz-adv-x="1164" d="M0 251q0-88.5 53-158.25t137.5-95.25l-34.5-90.5q-3.5-11 7.5-11h113l-69-223h15l225.5 300q3 3.5 1 7.25t-7.5 3.75h-116l132 247.5q5.5 11.5-7 11.5h-158q-7 0-12-8l-57-153.5q-57 14.5-94.75 62.25t-37.75 107.25q0 66.5 45.25 115.5t112.25 57l28 4q10.5 0 10.5 9.5l4 27q8.5 86.5 73.25 145t152.25 58.5q87 0 152.5-58.75t74.5-144.75l4-30.5q0-10 9-10h86.5q72.5 0 124-50.75t51.5-121.75q0-68-48-118t-117.5-55q-10 0-10-10v-72.5q0-9.5 10-9.5 106.5 3.5 180.75 80.75t74.25 184.25q0 69.5-35 130.5 61 59 80.5 140l10 36.5q0.5 0.5 0.5 3.5 0 6.5-8 8.5l-33 9q-46 13.5-78 44.75t-45.25 65-12.75 67.25q0 22 5.5 45.5l6 32.5q2 8-7.5 12.5l-42.5 13q-37.5 7.5-66 7.5-29.5 0.5-60.25-6.25t-63.25-21.5-62.75-42-52.75-64.25q-68 24.5-127 24.5-113 0-200.5-70.25t-112.5-179.25q-88.5-21-146-92.75t-57.5-164.25zM436-275q0-12.5 8.25-25t24.25-17.5q12.5-2.5 14.5-2.5 7.5 0 19.5 5.5 16.5 8 22.5 28l15 56q5 17.5-4.25 33.75t-28.25 21.75q-17.5 5-33.75-4.5t-21.75-28.5l-14.5-53.5zM507.5-21.5q0-34.5 32.5-40 11-2.5 14.5-2.5 30 0 41 33.5l16 54.5q5 17.5-4.5 33.75t-28.5 21.75q-18 5.5-34.25-3.75t-21.75-28.25l-13.5-54q-1.5-7-1.5-15zM657-110.5q1-13.5 9.5-25.75t25.5-18.25q13-3 17.5-3 27.5 0 38 36l13 54.5q5.5 18.5-3.25 35t-26.75 22q-20 5-36.25-4.5t-19.75-28.5l-15.5-55q0-2-1-6.25t-1-6.25zM720 684q26.5 44.5 71.5 68.75t94 24.25h11.5v-17q0-51 18-99t54.25-88.5 85.75-64.5q-13.5-30-40.5-55-73 62.5-171.5 62.5h-17.5q-22.5 100.5-105.5 168.5zM730.5 145.5q0-34.5 34.5-44 11-2 16-2 29 0 39.5 34.5l15 55.5q0.5 4 0.5 11.5 1 13.5-7.5 26.25t-26 17.75q-1 0-5.25 0.75t-6.75 0.75q-13 0-25.5-8.25t-17.5-25.25l-15.5-54.5q0-0.5-0.75-5.5t-0.75-7.5z" />
</font>
</defs>
</svg>
