<svg id="Ebene_1" data-name="Ebene 1" xmlns="http://www.w3.org/2000/svg" viewBox="0 0 28 28"><defs><style>.cls-1{fill:#020202;}</style></defs><title>bootstrap</title><path class="cls-1" d="M16.4274,15.6671a3.1687,3.1687,0,0,0-2.0627-.5693H11.7008V19.64h2.6639a3.1474,3.1474,0,0,0,2.0509-.5693,2.0922,2.0922,0,0,0,.6955-1.7193A2.0461,2.0461,0,0,0,16.4274,15.6671Z"/><path class="cls-1" d="M14.2114,12.0541a2.4748,2.4748,0,0,0,1.6267-.4647,1.6884,1.6884,0,0,0,.554-1.3709,1.6741,1.6741,0,0,0-.554-1.3592,2.4328,2.4328,0,0,0-1.6267-.4763H11.7008v3.6711Z"/><path class="cls-1" d="M23.4769,0H4.5231A4.5137,4.5137,0,0,0,0,4.5044V23.4956A4.5137,4.5137,0,0,0,4.5231,28H23.4769A4.5137,4.5137,0,0,0,28,23.4956V4.5044A4.5137,4.5137,0,0,0,23.4769,0ZM19.9282,21.4525a9.0253,9.0253,0,0,1-5.2335,1.2314H7.1628V5.3393h6.8129q3.6657,0,5.3042,1.092a3.8864,3.8864,0,0,1,1.65,3.4968,3.7838,3.7838,0,0,1-.6012,2.1608,3.5461,3.5461,0,0,1-1.7445,1.3128h0a4.0385,4.0385,0,0,1,2.2632,1.5451,4.6476,4.6476,0,0,1,.8015,2.7649A4.294,4.294,0,0,1,19.9282,21.4525Z"/></svg>