<svg id="Ebene_1" data-name="Ebene 1" xmlns="http://www.w3.org/2000/svg" viewBox="0 0 28 28"><title>css</title><path d="M1.6545.0008V.1359c.1583,1.3605.2529,2.7281.3851,4.0915.3815,4.53.8128,9.0563,1.2095,13.5856.21,2.4514.4233,4.9027.66,7.3527,1.8127.4862,3.6088,1.031,5.4208,1.5194,1.5353.4566,3.0857.8583,4.621,1.3149h.0477c1.6133-.47,3.2389-.898,4.8515-1.3713,1.7556-.4674,3.4946-.9977,5.251-1.463q.4574-4.9027.8742-9.81c.4718-5.1174.9176-10.2362,1.3706-15.355Q14-.0013,1.6545.0008Zm20.3,7.4106a4.7664,4.7664,0,0,1-.091.7651,2.84,2.84,0,0,1-.5787.3c-1.0187.4516-2.0461.8829-3.0612,1.3431-1.0577.4732-2.1414.8937-3.1717,1.424.2774.02.5563.0217.8352.02,1.9146-.0079,3.83-.0021,5.7445-.0122-.2,3.2-.5159,6.3918-.8005,9.5852-2.2513.5866-4.4925,1.21-6.7488,1.7766l-.0874.0173a1.6207,1.6207,0,0,1-.4646-.0759c-1.2816-.3424-2.5771-.6321-3.8566-.98-.8352-.2276-1.6732-.4414-2.51-.66a47.3152,47.3152,0,0,1-.47-4.7576c.8489-.013,1.6978-.005,2.546-.01a1.8673,1.8673,0,0,1,.5231.05c.0737.8279.1315,1.6581.2146,2.4853.5845.17,1.1921.237,1.7852.3663.7522.1337,1.4978.302,2.2528.414a9.43,9.43,0,0,1,1.2845-.4284c.8092-.2428,1.6242-.4646,2.4269-.7269.0693-1.3387.1806-2.6753.2535-4.0141-1.31.0087-2.62-.0267-3.9288-.0043-1.122.0246-2.2448.0022-3.3668.0079-1.4.0022-2.8.0246-4.2.03-.0744-1.0462-.2435-2.0887-.263-3.1371A3.117,3.117,0,0,1,6.81,10.906c2.3083-1.0093,4.6347-1.98,6.9329-3.0113-2.6269-.0788-5.2575.0224-7.8844-.0751-.1315-.9465-.2594-1.8944-.3078-2.8488,2.8235-.0029,5.6476-.0108,8.4711-.0007,2.7122.0144,5.4237-.0044,8.1352.0173C22.1175,5.7973,22.0134,6.6022,21.9549,7.4114Z"/></svg>