<svg id="Ebene_1" data-name="Ebene 1" xmlns="http://www.w3.org/2000/svg" viewBox="0 0 28 28"><title>dwd</title><path d="M26.1186,16.6823c-.0568.132-.0967.2866-.1382.4145a15.3759,15.3759,0,0,1-2.4235,5.1872c-.4276.17-.6121.5-.9142.8185a3.69,3.69,0,0,1-.6059.6378c-.1568.0962-.3762.1371-.5527.2232-.5231.2517-1.0149.5034-1.5625.7653a7.2772,7.2772,0,0,1-2.3173.8291,3.1489,3.1489,0,0,0-.3295,0c-.368.0789-1.0415.6208-1.4881.5528-.1119-.017-.21-.1506-.3295-.16-.1433-.0115-.28.1188-.4146.1382-.1884.0248-.41-.017-.6059,0-.6687.0541-1.3486.271-1.9877.3295-.1187.01-.0964.157-.1913.1913h-.6591a1.1035,1.1035,0,0,0-1.19-.4995c-.2551-.3028-.4591-.2846-.8822-.3614-.1993-.0364-.3934-.1246-.574-.1382a3.6935,3.6935,0,0,0-.861.0637c-.1595.0259-.3129.1576-.4677.1382-.3361-.0428-.3259-.4527-.5527-.7228a2.1245,2.1245,0,0,0-.489-.3614,4.95,4.95,0,0,0-1.3393-.7866,4.0916,4.0916,0,0,1-1.1267-.7547A5.2737,5.2737,0,0,1,2.723,21.9332c-.1082-.1391-.285-.516-.4145-.68-.14-.1776-.5052-.6245-.68-.7972A2.6586,2.6586,0,0,1,.98,19.5416,4.0364,4.0364,0,0,1,0,17.563V21.12c.2781.39.5806.7826.8416,1.1636.1741.2538.3068.5529.4677.7441a8.6516,8.6516,0,0,0,.946.6909,2.58,2.58,0,0,0,1.2118.7441c.133.0248.2006.1485.33.1913.2163.0708.2893.1908.489.3295.1935.6075.91.7656,1.2968,1.18a4.2206,4.2206,0,0,0,1.8814.2551c.3177.0779.58.2474.9035.3508.1395.0442.32.0292.4677.085.118.0436.202.1681.3295.2233.2317.101.52.134.7441.2232.1265.05.2338.18.3614.2126a1.7508,1.7508,0,0,0,.85-.0532,5.2038,5.2038,0,0,0,1.4138.085c.46.0531.8974.1984,1.2968.2233.4874.03,1.0093-.0616,1.5413-.0851.203-.0085.4237.016.6271,0a9.8053,9.8053,0,0,0,1.6582-.4464,17.4827,17.4827,0,0,0,3.1676-1.02c.22-.1089.4355-.2841.659-.3827.282-.1235.6147-.1543.8079-.2764.1962-.1241.3144-.36.5208-.4889.2017-.1262.4543-.1814.6591-.3083.2238-.1408.4551-.346.6909-.5208.2442-.1813.5219-.3262.744-.5.5725-.4466.8871-1.2611,1.35-1.7645a3.3012,3.3012,0,0,0,.5-.5528c.0554-.1088.0515-.2438.1063-.3826.1551-.3963.54-.7727.659-1.1268.0388-.1153.0233-.2664.0638-.3932A1.6339,1.6339,0,0,1,28,18.9464V7.796a2.4316,2.4316,0,0,1-.4464-.5953,1.45,1.45,0,0,0-.3614-.6271V6.2972c-.597-.7493-1.197-1.6355-1.8708-2.3491a3.2351,3.2351,0,0,0-.7441-.659c-.2721-.1307-.6113-.1037-.861-.33a1.098,1.098,0,0,1-.0213-.3082,1.0642,1.0642,0,0,1-.7972-.574c-.4748.1058-.72-.3048-.946-.3827-.164-.0581-.361-.0117-.5209-.0637-.1465-.049-.2438-.1949-.3826-.2445-.116-.0432-.2485-.0154-.3614-.0532-.0711-.0228-.1426-.0994-.2232-.1382-.09-.04-.1971-.0449-.2764-.085-.1548-.0789-.264-.2448-.4358-.33-.28-.1364-.634-.0918-.8823-.3295-.2935.1333-.62-.0748-.9672-.1169A14.3331,14.3331,0,0,0,15.9461.2278C15.0325.25,14.099.6125,13.1612.61c-.1079,0-.2241-.03-.3295-.0212a4.5549,4.5549,0,0,0-1.4882.6271c-.7054.3534-1.4069.7265-2.094,1.0523a5.1623,5.1623,0,0,0-1.35.85,2.9257,2.9257,0,0,0-.33.3082c-.0737.1113-.0847.2591-.1381.33a2.0123,2.0123,0,0,1-.3827.3082A5.3368,5.3368,0,0,0,5.1678,6.3716c-.2157.4871-.4886.9244-.6591,1.3819a9.8265,9.8265,0,0,0-.659,3.4227c-.0017.07.0767.0562.1063.1381a3.4777,3.4777,0,0,1,.085.7654c.0167.39-.1323.8275-.085,1.1905a4.2767,4.2767,0,0,0,.2551.68A19.92,19.92,0,0,0,5.03,16.0232c.05.0834-.0873.163-.0744.2976.4153.0531.4235.5093.7653.6378.0163.1017-.0787.1637-.0212.2232.1187-.0023.2792-.068.3826,0A3.2419,3.2419,0,0,0,8.0909,19.52c.1493.4963.5918.5869,1.0523.776a8.8542,8.8542,0,0,0,1.9027.8291,5.3018,5.3018,0,0,1,.6059,0c.1558.0429.2177.24.3827.2976a1.2786,1.2786,0,0,1,.5739-.0212.6972.6972,0,0,0,.5847.2444c.3847-.0238.88-.3333,1.4031-.3826.37-.0357.7873.1389,1.0523.1063a6.0422,6.0422,0,0,0,.7972-.3827c.3027-.1211.6337-.2108.85-.33.24-.1313.4715-.3419.7228-.4783a5.6794,5.6794,0,0,0,.7654-.404,5.8227,5.8227,0,0,0,.4464-.5314c.2993-.3031.6672-.5513.9567-.8823a6.5945,6.5945,0,0,0,.8291-1.0417,8.2684,8.2684,0,0,0,.5-1.5732c.0976-.3183.3446-.5727.4358-.8822a10.4124,10.4124,0,0,0,.0638-1.1055c.0282-.2143.1574-.4053.1594-.574a5.7572,5.7572,0,0,0-.1913-.744,10.6436,10.6436,0,0,0-.1382-1.2968c-.0554-.1783-.23-.3125-.3083-.5a2.3586,2.3586,0,0,1-.1594-.6909c-.34-.17-.44-.5681-.6059-.85a2.9688,2.9688,0,0,0-.9886-1.0417,4.3415,4.3415,0,0,1-.67-.3614c-.1269-.1061-.1877-.3105-.33-.4145-.113-.081-.2932-.072-.3827-.1914-.1146-.0228-.1394.0366-.2445.0213a5.5058,5.5058,0,0,0-2.7636-.3827c-.1449-.0088-.0839.1933-.1914.2232-.3081-.2724-.7154.0954-1.1267-.0318a9.655,9.655,0,0,1-1.8176.861c-.2453.5962-.8069.7965-1.19,1.2649a4.9045,4.9045,0,0,0-.5528,1.1586,3.2881,3.2881,0,0,0-.1913,1.7326A3.4571,3.4571,0,0,0,10.8546,13.6a3.5145,3.5145,0,0,0,.3826.6059,3.6177,3.6177,0,0,0,1.0736.9035c.1435.05.3889.0564.6059.1169a2.3591,2.3591,0,0,0,1.52-.085.9361.9361,0,0,0,.7122-.4465c.1687-.1911.3415-.2717.3826-.5421a2.2234,2.2234,0,0,0-.4145-2.02c-.3221-.25-.7432-.2273-.85-.6059-.2877-1.0166,1.46-1.4025,2.3385-1.0735a2.5428,2.5428,0,0,1,1.2756.861,3.9325,3.9325,0,0,1,.2764.5421c.0537.1037.1491.1811.1913.2763a3.07,3.07,0,0,1,.2763,1.52,2.4443,2.4443,0,0,0-.085.2976c-.017.2.0635.2421.0319.5-.0242.1979-.1918.3467-.2551.5208-.098.2752-.1181.5345-.2233.776a3.3477,3.3477,0,0,1-1.5944,1.7645c-.1969.1928-.6035.7142-.9035.7972-.0993.0275-.2391-.017-.34,0a5.1534,5.1534,0,0,0-.7653.2551c-.2211.0983-.36.305-.5528.3295a1.3144,1.3144,0,0,1-.8291-.2019,5.43,5.43,0,0,1-3.7416-1.01,6.6043,6.6043,0,0,1-.946-.5527,4.7581,4.7581,0,0,1-.489-.6059A8.7251,8.7251,0,0,1,6.5177,14.62c-.217-.52-.164-1.1158-.3826-1.6794a4.14,4.14,0,0,1-.2445-.4677,5.7143,5.7143,0,0,1-.0851-1.2968c.01-.9837.3993-1.921.5-2.87.048-.0442.1743-.01.1914-.085a6.6538,6.6538,0,0,1,.7653-1.4563c.3017-.4411.6336-.8974.9673-1.2968a8.154,8.154,0,0,1,1.605-1.2117,8.6035,8.6035,0,0,1,2.8594-1.3287c.6779-.1684,1.1464-.3142,1.8495-.489a5.1874,5.1874,0,0,1,.7441-.2232,2.6814,2.6814,0,0,1,.4358.1063c.6357.1,1.184.177,1.7432.3083.4837.1142.9441.27,1.3819.4145A8.0693,8.0693,0,0,1,20.74,3.81c.1711.1123.306.3105.5.4146.1391.0758.3074.0715.4145.1382a9.3557,9.3557,0,0,1,.8823.7759,6.291,6.291,0,0,1,.85.7972c.0646.0871.0711.1975.1381.2764.249.2912.6162.4816.8291.7972.3613.0252.3325.301.4465.5527.117.2579.3332.5412.4889.85.1637.3255.2748.6836.4146.9673.0718.1483.2146.2388.2551.3827.0364.1333-.0026.3064.0213.4677.033.24.1568.4764.17.67.0072.0966-.0322.2-.0318.2976.0006.3548.1411.7056.17,1.0736.0351.4664-.0526,1.0165-.0318,1.5519.03.8024.1265,1.5544.085,2.2854C26.3238,16.41,26.2033,16.4836,26.1186,16.6823Z"/></svg>