<svg id="Ebene_1" data-name="Ebene 1" xmlns="http://www.w3.org/2000/svg" viewBox="0 0 28 28"><defs><style>.cls-1{fill-rule:evenodd;}</style></defs><title>github</title><path class="cls-1" d="M13.9991,0A14.0013,14.0013,0,0,0,9.5748,27.2845c.7.1284.9555-.3038.9555-.6748,0-.3324-.0121-1.2128-.0189-2.3811-3.8943.846-4.7161-1.8767-4.7161-1.8767A3.7075,3.7075,0,0,0,4.2409,20.304c-1.2711-.8686.0962-.851.0962-.851a2.9406,2.9406,0,0,1,2.1444,1.4427,2.9809,2.9809,0,0,0,4.0744,1.1633,2.9909,2.9909,0,0,1,.8888-1.8716c-3.1088-.3534-6.377-1.5544-6.377-6.9193A5.4114,5.4114,0,0,1,6.5088,9.5114,5.0354,5.0354,0,0,1,6.646,5.8063s1.1755-.3764,3.85,1.4352a13.2707,13.2707,0,0,1,7.01,0c2.6728-1.8116,3.8461-1.4352,3.8461-1.4352a5.0282,5.0282,0,0,1,.1393,3.7051A5.4023,5.4023,0,0,1,22.93,13.2681c0,5.3783-3.2733,6.5617-6.3921,6.9084a3.3411,3.3411,0,0,1,.95,2.5926c0,1.8716-.0172,3.3815-.0172,3.8406,0,.3743.2522.81.9627.6732A14.0021,14.0021,0,0,0,13.9991,0Z"/></svg>