<svg id="Ebene_1" data-name="Ebene 1" xmlns="http://www.w3.org/2000/svg" viewBox="0 0 28 28"><title>materialize</title><path d="M23.8809,14.4868a1.2554,1.2554,0,0,0-.9856.834c-.05-.2527-.0758-.48-.1264-.7582C21.935,10.0139,21.3032,7.032,20.52,6.8551h-.2274a.2576.2576,0,0,0-.1047.0252h-3.787a.2085.2085,0,0,1,.06.0083.2407.2407,0,0,0-.06-.0083h-.2274c-.6318.1517-1.1877,1.9964-2.1228,7.1264-.0252.1516-.05.278-.0758.43-.8339-4.4477-1.44-7.3791-2.2238-7.556H7.4043c-.6317.1517-1.1877,1.9964-2.148,7.1264-.0741.3457-.1245.6913-.1975,1.037a1.2053,1.2053,0,0,0-.94-.5063H0c1.1119.278,1.7942,1.7437,2.1733,4.0686.43,2.527.8845,2.426.96,2.527H7.2527c.657-.1516,1.213-2.0216,2.148-7.1263.0506-.3538.1264-.6823.1769-1.0108.0253.1516.0506.2779.0758.43.8576,4.5148,1.4634,7.4935,2.27,7.7059l-.0044.0016,4.1155.0119-.0045-.0144c.6535-.1653,1.2088-2.04,2.14-7.1238.05-.3538.1263-.6823.1769-1.0108l.003-.0079c.0243.1436.0485.2667.0728.4122.8339,4.5487,1.4657,7.5307,2.2491,7.7076h4.1191s.8845-.5054,1.0614-2.4513c.2527-2.7292.7076-3.69,2.148-4.17Z"/></svg>