<svg id="Ebene_1" data-name="Ebene 1" xmlns="http://www.w3.org/2000/svg" viewBox="0 0 28 28"><title>mobx</title><path d="M14.0008,27.9984H1.9429A1.8882,1.8882,0,0,1,.0015,26.0491L.0006,1.9333A1.8866,1.8866,0,0,1,1.9394.0009L26.0552,0a1.8981,1.8981,0,0,1,1.9411,1.9349q.0016,12.0767.0031,24.1531A1.8862,1.8862,0,0,1,26.0774,28q-6.0383,0-12.0766,0ZM8.6938,6.5693a.7037.7037,0,0,0-.1253-.0262Q6.952,6.54,5.3356,6.5392c-.1127,0-.15.049-.1485.1582.0046.2724.0092.5453-.002.8173-.0066.1595.0569.2.2052.1989.5636-.0061,1.1273.0041,1.6907-.0062.1787-.0033.2295.05.2293.2295Q7.3027,14.0032,7.3092,20.07c0,.1692-.0461.2247-.2177.2218-.551-.0093-1.1023-.0039-1.6535-.0033-.25,0-.25.0014-.2506.2416-.0005.2354.01.4713-.0037.7058-.011.1814.0543.2322.2313.2311,1.0094-.0065,2.019-.0021,3.0285-.002.2515,0,.2518-.0011.2518-.2559L8.6938,6.7908C8.6937,6.7176,8.6938,6.6444,8.6938,6.5693Zm10.6115-.0128c0,.0917,0,.1652,0,.2386q-.0016,2.462-.0033,4.9239,0,4.7474.0016,9.4947c0,.2507,0,.251.2566.2514q.3995.0006.799,0,1.0962,0,2.1925-.0011c.26,0,.26-.0011.2608-.2508,0-.2353-.01-.4713.0036-.7059.01-.1714-.05-.2263-.22-.224-.5636.0077-1.1273-.0019-1.6908.0052-.1564.0019-.2139-.0372-.2136-.2066Q20.7,14.006,20.6951,7.93c0-.1608.0413-.2157.2073-.2132.5635.0088,1.1272-.0011,1.6908.0048.1627.0017.2364-.0423.2264-.2206a6.5972,6.5972,0,0,1,0-.7428c.01-.1838-.0616-.2325-.2353-.231-1.028.0089-2.056.0088-3.084.0126C19.4456,6.54,19.3909,6.549,19.3053,6.5565ZM14.09,16.8246l-.0708-.01c-.02-.0441-.0436-.087-.0607-.1323-.2806-.7392-.5887-1.4694-.8339-2.22-.3986-1.22-.7593-2.4531-1.1265-3.6834-.0452-.1516-.104-.2143-.2646-.2042-.21.0131-.4209.0032-.6315.0032h-.7256c.0159.0821.0229.1351.0365.1863a49.8567,49.8567,0,0,0,2.865,7.7232.1975.1975,0,0,0,.2122.1328c.3343-.0058.669-.0078,1.0031.0008a.2166.2166,0,0,0,.2367-.1534c.1861-.4312.3875-.8558.5726-1.2874a45.6865,45.6865,0,0,0,2.2845-6.3987c.016-.0612.0206-.1254.0329-.2039-.4834,0-.9406-.0048-1.3973.0069-.05.0013-.1243.09-.1425.1516-.2192.74-.4053,1.4906-.6483,2.2225C15.0023,14.2531,14.5393,15.5365,14.09,16.8246Z"/></svg>