<svg id="Ebene_1" data-name="Ebene 1" xmlns="http://www.w3.org/2000/svg" viewBox="0 0 28 28"><title>mysql</title><path id="path16" d="M25.791,21.5153a8.8164,8.8164,0,0,0-3.6945.5334c-.2857.1142-.7428.1143-.7809.4761.1525.1524.1715.4.3048.6094a4.4633,4.4633,0,0,0,.99,1.1617c.4.3047.8.6093,1.2187.876.7428.4571,1.5807.7236,2.3044,1.1807.4191.2664.8378.6094,1.2568.8951.21.1522.3427.4.6094.495v-.0571c-.1333-.1714-.1714-.4189-.3046-.6094-.19-.19-.3809-.3619-.5714-.5523a9.0319,9.0319,0,0,0-1.98-1.9233c-.6093-.419-1.9425-.99-2.19-1.695l-.0382-.038a7.74,7.74,0,0,0,1.3141-.3047c.6475-.1715,1.2378-.1334,1.9044-.3047.3046-.0762.6094-.1714.914-.2666V21.82c-.3426-.3428-.59-.8-.9522-1.1236a25.367,25.367,0,0,0-3.1422-2.3423c-.59-.3809-1.3521-.6286-1.98-.9522-.2285-.1145-.61-.1714-.7427-.3619a7.6927,7.6927,0,0,1-.7808-1.4664c-.5521-1.0475-1.0855-2.209-1.5616-3.3135a20.2893,20.2893,0,0,0-.9712-2.171,19.1926,19.1926,0,0,0-7.37-7.1223,9.1507,9.1507,0,0,0-2.4375-.7808c-.476-.0191-.9522-.0571-1.4283-.0762a7.5838,7.5838,0,0,1-.8761-.6665C3.72.7578.92-.7274.12,1.234c-.5142,1.2379.7618,2.4566,1.2,3.0851a8.9892,8.9892,0,0,1,.9713,1.4283c.1333.3235.1713.6665.3046,1.0093a22.8709,22.8709,0,0,0,.99,2.5519,9.21,9.21,0,0,0,.7046,1.1806c.1524.2094.4189.3047.4761.6475a5.4555,5.4555,0,0,0-.4381,1.4283,8.39,8.39,0,0,0,.5523,6.3986c.3047.4759,1.0284,1.5236,2,1.1236.857-.3428.6665-1.4283.9141-2.38.0572-.2286.0191-.3808.1333-.5332,0,.019,0,.0382,0,.0382.2667.5332.5332,1.0474.7807,1.5805a10.8755,10.8755,0,0,0,2.4757,2.5519c.4572.3427.819.9331,1.39,1.1427V22.43h-.0381a2.1041,2.1041,0,0,0-.438-.3808,9.24,9.24,0,0,1-.99-1.1427A24.5,24.5,0,0,1,8.9754,17.44c-.3046-.59-.5713-1.2379-.8188-1.8282-.1144-.2286-.1144-.5713-.3048-.6855a7.1707,7.1707,0,0,0-.9141,1.295,10.7421,10.7421,0,0,0-.5332,2.8755c-.0761.0191-.0381,0-.0762.0381-.6093-.1524-.8189-.7807-1.0474-1.314A8.2371,8.2371,0,0,1,5.11,12.7364c.1333-.4.7046-1.6568.4761-2.0377-.1142-.3619-.4952-.5713-.7047-.8569a7.6766,7.6766,0,0,1-.6855-1.2189C3.7384,7.5565,3.51,6.3758,3.0148,5.3093A10.1417,10.1417,0,0,0,2.0626,3.843,9.43,9.43,0,0,1,1.0152,2.3575C.92,2.1481.7867,1.8053.939,1.5768a.3036.3036,0,0,1,.2666-.2476c.2476-.21.9522.0572,1.2.1714a9.7122,9.7122,0,0,1,1.8853.9521c.2666.1905.5522.5524.895.6476h.4c.6094.1332,1.2949.0381,1.8662.2094a12.1715,12.1715,0,0,1,2.7423,1.3141,16.8953,16.8953,0,0,1,5.9417,6.5129c.2285.4379.3236.838.5332,1.2949.4.9332.895,1.8854,1.2949,2.8a12.5247,12.5247,0,0,0,1.352,2.5519c.2858.4,1.4283.6093,1.9425.8188a13.5155,13.5155,0,0,1,1.3141.5332c.6474.4,1.2949.857,1.9043,1.295.3048.2284,1.2569.7046,1.3141,1.0853Z"/><path id="path18" d="M6.3663,4.9664a3.0146,3.0146,0,0,0-.7807.0953V5.1h.0381a6.1321,6.1321,0,0,0,.6093.7807c.1524.3046.2856.6094.4381.9142l.038-.0381a1.0743,1.0743,0,0,0,.4-.9522,4.2465,4.2465,0,0,1-.2286-.4c-.1142-.1906-.3619-.2856-.5142-.4381Z"/></svg>