<svg id="Ebene_1" data-name="Ebene 1" xmlns="http://www.w3.org/2000/svg" viewBox="0 0 28 28"><title>php</title><path d="M8.1782,11.9084H7.0767l-.6,3.0888h.9779a2.361,2.361,0,0,0,1.4483-.3663,1.946,1.946,0,0,0,.6424-1.2232A1.34,1.34,0,0,0,9.4,12.2466,1.6446,1.6446,0,0,0,8.1782,11.9084Z"/><path d="M20.7267,11.9084H19.6252l-.6,3.0888h.9779a2.361,2.361,0,0,0,1.4483-.3663,1.945,1.945,0,0,0,.6424-1.2232,1.34,1.34,0,0,0-.1454-1.1611A1.6446,1.6446,0,0,0,20.7267,11.9084Z"/><path d="M14,6.6354C6.2681,6.6354,0,9.9327,0,14s6.2681,7.3646,14,7.3646S28,18.0673,28,14,21.7318,6.6354,14,6.6354Zm-3.8028,8.6929a2.8406,2.8406,0,0,1-1.07.642,4.9305,4.9305,0,0,1-1.5.1915H6.25L5.8687,18.124H4.261l1.4344-7.38H8.787a2.5677,2.5677,0,0,1,2.035.7323,2.2976,2.2976,0,0,1,.3847,2.0444,3.2065,3.2065,0,0,1-1.0095,1.8079Zm4.6928.8335.6346-3.2654a.8862.8862,0,0,0-.08-.76,1.1209,1.1209,0,0,0-.8-.2027H13.37l-.8217,4.2281H10.953l1.4345-7.38h1.595l-.3813,1.9622h1.421a2.7674,2.7674,0,0,1,1.85.4678,1.5475,1.5475,0,0,1,.3054,1.5159L16.51,16.1618ZM23.7552,13.52a3.2065,3.2065,0,0,1-1.0095,1.8079,2.8406,2.8406,0,0,1-1.07.642,4.9305,4.9305,0,0,1-1.5.1915H18.7986l-.3813,1.9622H16.81l1.4344-7.38h3.0916a2.5673,2.5673,0,0,1,2.0349.7323A2.2976,2.2976,0,0,1,23.7552,13.52Z"/></svg>