<svg id="Ebene_1" data-name="Ebene 1" xmlns="http://www.w3.org/2000/svg" viewBox="0 0 28 28"><title>react</title><path d="M28,14.0029C28,12.148,25.6771,10.39,22.1158,9.3c.8218-3.63.4566-6.5177-1.1529-7.4423A2.5012,2.5012,0,0,0,19.69,1.5388V1.5324c-1.57,0-3.6242,1.1187-5.7016,3.0591C11.9111,2.6625,9.8565,1.5552,8.287,1.5552V1.561a2.5448,2.5448,0,0,0-1.29.32c-1.6037.9245-1.9633,3.8067-1.1357,7.4251C2.3115,10.4016,0,12.1537,0,14.0029c0,1.8548,2.3229,3.6127,5.8842,4.7028-.8218,3.63-.4566,6.5177,1.1529,7.4422a2.5079,2.5079,0,0,0,1.2841.32c1.57,0,3.6242-1.1187,5.7016-3.0591,2.0775,1.929,4.1321,3.0363,5.7016,3.0363a2.5446,2.5446,0,0,0,1.29-.32c1.6037-.9245,1.9633-3.8067,1.1357-7.4251C25.6885,17.61,28,15.852,28,14.0029ZM19.6844,2.8057v.0052a1.3222,1.3222,0,0,1,.6507.1483c.7762.4452,1.1129,2.14.85,4.3205-.0628.5365-.1655,1.1015-.2911,1.6779A27.6711,27.6711,0,0,0,17.27,8.3355a27.8535,27.8535,0,0,0-2.3742-2.8536C16.7538,3.7552,18.4974,2.8086,19.6844,2.8057ZM8.9434,16.925q.4021.6849.8218,1.3355c-.81-.12-1.5923-.2683-2.34-.4509.2112-.7362.4737-1.4953.7705-2.2544C8.43,16.0118,8.6751,16.4684,8.9434,16.925ZM7.4081,10.1961c.7476-.1769,1.5353-.331,2.3514-.4509-.28.4395-.5594.89-.8219,1.3526-.2625.4566-.5079.9132-.7419,1.37C7.8875,11.7028,7.6249,10.938,7.4081,10.1961ZM8.8634,14.02c.3539-.7648.7534-1.53,1.1815-2.2773.4451-.77.9017-1.5009,1.3754-2.18.85-.0742,1.7122-.1142,2.58-.1142.8618,0,1.7236.04,2.5683.1085.4737.6791.936,1.404,1.3812,2.1687.4337.7477.8275,1.5068,1.1871,2.2715-.36.7648-.7534,1.53-1.1815,2.2773-.4451.77-.9017,1.501-1.3754,2.18-.85.0742-1.7122.1142-2.58.1142-.8618,0-1.7236-.04-2.5683-.1084q-.7105-1.0188-1.3812-2.1688C9.6168,15.5438,9.223,14.7847,8.8634,14.02Zm10.1932,2.8879c.2626-.4566.508-.9189.742-1.3755.3082.7648.5707,1.53.7876,2.2715-.7476.1827-1.5352.3367-2.3514.4566C18.5145,17.821,18.7941,17.37,19.0566,16.9079Zm-.0056-5.8272c-.2626-.4566-.5422-.9017-.8219-1.3355.8105.12,1.5924.2682,2.34.4509-.2112.7362-.4737,1.4953-.77,2.2543C19.5646,11.9939,19.3192,11.5373,19.051,11.0807ZM15.57,8.21c-.5137-.0229-1.0387-.04-1.5695-.04-.5365,0-1.0673.0114-1.5866.04a22.2728,22.2728,0,0,1,1.5694-1.8264A23.5025,23.5025,0,0,1,15.57,8.21ZM7.6307,2.9821a1.2694,1.2694,0,0,1,.6563-.1484V2.8279c1.1814,0,2.9335.9418,4.7941,2.66a26.9714,26.9714,0,0,0-2.3571,2.848,26.6616,26.6616,0,0,0-3.63.6278c-.1313-.5707-.2283-1.1243-.2968-1.6551C6.5292,5.128,6.86,3.4329,7.6307,2.9821ZM6.1924,17.4729c-.565-.1769-1.1015-.371-1.598-.5822-2.02-.8618-3.3274-1.9918-3.3274-2.8878s1.307-2.0318,3.3274-2.8879c.4908-.2112,1.0273-.3995,1.5809-.5765a27.4,27.4,0,0,0,1.2841,3.4758A27.0341,27.0341,0,0,0,6.1924,17.4729ZM8.31,25.2006a1.361,1.361,0,0,1-.6449-.1542c-.7762-.4451-1.1129-2.14-.85-4.32.0628-.5365.1655-1.1015.2911-1.678A27.6544,27.6544,0,0,0,10.73,19.67a27.8442,27.8442,0,0,0,2.3742,2.8537C11.2433,24.2532,9.4969,25.2006,8.31,25.2006Zm5.7016-3.5785a23.54,23.54,0,0,1-1.5866-1.8263c.5136.0228,1.0387.04,1.57.04.5365,0,1.0673-.0114,1.5866-.04A22.2687,22.2687,0,0,1,14.0114,21.6221Zm6.3579,3.4015a1.2694,1.2694,0,0,1-.6563.1485c-1.1814,0-2.9335-.9418-4.7941-2.66a26.9714,26.9714,0,0,0,2.3571-2.848,26.6616,26.6616,0,0,0,3.63-.6278,15.9758,15.9758,0,0,1,.2968,1.6608C21.4708,22.8777,21.14,24.5728,20.3693,25.0236ZM23.4,16.8907c-.4908.2112-1.0273.4-1.5809.5765a27.42,27.42,0,0,0-1.2841-3.4757,27.05,27.05,0,0,0,1.267-3.4587c.565.1769,1.1015.371,1.6037.5822,2.02.8617,3.3274,1.9918,3.3274,2.8879C26.7273,14.8989,25.42,16.0347,23.4,16.8907Z"/><path d="M13.9943,16.6111a2.6083,2.6083,0,1,0-2.6083-2.6082A2.6082,2.6082,0,0,0,13.9943,16.6111Z"/></svg>