<svg id="Ebene_1" data-name="Ebene 1" xmlns="http://www.w3.org/2000/svg" viewBox="0 0 28 28"><title>uba</title><path id="path3458" d="M7.7429,10.7859C5.149,10.55,3.2071,10.25.5225,10.092a13.4081,13.4081,0,0,0-.53,3.7191A13.8442,13.8442,0,0,0,9.9836,27.0457h.0223c2.0592-3.1984,2.4947-5.9542,2.9261-9.5881a7.5224,7.5224,0,0,0-.74-4.6977c-.8348-1.3528-2.7572-1.974-4.4492-1.974M23.4038,8.8635c1.1071.1452,3.7637.2262,3.7637.2262A14.0638,14.0638,0,0,0,.8632,9.0757a26.2687,26.2687,0,0,0,3.6492-.2122c2.1513-.3,4.9448-.5947,7.2721-.8948a3.3012,3.3012,0,0,0,1.678-.5431A2.2723,2.2723,0,0,1,11.825,5.2617a2.2318,2.2318,0,1,1,2.63,2.1639,3.3016,3.3016,0,0,0,1.6781.5431c2.3272.3,5.1207.5947,7.2706.8948m4.6042,4.9476a13.5614,13.5614,0,0,0-.5124-3.7135h-.1368c-2.68.1578-4.6209.4579-7.22.6925-1.692,0-3.6157.6212-4.445,1.9726a7.4921,7.4921,0,0,0-.7427,4.6991c.43,3.6325.8656,6.3911,2.9247,9.5881l.0489.02A13.8483,13.8483,0,0,0,28.008,13.8111"/></svg>