<svg id="Ebene_1" data-name="Ebene 1" xmlns="http://www.w3.org/2000/svg" viewBox="0 0 28 28"><title>webpack</title><path d="M25.8464,21.58,14.4984,28V23.0011l7.0707-3.8906,4.2773,2.47Zm.7774-.7029V7.4538l-4.1509,2.399v8.6291l4.1509,2.3954Zm-24.47.7029L13.5016,28V23.0011L6.4272,19.1105,2.1536,21.58Zm-.7774-.7029V7.4538l4.1509,2.399v8.6291ZM1.8634,6.5834,13.5016,0V4.8316L6.0441,8.9341l-.0595.0335L1.8634,6.5834Zm24.2732,0L14.4984,0V4.8316L21.9559,8.93l.0595.0335,4.1212-2.3805Z"/><path d="M13.5016,21.8629,6.5239,18.0244V10.4256l6.9777,4.0282Zm.9968,0,6.9777-3.8347V10.4256l-6.9777,4.0282ZM6.9963,9.5478,14,5.6982l7.0037,3.85L14,13.5909Z"/></svg>